<svg width="510" height="509" viewBox="0 0 510 509" fill="none" xmlns="http://www.w3.org/2000/svg">
<rect width="509" height="509" fill="white"/>
<path d="M134.312 223.497V277H125.486V233.97L112.412 238.401V231.114L133.25 223.497H134.312Z" fill="black"/>
<path d="M400.957 272.969V280H365.215V273.958L382.573 255.024C384.478 252.876 385.979 251.021 387.078 249.458C388.176 247.896 388.945 246.492 389.385 245.247C389.849 243.977 390.081 242.744 390.081 241.548C390.081 239.863 389.763 238.386 389.128 237.117C388.518 235.823 387.615 234.81 386.418 234.077C385.222 233.32 383.77 232.942 382.061 232.942C380.083 232.942 378.423 233.369 377.08 234.224C375.737 235.078 374.724 236.262 374.041 237.776C373.357 239.265 373.015 240.974 373.015 242.903H364.189C364.189 239.802 364.897 236.97 366.313 234.407C367.729 231.819 369.78 229.768 372.466 228.254C375.151 226.716 378.386 225.947 382.17 225.947C385.735 225.947 388.762 226.545 391.252 227.742C393.743 228.938 395.635 230.635 396.929 232.832C398.247 235.029 398.906 237.629 398.906 240.632C398.906 242.292 398.638 243.94 398.101 245.576C397.563 247.212 396.794 248.848 395.793 250.483C394.817 252.095 393.657 253.718 392.314 255.354C390.972 256.965 389.495 258.601 387.883 260.261L376.348 272.969H400.957Z" fill="black"/>
<line x1="256.5" y1="1.09278e-07" x2="256.5" y2="509" stroke="#3EE3C5" stroke-width="5"/>
</svg>
