<svg width="510" height="280" viewBox="0 0 510 280" fill="none" xmlns="http://www.w3.org/2000/svg">
<rect width="509" height="280" fill="white"/>
<path d="M134.312 110.95V164.454H125.486V121.424L112.412 125.855V118.568L133.25 110.95H134.312Z" fill="#676767"/>
<path d="M400.957 159.073V166.104H365.215V160.062L382.573 141.129C384.478 138.98 385.979 137.125 387.078 135.562C388.176 134 388.945 132.596 389.385 131.351C389.849 130.081 390.081 128.848 390.081 127.652C390.081 125.967 389.763 124.49 389.128 123.221C388.518 121.927 387.615 120.914 386.418 120.181C385.222 119.424 383.77 119.046 382.061 119.046C380.083 119.046 378.423 119.473 377.08 120.328C375.737 121.182 374.724 122.366 374.041 123.88C373.357 125.369 373.015 127.078 373.015 129.007H364.189C364.189 125.906 364.897 123.074 366.313 120.511C367.729 117.923 369.78 115.872 372.466 114.359C375.151 112.82 378.386 112.051 382.17 112.051C385.735 112.051 388.762 112.65 391.252 113.846C393.743 115.042 395.635 116.739 396.929 118.936C398.247 121.133 398.906 123.734 398.906 126.736C398.906 128.397 398.638 130.045 398.101 131.68C397.563 133.316 396.794 134.952 395.793 136.588C394.817 138.199 393.657 139.822 392.314 141.458C390.972 143.069 389.495 144.705 387.883 146.365L376.348 159.073H400.957Z" fill="#676767"/>
<line x1="256.5" y1="1.09278e-07" x2="256.5" y2="280" stroke="#3EE3C5" stroke-width="5"/>
</svg>
