<svg width="509" height="280" viewBox="0 0 509 280" fill="none" xmlns="http://www.w3.org/2000/svg">
<rect width="509" height="280" fill="white"/>
<path d="M277.457 159.073V166.104H241.715V160.062L259.073 141.129C260.978 138.98 262.479 137.125 263.578 135.562C264.676 134 265.445 132.596 265.885 131.351C266.349 130.081 266.581 128.848 266.581 127.652C266.581 125.967 266.263 124.49 265.628 123.221C265.018 121.927 264.115 120.914 262.918 120.181C261.722 119.424 260.27 119.046 258.561 119.046C256.583 119.046 254.923 119.473 253.58 120.328C252.237 121.182 251.224 122.366 250.541 123.88C249.857 125.369 249.515 127.078 249.515 129.007H240.689C240.689 125.906 241.397 123.074 242.813 120.511C244.229 117.923 246.28 115.872 248.966 114.359C251.651 112.82 254.886 112.051 258.67 112.051C262.235 112.051 265.262 112.65 267.752 113.846C270.243 115.042 272.135 116.739 273.429 118.936C274.747 121.133 275.406 123.734 275.406 126.736C275.406 128.397 275.138 130.045 274.601 131.68C274.063 133.316 273.294 134.952 272.293 136.588C271.317 138.199 270.157 139.822 268.814 141.458C267.472 143.069 265.995 144.705 264.383 146.365L252.848 159.073H277.457Z" fill="#676767"/>
<path d="M89.8115 112.601V166.104H80.9858V123.074L67.9121 127.505V120.218L88.7495 112.601H89.8115Z" fill="#676767"/>
<path d="M421.579 135.452H426.852C428.903 135.452 430.6 135.098 431.942 134.39C433.31 133.682 434.323 132.706 434.982 131.461C435.641 130.215 435.971 128.787 435.971 127.176C435.971 125.491 435.666 124.051 435.055 122.855C434.469 121.634 433.566 120.694 432.345 120.035C431.149 119.376 429.623 119.046 427.768 119.046C426.205 119.046 424.789 119.363 423.52 119.998C422.274 120.609 421.286 121.487 420.553 122.635C419.821 123.758 419.455 125.101 419.455 126.663H410.592C410.592 123.831 411.337 121.317 412.826 119.119C414.315 116.922 416.342 115.201 418.905 113.956C421.493 112.686 424.398 112.051 427.621 112.051C431.063 112.051 434.066 112.625 436.63 113.773C439.218 114.896 441.232 116.58 442.672 118.826C444.113 121.072 444.833 123.856 444.833 127.176C444.833 128.69 444.479 130.228 443.771 131.79C443.063 133.353 442.013 134.781 440.622 136.075C439.23 137.344 437.497 138.382 435.421 139.188C433.346 139.969 430.941 140.359 428.207 140.359H421.579V135.452ZM421.579 142.337V137.503H428.207C431.332 137.503 433.993 137.869 436.19 138.602C438.412 139.334 440.219 140.347 441.61 141.641C443.002 142.911 444.015 144.363 444.65 145.999C445.309 147.635 445.639 149.368 445.639 151.199C445.639 153.69 445.187 155.911 444.284 157.864C443.405 159.793 442.147 161.429 440.512 162.772C438.876 164.114 436.959 165.128 434.762 165.811C432.589 166.495 430.221 166.837 427.658 166.837C425.363 166.837 423.166 166.519 421.066 165.884C418.966 165.25 417.086 164.31 415.426 163.065C413.766 161.795 412.448 160.22 411.471 158.34C410.519 156.436 410.043 154.239 410.043 151.749H418.869C418.869 153.336 419.235 154.739 419.967 155.96C420.724 157.156 421.774 158.096 423.117 158.78C424.484 159.464 426.046 159.805 427.804 159.805C429.66 159.805 431.259 159.476 432.602 158.817C433.944 158.157 434.97 157.181 435.678 155.887C436.41 154.593 436.776 153.03 436.776 151.199C436.776 149.124 436.374 147.44 435.568 146.146C434.762 144.852 433.615 143.9 432.125 143.289C430.636 142.654 428.878 142.337 426.852 142.337H421.579Z" fill="#676767"/>
<line x1="169.5" y1="1.09278e-07" x2="169.5" y2="280" stroke="#3EE3C5" stroke-width="5"/>
<line x1="350.5" y1="1.09278e-07" x2="350.5" y2="280" stroke="#3EE3C5" stroke-width="5"/>
</svg>
