<svg width="509" height="509" viewBox="0 0 509 509" fill="none" xmlns="http://www.w3.org/2000/svg">
<rect width="509" height="509" fill="white"/>
<path d="M277.457 272.969V280H241.715V273.958L259.073 255.024C260.978 252.876 262.479 251.021 263.578 249.458C264.676 247.896 265.445 246.492 265.885 245.247C266.349 243.977 266.581 242.744 266.581 241.548C266.581 239.863 266.263 238.386 265.628 237.117C265.018 235.823 264.115 234.81 262.918 234.077C261.722 233.32 260.27 232.942 258.561 232.942C256.583 232.942 254.923 233.369 253.58 234.224C252.237 235.078 251.224 236.262 250.541 237.776C249.857 239.265 249.515 240.974 249.515 242.903H240.689C240.689 239.802 241.397 236.97 242.813 234.407C244.229 231.819 246.28 229.768 248.966 228.254C251.651 226.716 254.886 225.947 258.67 225.947C262.235 225.947 265.262 226.545 267.752 227.742C270.243 228.938 272.135 230.635 273.429 232.832C274.747 235.029 275.406 237.629 275.406 240.632C275.406 242.292 275.138 243.94 274.601 245.576C274.063 247.212 273.294 248.848 272.293 250.483C271.317 252.095 270.157 253.718 268.814 255.354C267.472 256.965 265.995 258.601 264.383 260.261L252.848 272.969H277.457Z" fill="black"/>
<path d="M89.8115 226.497V280H80.9858V236.97L67.9121 241.401V234.114L88.7495 226.497H89.8115Z" fill="black"/>
<path d="M421.579 249.348H426.852C428.903 249.348 430.6 248.994 431.942 248.286C433.31 247.578 434.323 246.602 434.982 245.356C435.641 244.111 435.971 242.683 435.971 241.072C435.971 239.387 435.666 237.947 435.055 236.75C434.469 235.53 433.566 234.59 432.345 233.931C431.149 233.271 429.623 232.942 427.768 232.942C426.205 232.942 424.789 233.259 423.52 233.894C422.274 234.504 421.286 235.383 420.553 236.531C419.821 237.654 419.455 238.997 419.455 240.559H410.592C410.592 237.727 411.337 235.212 412.826 233.015C414.315 230.818 416.342 229.097 418.905 227.852C421.493 226.582 424.398 225.947 427.621 225.947C431.063 225.947 434.066 226.521 436.63 227.668C439.218 228.792 441.232 230.476 442.672 232.722C444.113 234.968 444.833 237.751 444.833 241.072C444.833 242.585 444.479 244.124 443.771 245.686C443.063 247.249 442.013 248.677 440.622 249.971C439.23 251.24 437.497 252.278 435.421 253.083C433.346 253.865 430.941 254.255 428.207 254.255H421.579V249.348ZM421.579 256.233V251.399H428.207C431.332 251.399 433.993 251.765 436.19 252.498C438.412 253.23 440.219 254.243 441.61 255.537C443.002 256.807 444.015 258.259 444.65 259.895C445.309 261.531 445.639 263.264 445.639 265.095C445.639 267.585 445.187 269.807 444.284 271.76C443.405 273.689 442.147 275.325 440.512 276.667C438.876 278.01 436.959 279.023 434.762 279.707C432.589 280.391 430.221 280.732 427.658 280.732C425.363 280.732 423.166 280.415 421.066 279.78C418.966 279.146 417.086 278.206 415.426 276.96C413.766 275.691 412.448 274.116 411.471 272.236C410.519 270.332 410.043 268.135 410.043 265.645H418.869C418.869 267.231 419.235 268.635 419.967 269.856C420.724 271.052 421.774 271.992 423.117 272.676C424.484 273.359 426.046 273.701 427.804 273.701C429.66 273.701 431.259 273.372 432.602 272.712C433.944 272.053 434.97 271.077 435.678 269.783C436.41 268.489 436.776 266.926 436.776 265.095C436.776 263.02 436.374 261.335 435.568 260.042C434.762 258.748 433.615 257.795 432.125 257.185C430.636 256.55 428.878 256.233 426.852 256.233H421.579Z" fill="black"/>
<line x1="169.5" y1="1.09278e-07" x2="169.5" y2="509" stroke="#3EE3C5" stroke-width="5"/>
<line x1="350.5" y1="1.09278e-07" x2="350.5" y2="509" stroke="#3EE3C5" stroke-width="5"/>
</svg>
