<svg width="101" height="34" viewBox="0 0 101 34" fill="none" xmlns="http://www.w3.org/2000/svg">
<rect width="101" height="34" rx="4" fill="#3E41DC"/>
<path d="M27.9351 17.7598H29.6441C29.5894 18.4115 29.4071 18.9925 29.0972 19.5029C28.7873 20.0088 28.3521 20.4076 27.7916 20.6992C27.231 20.9909 26.5497 21.1367 25.7476 21.1367C25.1324 21.1367 24.5787 21.0273 24.0865 20.8086C23.5943 20.5853 23.1727 20.2708 22.8218 19.8652C22.4709 19.4551 22.202 18.9606 22.0152 18.3818C21.8329 17.8031 21.7418 17.1559 21.7418 16.4404V15.6133C21.7418 14.8978 21.8352 14.2507 22.022 13.6719C22.2134 13.0931 22.4869 12.5986 22.8423 12.1885C23.1978 11.7738 23.6239 11.457 24.1207 11.2383C24.622 11.0195 25.1848 10.9102 25.8091 10.9102C26.6021 10.9102 27.272 11.056 27.8189 11.3477C28.3658 11.6393 28.7896 12.0426 29.0904 12.5576C29.3957 13.0726 29.5826 13.6628 29.6509 14.3281H27.942C27.8964 13.8997 27.7961 13.5329 27.6412 13.2275C27.4908 12.9222 27.2675 12.6898 26.9713 12.5303C26.675 12.3662 26.2877 12.2842 25.8091 12.2842C25.4172 12.2842 25.0754 12.3571 24.7838 12.5029C24.4921 12.6488 24.2483 12.863 24.0523 13.1455C23.8563 13.4281 23.7082 13.7767 23.608 14.1914C23.5123 14.6016 23.4644 15.071 23.4644 15.5996V16.4404C23.4644 16.9417 23.5077 17.3975 23.5943 17.8076C23.6854 18.2132 23.8222 18.5618 24.0045 18.8535C24.1913 19.1452 24.4283 19.3708 24.7154 19.5303C25.0025 19.6898 25.3466 19.7695 25.7476 19.7695C26.2352 19.7695 26.6295 19.6921 26.9302 19.5371C27.2356 19.3822 27.4657 19.1566 27.6207 18.8604C27.7802 18.5596 27.885 18.1927 27.9351 17.7598ZM32.9423 10.5V21H31.288V10.5H32.9423ZM36.6507 13.6035V21H34.9964V13.6035H36.6507ZM34.887 11.6621C34.887 11.4115 34.969 11.2041 35.1331 11.04C35.3017 10.8714 35.5341 10.7871 35.8304 10.7871C36.122 10.7871 36.3522 10.8714 36.5208 11.04C36.6894 11.2041 36.7737 11.4115 36.7737 11.6621C36.7737 11.9082 36.6894 12.1133 36.5208 12.2773C36.3522 12.4414 36.122 12.5234 35.8304 12.5234C35.5341 12.5234 35.3017 12.4414 35.1331 12.2773C34.969 12.1133 34.887 11.9082 34.887 11.6621ZM41.6168 19.8242C41.8857 19.8242 42.1273 19.7718 42.3414 19.667C42.5602 19.5576 42.7357 19.4072 42.8678 19.2158C43.0045 19.0244 43.0797 18.8034 43.0934 18.5527H44.6452C44.636 19.0312 44.4948 19.4665 44.2213 19.8584C43.9479 20.2503 43.5856 20.5625 43.1344 20.7949C42.6832 21.0228 42.1842 21.1367 41.6373 21.1367C41.0722 21.1367 40.5801 21.041 40.1608 20.8496C39.7415 20.6536 39.3929 20.3848 39.1149 20.043C38.8369 19.7012 38.6273 19.307 38.486 18.8604C38.3493 18.4137 38.2809 17.9352 38.2809 17.4248V17.1855C38.2809 16.6751 38.3493 16.1966 38.486 15.75C38.6273 15.2988 38.8369 14.9023 39.1149 14.5605C39.3929 14.2188 39.7415 13.9521 40.1608 13.7607C40.5801 13.5648 41.07 13.4668 41.6305 13.4668C42.223 13.4668 42.7425 13.5853 43.1891 13.8223C43.6357 14.0547 43.9866 14.3805 44.2418 14.7998C44.5016 15.2145 44.636 15.6976 44.6452 16.249H43.0934C43.0797 15.9756 43.0114 15.7295 42.8883 15.5107C42.7698 15.2874 42.6012 15.1097 42.3825 14.9775C42.1683 14.8454 41.9108 14.7793 41.61 14.7793C41.2773 14.7793 41.0016 14.8477 40.7829 14.9844C40.5641 15.1165 40.3932 15.2988 40.2702 15.5312C40.1471 15.7591 40.0582 16.0166 40.0036 16.3037C39.9534 16.5863 39.9284 16.8802 39.9284 17.1855V17.4248C39.9284 17.7301 39.9534 18.0264 40.0036 18.3135C40.0537 18.6006 40.1403 18.8581 40.2633 19.0859C40.3909 19.3092 40.5641 19.4893 40.7829 19.626C41.0016 19.7581 41.2796 19.8242 41.6168 19.8242ZM47.7109 10.5V21H46.0566V10.5H47.7109ZM52.3047 13.6035L49.085 17.1719L47.3213 18.9766L46.8906 17.582L48.2236 15.9346L50.3154 13.6035H52.3047ZM50.6709 21L48.2715 17.5273L49.3105 16.3721L52.5781 21H50.6709ZM58.7644 15.1074V21H57.1169V13.6035H58.6687L58.7644 15.1074ZM58.4978 17.0283L57.9372 17.0215C57.9372 16.5111 58.001 16.0394 58.1286 15.6064C58.2562 15.1735 58.4431 14.7975 58.6892 14.4785C58.9353 14.1549 59.2406 13.9066 59.6052 13.7334C59.9743 13.5557 60.4004 13.4668 60.8835 13.4668C61.2208 13.4668 61.5284 13.5169 61.8064 13.6172C62.0889 13.7129 62.3327 13.8656 62.5378 14.0752C62.7474 14.2848 62.907 14.5537 63.0163 14.8818C63.1303 15.21 63.1872 15.6064 63.1872 16.0713V21H61.5398V16.2148C61.5398 15.8548 61.4851 15.5723 61.3757 15.3672C61.2709 15.1621 61.1182 15.0163 60.9177 14.9297C60.7217 14.8385 60.487 14.793 60.2136 14.793C59.9037 14.793 59.6394 14.8522 59.4206 14.9707C59.2064 15.0892 59.031 15.251 58.8943 15.4561C58.7575 15.6611 58.6573 15.8981 58.5935 16.167C58.5297 16.4359 58.4978 16.723 58.4978 17.0283ZM63.0847 16.5908L62.3122 16.7617C62.3122 16.3151 62.3737 15.8936 62.4968 15.4971C62.6244 15.096 62.809 14.7451 63.0505 14.4443C63.2966 14.139 63.5997 13.8997 63.9597 13.7266C64.3197 13.5534 64.7321 13.4668 65.197 13.4668C65.5752 13.4668 65.9125 13.5192 66.2087 13.624C66.5095 13.7243 66.7647 13.8838 66.9743 14.1025C67.184 14.3213 67.3435 14.6061 67.4529 14.957C67.5622 15.3034 67.6169 15.7227 67.6169 16.2148V21H65.9626V16.208C65.9626 15.8343 65.9079 15.5449 65.7986 15.3398C65.6937 15.1348 65.5433 14.9935 65.3474 14.916C65.1514 14.834 64.9167 14.793 64.6433 14.793C64.3881 14.793 64.1625 14.8408 63.9665 14.9365C63.7751 15.0277 63.6133 15.1576 63.4812 15.3262C63.349 15.4902 63.2487 15.6794 63.1804 15.8936C63.1166 16.1077 63.0847 16.3402 63.0847 16.5908ZM72.713 21.1367C72.1661 21.1367 71.6716 21.0479 71.2296 20.8701C70.7921 20.6878 70.4184 20.4349 70.1085 20.1113C69.8031 19.7878 69.5684 19.4072 69.4044 18.9697C69.2403 18.5322 69.1583 18.0605 69.1583 17.5547V17.2812C69.1583 16.7025 69.2426 16.1784 69.4112 15.709C69.5798 15.2396 69.8145 14.8385 70.1153 14.5059C70.4161 14.1686 70.7716 13.9111 71.1817 13.7334C71.5919 13.5557 72.0362 13.4668 72.5147 13.4668C73.0434 13.4668 73.5059 13.5557 73.9024 13.7334C74.2989 13.9111 74.627 14.1618 74.8868 14.4854C75.1511 14.8044 75.3471 15.1849 75.4747 15.627C75.6068 16.069 75.6729 16.5566 75.6729 17.0898V17.7939H69.9581V16.6113H74.046V16.4814C74.0369 16.1852 73.9776 15.9072 73.8682 15.6475C73.7634 15.3877 73.6016 15.1781 73.3829 15.0186C73.1641 14.859 72.8725 14.7793 72.5079 14.7793C72.2345 14.7793 71.9906 14.8385 71.7764 14.957C71.5668 15.071 71.3914 15.2373 71.2501 15.4561C71.1088 15.6748 70.9994 15.9391 70.922 16.249C70.849 16.5544 70.8126 16.8984 70.8126 17.2812V17.5547C70.8126 17.8783 70.8559 18.179 70.9425 18.457C71.0336 18.7305 71.1658 18.9697 71.3389 19.1748C71.5121 19.3799 71.7218 19.5417 71.9678 19.6602C72.2139 19.7741 72.4942 19.8311 72.8087 19.8311C73.2052 19.8311 73.5583 19.7513 73.8682 19.5918C74.1781 19.4323 74.447 19.2067 74.6749 18.915L75.543 19.7559C75.3835 19.9883 75.1762 20.2116 74.921 20.4258C74.6658 20.6354 74.3536 20.8063 73.9845 20.9385C73.6199 21.0706 73.196 21.1367 72.713 21.1367ZM78.9985 11.0469L78.8344 18.0674H77.4262L77.2553 11.0469H78.9985ZM77.2075 20.2207C77.2075 19.9701 77.2895 19.7604 77.4536 19.5918C77.6222 19.4186 77.8546 19.332 78.1508 19.332C78.4425 19.332 78.6726 19.4186 78.8412 19.5918C79.0099 19.7604 79.0942 19.9701 79.0942 20.2207C79.0942 20.4622 79.0099 20.6696 78.8412 20.8428C78.6726 21.0114 78.4425 21.0957 78.1508 21.0957C77.8546 21.0957 77.6222 21.0114 77.4536 20.8428C77.2895 20.6696 77.2075 20.4622 77.2075 20.2207Z" fill="white"/>
</svg>
