<svg width="35" height="16" viewBox="0 0 35 16" fill="none" xmlns="http://www.w3.org/2000/svg">
<path d="M4.375 6.67969H1.49219L1.47656 5.46875H4.09375C4.52604 5.46875 4.90365 5.39583 5.22656 5.25C5.54948 5.10417 5.79948 4.89583 5.97656 4.625C6.15885 4.34896 6.25 4.02083 6.25 3.64062C6.25 3.22396 6.16927 2.88542 6.00781 2.625C5.85156 2.35938 5.60938 2.16667 5.28125 2.04688C4.95833 1.92188 4.54688 1.85938 4.04688 1.85938H1.82812V12H0.320312V0.625H4.04688C4.63021 0.625 5.15104 0.684896 5.60938 0.804688C6.06771 0.919271 6.45573 1.10156 6.77344 1.35156C7.09635 1.59635 7.34115 1.90885 7.50781 2.28906C7.67448 2.66927 7.75781 3.125 7.75781 3.65625C7.75781 4.125 7.63802 4.54948 7.39844 4.92969C7.15885 5.30469 6.82552 5.61198 6.39844 5.85156C5.97656 6.09115 5.48177 6.24479 4.91406 6.3125L4.375 6.67969ZM4.30469 12H0.898438L1.75 10.7734H4.30469C4.78385 10.7734 5.1901 10.6901 5.52344 10.5234C5.86198 10.3568 6.11979 10.1224 6.29688 9.82031C6.47396 9.51302 6.5625 9.15104 6.5625 8.73438C6.5625 8.3125 6.48698 7.94792 6.33594 7.64062C6.1849 7.33333 5.94792 7.09635 5.625 6.92969C5.30208 6.76302 4.88542 6.67969 4.375 6.67969H2.22656L2.24219 5.46875H5.17969L5.5 5.90625C6.04688 5.95312 6.51042 6.10938 6.89062 6.375C7.27083 6.63542 7.5599 6.96875 7.75781 7.375C7.96094 7.78125 8.0625 8.22917 8.0625 8.71875C8.0625 9.42708 7.90625 10.026 7.59375 10.5156C7.28646 11 6.85156 11.3698 6.28906 11.625C5.72656 11.875 5.0651 12 4.30469 12ZM9.8475 7.86719V7.6875C9.8475 7.07812 9.93604 6.51302 10.1131 5.99219C10.2902 5.46615 10.5454 5.01042 10.8787 4.625C11.2121 4.23438 11.6157 3.93229 12.0897 3.71875C12.5636 3.5 13.0949 3.39062 13.6834 3.39062C14.2772 3.39062 14.811 3.5 15.285 3.71875C15.7642 3.93229 16.1704 4.23438 16.5037 4.625C16.8423 5.01042 17.1001 5.46615 17.2772 5.99219C17.4543 6.51302 17.5428 7.07812 17.5428 7.6875V7.86719C17.5428 8.47656 17.4543 9.04167 17.2772 9.5625C17.1001 10.0833 16.8423 10.5391 16.5037 10.9297C16.1704 11.3151 15.7668 11.6172 15.2928 11.8359C14.8241 12.0495 14.2928 12.1562 13.6991 12.1562C13.1053 12.1562 12.5715 12.0495 12.0975 11.8359C11.6235 11.6172 11.2173 11.3151 10.8787 10.9297C10.5454 10.5391 10.2902 10.0833 10.1131 9.5625C9.93604 9.04167 9.8475 8.47656 9.8475 7.86719ZM11.2928 7.6875V7.86719C11.2928 8.28906 11.3423 8.6875 11.4412 9.0625C11.5402 9.43229 11.6886 9.76042 11.8866 10.0469C12.0897 10.3333 12.3423 10.5599 12.6444 10.7266C12.9465 10.888 13.298 10.9688 13.6991 10.9688C14.0949 10.9688 14.4412 10.888 14.7381 10.7266C15.0402 10.5599 15.2902 10.3333 15.4881 10.0469C15.686 9.76042 15.8345 9.43229 15.9334 9.0625C16.0376 8.6875 16.0897 8.28906 16.0897 7.86719V7.6875C16.0897 7.27083 16.0376 6.8776 15.9334 6.50781C15.8345 6.13281 15.6834 5.80208 15.4803 5.51562C15.2824 5.22396 15.0324 4.99479 14.7303 4.82812C14.4334 4.66146 14.0845 4.57812 13.6834 4.57812C13.2876 4.57812 12.9386 4.66146 12.6366 4.82812C12.3397 4.99479 12.0897 5.22396 11.8866 5.51562C11.6886 5.80208 11.5402 6.13281 11.4412 6.50781C11.3423 6.8776 11.2928 7.27083 11.2928 7.6875ZM24.8434 10.3594V0H26.2966V12H24.9684L24.8434 10.3594ZM19.1559 7.86719V7.70312C19.1559 7.05729 19.2341 6.47135 19.3903 5.94531C19.5518 5.41406 19.7783 4.95833 20.07 4.57812C20.3669 4.19792 20.7184 3.90625 21.1247 3.70312C21.5361 3.49479 21.9945 3.39062 22.4997 3.39062C23.0309 3.39062 23.4945 3.48438 23.8903 3.67188C24.2914 3.85417 24.6299 4.1224 24.9059 4.47656C25.1872 4.82552 25.4085 5.2474 25.57 5.74219C25.7315 6.23698 25.8434 6.79688 25.9059 7.42188V8.14062C25.8486 8.76042 25.7367 9.31771 25.57 9.8125C25.4085 10.3073 25.1872 10.7292 24.9059 11.0781C24.6299 11.4271 24.2914 11.6953 23.8903 11.8828C23.4893 12.0651 23.0205 12.1562 22.4841 12.1562C21.9893 12.1562 21.5361 12.0495 21.1247 11.8359C20.7184 11.6224 20.3669 11.3229 20.07 10.9375C19.7783 10.5521 19.5518 10.099 19.3903 9.57812C19.2341 9.05208 19.1559 8.48177 19.1559 7.86719ZM20.6091 7.70312V7.86719C20.6091 8.28906 20.6507 8.6849 20.7341 9.05469C20.8226 9.42448 20.958 9.75 21.1403 10.0312C21.3226 10.3125 21.5544 10.5339 21.8356 10.6953C22.1169 10.8516 22.4528 10.9297 22.8434 10.9297C23.3226 10.9297 23.7158 10.8281 24.0231 10.625C24.3356 10.4219 24.5856 10.1536 24.7731 9.82031C24.9606 9.48698 25.1065 9.125 25.2106 8.73438V6.85156C25.1481 6.5651 25.057 6.28906 24.9372 6.02344C24.8226 5.7526 24.6716 5.51302 24.4841 5.30469C24.3018 5.09115 24.0752 4.92188 23.8044 4.79688C23.5387 4.67188 23.2236 4.60938 22.8591 4.60938C22.4632 4.60938 22.1221 4.69271 21.8356 4.85938C21.5544 5.02083 21.3226 5.24479 21.1403 5.53125C20.958 5.8125 20.8226 6.14062 20.7341 6.51562C20.6507 6.88542 20.6091 7.28125 20.6091 7.70312ZM31.0816 11.125L33.4331 3.54688H34.98L31.5894 13.3047C31.5112 13.513 31.4071 13.737 31.2769 13.9766C31.1519 14.2214 30.9904 14.4531 30.7925 14.6719C30.5946 14.8906 30.355 15.0677 30.0737 15.2031C29.7977 15.3438 29.467 15.4141 29.0816 15.4141C28.967 15.4141 28.8211 15.3984 28.6441 15.3672C28.467 15.3359 28.342 15.3099 28.2691 15.2891L28.2612 14.1172C28.3029 14.1224 28.368 14.1276 28.4566 14.1328C28.5503 14.1432 28.6154 14.1484 28.6519 14.1484C28.98 14.1484 29.2586 14.1042 29.4878 14.0156C29.717 13.9323 29.9097 13.7891 30.0659 13.5859C30.2274 13.388 30.3654 13.1146 30.48 12.7656L31.0816 11.125ZM29.355 3.54688L31.5503 10.1094L31.9253 11.6328L30.8862 12.1641L27.7769 3.54688H29.355Z" fill="black"/>
</svg>
