<svg width="49" height="11" viewBox="0 0 49 11" fill="none" xmlns="http://www.w3.org/2000/svg">
<path d="M5.66528 3.61646V4.72388H1.73804V3.61646H5.66528ZM2.12256 0.535156V8H0.712646V0.535156H2.12256ZM6.71118 0.535156V8H5.30127V0.535156H6.71118ZM10.6409 8.10254C10.2205 8.10254 9.84279 8.03418 9.50783 7.89746C9.17287 7.76074 8.88747 7.57104 8.65163 7.32837C8.41921 7.08228 8.23977 6.79688 8.1133 6.47217C7.99025 6.14404 7.92873 5.79199 7.92873 5.41602V5.21094C7.92873 4.78369 7.99025 4.39575 8.1133 4.04712C8.23635 3.69507 8.41066 3.39258 8.63625 3.13965C8.86184 2.88672 9.13186 2.69189 9.44631 2.55518C9.76076 2.41846 10.1077 2.3501 10.4871 2.3501C10.8801 2.3501 11.2271 2.41675 11.5279 2.55005C11.8286 2.67993 12.0799 2.8645 12.2815 3.10376C12.4832 3.34302 12.6353 3.63013 12.7378 3.96509C12.8404 4.29663 12.8916 4.66406 12.8916 5.06738V5.63647H8.54396V4.70337H11.5586V4.60083C11.5518 4.3855 11.5108 4.18896 11.4356 4.01123C11.3604 3.83008 11.2442 3.68652 11.0869 3.58057C10.9297 3.47119 10.7263 3.4165 10.4768 3.4165C10.2752 3.4165 10.0991 3.46094 9.94875 3.5498C9.80178 3.63525 9.67873 3.7583 9.57961 3.91895C9.48391 4.07617 9.41213 4.26416 9.36428 4.48291C9.31643 4.70166 9.2925 4.94434 9.2925 5.21094V5.41602C9.2925 5.64844 9.32326 5.86377 9.38479 6.06201C9.44973 6.26025 9.54372 6.43286 9.66677 6.57983C9.79323 6.72339 9.94362 6.83618 10.1179 6.91821C10.2957 6.99683 10.4973 7.03613 10.7229 7.03613C11.0066 7.03613 11.263 6.98145 11.492 6.87207C11.7244 6.75928 11.926 6.59351 12.0969 6.37476L12.7788 7.08228C12.6626 7.25317 12.5054 7.41724 12.3071 7.57446C12.1123 7.73169 11.8765 7.85986 11.5996 7.95898C11.3228 8.05469 11.0032 8.10254 10.6409 8.10254ZM16.9598 6.8208V4.26245C16.9598 4.07446 16.9273 3.91211 16.8623 3.77539C16.7974 3.63867 16.6983 3.53271 16.565 3.45752C16.4317 3.38232 16.2625 3.34473 16.0574 3.34473C15.8763 3.34473 15.7173 3.37549 15.5806 3.43701C15.4473 3.49854 15.3448 3.58569 15.273 3.69849C15.2012 3.80786 15.1653 3.93433 15.1653 4.07788H13.8067C13.8067 3.84888 13.8614 3.63184 13.9707 3.42676C14.0801 3.21826 14.2356 3.03369 14.4373 2.87305C14.6424 2.70898 14.8868 2.58081 15.1704 2.48853C15.4576 2.39624 15.7788 2.3501 16.1343 2.3501C16.5547 2.3501 16.929 2.42188 17.2571 2.56543C17.5887 2.70557 17.8484 2.91748 18.0364 3.20117C18.2278 3.48486 18.3235 3.84204 18.3235 4.27271V6.69263C18.3235 6.96948 18.3406 7.20703 18.3748 7.40527C18.4124 7.6001 18.4671 7.76929 18.5389 7.91284V8H17.1597C17.0948 7.85986 17.0452 7.68213 17.011 7.4668C16.9768 7.24805 16.9598 7.03271 16.9598 6.8208ZM17.1495 4.62134L17.1597 5.42627H16.3035C16.0916 5.42627 15.9053 5.44849 15.7447 5.49292C15.584 5.53394 15.4524 5.59546 15.3499 5.67749C15.2474 5.7561 15.1704 5.85181 15.1192 5.9646C15.0679 6.07397 15.0423 6.19873 15.0423 6.33887C15.0423 6.47559 15.073 6.59863 15.1346 6.70801C15.1995 6.81738 15.2918 6.90454 15.4114 6.96948C15.5345 7.03101 15.678 7.06177 15.8421 7.06177C16.0813 7.06177 16.2898 7.01392 16.4676 6.91821C16.6453 6.81909 16.7837 6.69946 16.8829 6.55933C16.982 6.41919 17.035 6.28589 17.0418 6.15942L17.4314 6.7439C17.3836 6.88403 17.3118 7.03271 17.2161 7.18994C17.1204 7.34717 16.9974 7.49414 16.847 7.63086C16.6966 7.76758 16.5154 7.88037 16.3035 7.96924C16.0916 8.05811 15.8455 8.10254 15.5652 8.10254C15.2063 8.10254 14.885 8.03076 14.6014 7.88721C14.3177 7.74365 14.0938 7.54712 13.9297 7.29761C13.7657 7.0481 13.6836 6.7644 13.6836 6.44653C13.6836 6.15259 13.7383 5.89282 13.8477 5.66724C13.9571 5.44165 14.1194 5.25195 14.3348 5.09814C14.5501 4.94092 14.8167 4.823 15.1346 4.74438C15.4558 4.66235 15.8233 4.62134 16.2369 4.62134H17.1495ZM22.9761 6.8208V0.125H24.3399V8H23.1094L22.9761 6.8208ZM19.4129 5.29297V5.1853C19.4129 4.76147 19.4608 4.37695 19.5565 4.03174C19.6556 3.68311 19.7991 3.38403 19.9871 3.13452C20.1751 2.88501 20.4024 2.69189 20.669 2.55518C20.939 2.41846 21.2449 2.3501 21.5867 2.3501C21.9183 2.3501 22.2071 2.41675 22.4532 2.55005C22.7027 2.68335 22.9146 2.87305 23.0889 3.11914C23.2667 3.36523 23.4085 3.65747 23.5145 3.99585C23.6204 4.33081 23.6973 4.69995 23.7452 5.10327V5.39551C23.6973 5.78857 23.6204 6.14917 23.5145 6.47729C23.4085 6.80542 23.2667 7.09253 23.0889 7.33862C22.9146 7.5813 22.7027 7.76929 22.4532 7.90259C22.2037 8.03589 21.9114 8.10254 21.5765 8.10254C21.2381 8.10254 20.9339 8.03247 20.6639 7.89233C20.3973 7.7522 20.17 7.55566 19.982 7.30273C19.7974 7.0498 19.6556 6.75244 19.5565 6.41064C19.4608 6.06885 19.4129 5.69629 19.4129 5.29297ZM20.7715 5.1853V5.29297C20.7715 5.53223 20.7921 5.7561 20.8331 5.9646C20.8741 6.1731 20.9407 6.35767 21.033 6.51831C21.1253 6.67554 21.2432 6.79858 21.3868 6.88745C21.5338 6.97632 21.7115 7.02075 21.92 7.02075C22.1866 7.02075 22.4053 6.96265 22.5762 6.84644C22.7505 6.72681 22.8856 6.56445 22.9813 6.35938C23.077 6.15088 23.1385 5.91675 23.1658 5.65698V4.85205C23.1522 4.64697 23.1163 4.45728 23.0582 4.28296C23.0035 4.10864 22.9249 3.95825 22.8223 3.83179C22.7232 3.70532 22.6002 3.6062 22.4532 3.53442C22.3062 3.46265 22.1319 3.42676 21.9302 3.42676C21.7217 3.42676 21.544 3.4729 21.397 3.56519C21.2501 3.65405 21.1304 3.77881 21.0381 3.93945C20.9459 4.1001 20.8775 4.28638 20.8331 4.49829C20.7921 4.71021 20.7715 4.93921 20.7715 5.1853ZM27.1058 2.45264V8H25.7471V2.45264H27.1058ZM25.6549 1.00171C25.6549 0.800049 25.7232 0.632568 25.8599 0.499268C26.0001 0.365967 26.1881 0.299316 26.4239 0.299316C26.6597 0.299316 26.846 0.365967 26.9827 0.499268C27.1229 0.632568 27.1929 0.800049 27.1929 1.00171C27.1929 1.19995 27.1229 1.36572 26.9827 1.49902C26.846 1.63232 26.6597 1.69897 26.4239 1.69897C26.1881 1.69897 26.0001 1.63232 25.8599 1.49902C25.7232 1.36572 25.6549 1.19995 25.6549 1.00171ZM29.8307 3.63696V8H28.4771V2.45264H29.7486L29.8307 3.63696ZM29.6153 5.02637H29.2154C29.2188 4.62305 29.2735 4.25732 29.3795 3.9292C29.4854 3.60107 29.6341 3.31909 29.8255 3.08325C30.0204 2.84741 30.2511 2.66626 30.5177 2.53979C30.7843 2.41333 31.0816 2.3501 31.4098 2.3501C31.6764 2.3501 31.9173 2.3877 32.1327 2.46289C32.348 2.53809 32.5326 2.65771 32.6864 2.82178C32.8436 2.98584 32.9632 3.20117 33.0453 3.46777C33.1307 3.73096 33.1734 4.05566 33.1734 4.44189V8H31.8097V4.43164C31.8097 4.17871 31.7721 3.97876 31.6969 3.83179C31.6251 3.68481 31.5191 3.58057 31.379 3.51904C31.2423 3.45752 31.0731 3.42676 30.8714 3.42676C30.6629 3.42676 30.4801 3.46948 30.3229 3.55493C30.169 3.63696 30.0392 3.75146 29.9332 3.89844C29.8307 4.04541 29.7521 4.2146 29.6974 4.40601C29.6427 4.59741 29.6153 4.8042 29.6153 5.02637ZM38.0004 2.45264H39.2308V7.83081C39.2308 8.33325 39.1215 8.75879 38.9027 9.10742C38.6874 9.45947 38.3849 9.72607 37.9952 9.90723C37.6056 10.0918 37.1527 10.1841 36.6366 10.1841C36.4144 10.1841 36.1735 10.1533 35.9137 10.0918C35.6573 10.0303 35.4095 9.93286 35.1703 9.79956C34.9344 9.66968 34.7379 9.50049 34.5807 9.29199L35.1908 8.49219C35.3754 8.70752 35.5839 8.86987 35.8163 8.97925C36.0487 9.09204 36.2999 9.14844 36.5699 9.14844C36.8434 9.14844 37.0758 9.09717 37.2672 8.99463C37.462 8.89551 37.6107 8.74854 37.7133 8.55371C37.8192 8.3623 37.8722 8.12646 37.8722 7.84619V3.71899L38.0004 2.45264ZM34.2526 5.29297V5.1853C34.2526 4.76147 34.3038 4.37695 34.4064 4.03174C34.5089 3.68311 34.6559 3.38403 34.8473 3.13452C35.0421 2.88501 35.2762 2.69189 35.5497 2.55518C35.8265 2.41846 36.1376 2.3501 36.4828 2.3501C36.8485 2.3501 37.1561 2.41675 37.4056 2.55005C37.6586 2.68335 37.8671 2.87305 38.0311 3.11914C38.1986 3.36523 38.3285 3.65747 38.4208 3.99585C38.5165 4.33081 38.59 4.69995 38.6412 5.10327V5.39551C38.5934 5.78857 38.5165 6.14917 38.4105 6.47729C38.308 6.80542 38.1713 7.09253 38.0004 7.33862C37.8295 7.5813 37.6175 7.76929 37.3646 7.90259C37.1117 8.03589 36.8143 8.10254 36.4725 8.10254C36.1307 8.10254 35.8231 8.03247 35.5497 7.89233C35.2762 7.7522 35.0421 7.55566 34.8473 7.30273C34.6559 7.0498 34.5089 6.75244 34.4064 6.41064C34.3038 6.06885 34.2526 5.69629 34.2526 5.29297ZM35.6061 5.1853V5.29297C35.6061 5.53223 35.63 5.7561 35.6779 5.9646C35.7257 6.1731 35.7992 6.35767 35.8983 6.51831C35.9974 6.67554 36.1222 6.79858 36.2726 6.88745C36.423 6.97632 36.6024 7.02075 36.8109 7.02075C37.0912 7.02075 37.3202 6.96265 37.4979 6.84644C37.6791 6.72681 37.8158 6.56445 37.9081 6.35938C38.0038 6.15088 38.0653 5.91675 38.0926 5.65698V4.85205C38.0756 4.64697 38.038 4.45728 37.9799 4.28296C37.9252 4.10864 37.8483 3.95825 37.7491 3.83179C37.65 3.70532 37.5236 3.6062 37.3697 3.53442C37.2159 3.46265 37.0331 3.42676 36.8212 3.42676C36.6161 3.42676 36.4366 3.4729 36.2828 3.56519C36.129 3.65405 36.0026 3.77881 35.9034 3.93945C35.8043 4.1001 35.7291 4.28638 35.6779 4.49829C35.63 4.71021 35.6061 4.93921 35.6061 5.1853ZM46.9723 0.473633H47.1569V1.56567H47.0697C46.6562 1.56567 46.2921 1.62891 45.9777 1.75537C45.6667 1.88184 45.4069 2.05957 45.1984 2.28857C44.9933 2.51416 44.8378 2.78247 44.7318 3.09351C44.6259 3.40112 44.5729 3.73779 44.5729 4.10352V5.31348C44.5729 5.59717 44.602 5.84668 44.6601 6.06201C44.7216 6.27393 44.8053 6.45337 44.9113 6.60034C45.0207 6.7439 45.1471 6.85156 45.2907 6.92334C45.4377 6.99512 45.5983 7.03101 45.7726 7.03101C45.9469 7.03101 46.1042 6.99512 46.2443 6.92334C46.3844 6.85156 46.5041 6.75073 46.6032 6.62085C46.7057 6.48755 46.7826 6.33203 46.8339 6.1543C46.8886 5.97656 46.9159 5.78174 46.9159 5.56982C46.9159 5.36133 46.8903 5.16821 46.839 4.99048C46.7878 4.81274 46.7126 4.65723 46.6134 4.52393C46.5143 4.38721 46.3913 4.28296 46.2443 4.21118C46.1007 4.13599 45.9367 4.09839 45.7521 4.09839C45.5129 4.09839 45.2992 4.15479 45.1112 4.26758C44.9233 4.37695 44.7746 4.52051 44.6652 4.69824C44.5558 4.87598 44.496 5.06396 44.4858 5.26221L44.0295 5.03662C44.0465 4.74609 44.1081 4.47949 44.214 4.23682C44.3234 3.99414 44.4687 3.78223 44.6498 3.60107C44.8344 3.41992 45.0514 3.27979 45.3009 3.18066C45.5539 3.08154 45.8341 3.03198 46.1418 3.03198C46.4972 3.03198 46.8083 3.10034 47.0749 3.23706C47.3415 3.37036 47.5619 3.55322 47.7362 3.78564C47.914 4.01807 48.0473 4.28638 48.1361 4.59058C48.225 4.89136 48.2694 5.20923 48.2694 5.54419C48.2694 5.90308 48.2113 6.23804 48.0951 6.54907C47.9823 6.86011 47.8183 7.13184 47.6029 7.36426C47.3876 7.59668 47.1278 7.77783 46.8236 7.90771C46.5194 8.0376 46.1776 8.10254 45.7983 8.10254C45.3983 8.10254 45.0395 8.02734 44.7216 7.87695C44.4071 7.72656 44.1371 7.51807 43.9115 7.25146C43.6859 6.98486 43.5133 6.67383 43.3937 6.31836C43.2741 5.96289 43.2143 5.57837 43.2143 5.16479V4.62134C43.2143 4.03687 43.2946 3.49341 43.4552 2.99097C43.6159 2.48853 43.8534 2.04932 44.1679 1.67334C44.4858 1.29395 44.8788 1 45.3471 0.791504C45.8153 0.57959 46.3571 0.473633 46.9723 0.473633Z" fill="black"/>
</svg>
