<svg width="110" height="23" viewBox="0 0 110 23" fill="none" xmlns="http://www.w3.org/2000/svg">
<path d="M11.9492 7.98047V10.5117H2.97266V7.98047H11.9492ZM3.85156 0.9375V18H0.628906V0.9375H3.85156ZM14.3398 0.9375V18H11.1172V0.9375H14.3398ZM23.322 18.2344C22.3611 18.2344 21.4978 18.0781 20.7322 17.7656C19.9666 17.4531 19.3142 17.0195 18.7752 16.4648C18.2439 15.9023 17.8337 15.25 17.5447 14.5078C17.2634 13.7578 17.1228 12.9531 17.1228 12.0938V11.625C17.1228 10.6484 17.2634 9.76172 17.5447 8.96484C17.8259 8.16016 18.2244 7.46875 18.74 6.89062C19.2556 6.3125 19.8728 5.86719 20.5916 5.55469C21.3103 5.24219 22.1033 5.08594 22.9705 5.08594C23.8689 5.08594 24.6619 5.23828 25.3494 5.54297C26.0369 5.83984 26.6111 6.26172 27.072 6.80859C27.533 7.35547 27.8806 8.01172 28.115 8.77734C28.3494 9.53516 28.4666 10.375 28.4666 11.2969V12.5977H18.5291V10.4648H25.4197V10.2305C25.4041 9.73828 25.3103 9.28906 25.1384 8.88281C24.9666 8.46875 24.7009 8.14062 24.3416 7.89844C23.9822 7.64844 23.5173 7.52344 22.947 7.52344C22.4861 7.52344 22.0837 7.625 21.74 7.82812C21.4041 8.02344 21.1228 8.30469 20.8962 8.67188C20.6775 9.03125 20.5134 9.46094 20.4041 9.96094C20.2947 10.4609 20.24 11.0156 20.24 11.625V12.0938C20.24 12.625 20.3103 13.1172 20.4509 13.5703C20.5994 14.0234 20.8142 14.418 21.0955 14.7539C21.3845 15.082 21.7283 15.3398 22.1267 15.5273C22.533 15.707 22.9939 15.7969 23.5095 15.7969C24.158 15.7969 24.7439 15.6719 25.2673 15.4219C25.7986 15.1641 26.2595 14.7852 26.6502 14.2852L28.2087 15.9023C27.9431 16.293 27.5837 16.668 27.1306 17.0273C26.6853 17.3867 26.1462 17.6797 25.5134 17.9062C24.8806 18.125 24.1502 18.2344 23.322 18.2344ZM37.7652 15.3047V9.45703C37.7652 9.02734 37.6909 8.65625 37.5425 8.34375C37.3941 8.03125 37.1675 7.78906 36.8628 7.61719C36.5581 7.44531 36.1714 7.35938 35.7027 7.35938C35.2886 7.35938 34.9253 7.42969 34.6128 7.57031C34.3081 7.71094 34.0737 7.91016 33.9097 8.16797C33.7456 8.41797 33.6636 8.70703 33.6636 9.03516H30.5581C30.5581 8.51172 30.6831 8.01562 30.9331 7.54688C31.1831 7.07031 31.5386 6.64844 31.9995 6.28125C32.4683 5.90625 33.0269 5.61328 33.6753 5.40234C34.3316 5.19141 35.0659 5.08594 35.8784 5.08594C36.8394 5.08594 37.6948 5.25 38.4448 5.57812C39.2027 5.89844 39.7964 6.38281 40.2261 7.03125C40.6636 7.67969 40.8823 8.49609 40.8823 9.48047V15.0117C40.8823 15.6445 40.9214 16.1875 40.9995 16.6406C41.0855 17.0859 41.2105 17.4727 41.3745 17.8008V18H38.2222C38.0737 17.6797 37.9605 17.2734 37.8823 16.7812C37.8042 16.2812 37.7652 15.7891 37.7652 15.3047ZM38.1987 10.2773L38.2222 12.1172H36.2652C35.7808 12.1172 35.355 12.168 34.9878 12.2695C34.6206 12.3633 34.3198 12.5039 34.0855 12.6914C33.8511 12.8711 33.6753 13.0898 33.5581 13.3477C33.4409 13.5977 33.3823 13.8828 33.3823 14.2031C33.3823 14.5156 33.4527 14.7969 33.5933 15.0469C33.7417 15.2969 33.9527 15.4961 34.2261 15.6445C34.5073 15.7852 34.8355 15.8555 35.2105 15.8555C35.7573 15.8555 36.2339 15.7461 36.6402 15.5273C37.0464 15.3008 37.3628 15.0273 37.5894 14.707C37.8159 14.3867 37.937 14.082 37.9527 13.793L38.8433 15.1289C38.7339 15.4492 38.5698 15.7891 38.3511 16.1484C38.1323 16.5078 37.8511 16.8438 37.5073 17.1562C37.1636 17.4688 36.7495 17.7266 36.2652 17.9297C35.7808 18.1328 35.2183 18.2344 34.5777 18.2344C33.7573 18.2344 33.023 18.0703 32.3745 17.7422C31.7261 17.4141 31.2144 16.9648 30.8394 16.3945C30.4644 15.8242 30.2769 15.1758 30.2769 14.4492C30.2769 13.7773 30.4019 13.1836 30.6519 12.668C30.9019 12.1523 31.273 11.7188 31.7652 11.3672C32.2573 11.0078 32.8667 10.7383 33.5933 10.5586C34.3277 10.3711 35.1675 10.2773 36.1128 10.2773H38.1987ZM51.5169 15.3047V0H54.6341V18H51.8216L51.5169 15.3047ZM43.3723 11.8125V11.5664C43.3723 10.5977 43.4817 9.71875 43.7005 8.92969C43.927 8.13281 44.2552 7.44922 44.6848 6.87891C45.1145 6.30859 45.6341 5.86719 46.2434 5.55469C46.8606 5.24219 47.5598 5.08594 48.3411 5.08594C49.0989 5.08594 49.7591 5.23828 50.3216 5.54297C50.8919 5.84766 51.3763 6.28125 51.7747 6.84375C52.1809 7.40625 52.5052 8.07422 52.7473 8.84766C52.9895 9.61328 53.1653 10.457 53.2747 11.3789V12.0469C53.1653 12.9453 52.9895 13.7695 52.7473 14.5195C52.5052 15.2695 52.1809 15.9258 51.7747 16.4883C51.3763 17.043 50.8919 17.4727 50.3216 17.7773C49.7513 18.082 49.0833 18.2344 48.3177 18.2344C47.5442 18.2344 46.8489 18.0742 46.2317 17.7539C45.6223 17.4336 45.1028 16.9844 44.6731 16.4062C44.2513 15.8281 43.927 15.1484 43.7005 14.3672C43.4817 13.5859 43.3723 12.7344 43.3723 11.8125ZM46.4778 11.5664V11.8125C46.4778 12.3594 46.5247 12.8711 46.6184 13.3477C46.7122 13.8242 46.8645 14.2461 47.0755 14.6133C47.2864 14.9727 47.5559 15.2539 47.8841 15.457C48.22 15.6602 48.6263 15.7617 49.1028 15.7617C49.7122 15.7617 50.2122 15.6289 50.6028 15.3633C51.0013 15.0898 51.3098 14.7188 51.5286 14.25C51.7473 13.7734 51.888 13.2383 51.9505 12.6445V10.8047C51.9192 10.3359 51.8372 9.90234 51.7044 9.50391C51.5794 9.10547 51.3997 8.76172 51.1653 8.47266C50.9388 8.18359 50.6575 7.95703 50.3216 7.79297C49.9856 7.62891 49.5872 7.54688 49.1263 7.54688C48.6497 7.54688 48.2434 7.65234 47.9075 7.86328C47.5716 8.06641 47.2981 8.35156 47.0872 8.71875C46.8763 9.08594 46.72 9.51172 46.6184 9.99609C46.5247 10.4805 46.4778 11.0039 46.4778 11.5664ZM60.9561 5.32031V18H57.8506V5.32031H60.9561ZM57.6397 2.00391C57.6397 1.54297 57.7959 1.16016 58.1084 0.855469C58.4287 0.550781 58.8584 0.398438 59.3975 0.398438C59.9366 0.398438 60.3623 0.550781 60.6748 0.855469C60.9952 1.16016 61.1553 1.54297 61.1553 2.00391C61.1553 2.45703 60.9952 2.83594 60.6748 3.14062C60.3623 3.44531 59.9366 3.59766 59.3975 3.59766C58.8584 3.59766 58.4287 3.44531 58.1084 3.14062C57.7959 2.83594 57.6397 2.45703 57.6397 2.00391ZM67.1844 8.02734V18H64.0906V5.32031H66.9969L67.1844 8.02734ZM66.6922 11.2031H65.7781C65.7859 10.2812 65.9109 9.44531 66.1531 8.69531C66.3953 7.94531 66.7352 7.30078 67.1727 6.76172C67.618 6.22266 68.1453 5.80859 68.7547 5.51953C69.3641 5.23047 70.0438 5.08594 70.7938 5.08594C71.4031 5.08594 71.9539 5.17188 72.4461 5.34375C72.9383 5.51562 73.3602 5.78906 73.7117 6.16406C74.0711 6.53906 74.3445 7.03125 74.532 7.64062C74.7273 8.24219 74.825 8.98438 74.825 9.86719V18H71.7078V9.84375C71.7078 9.26562 71.6219 8.80859 71.45 8.47266C71.2859 8.13672 71.0438 7.89844 70.7234 7.75781C70.4109 7.61719 70.0242 7.54688 69.5633 7.54688C69.0867 7.54688 68.6688 7.64453 68.3094 7.83984C67.9578 8.02734 67.6609 8.28906 67.4188 8.625C67.1844 8.96094 67.0047 9.34766 66.8797 9.78516C66.7547 10.2227 66.6922 10.6953 66.6922 11.2031ZM85.858 5.32031H88.6705V17.6133C88.6705 18.7617 88.4205 19.7344 87.9205 20.5312C87.4283 21.3359 86.7369 21.9453 85.8463 22.3594C84.9556 22.7812 83.9205 22.9922 82.7408 22.9922C82.233 22.9922 81.6822 22.9219 81.0884 22.7812C80.5025 22.6406 79.9361 22.418 79.3892 22.1133C78.8502 21.8164 78.4009 21.4297 78.0416 20.9531L79.4361 19.125C79.858 19.6172 80.3345 19.9883 80.8658 20.2383C81.397 20.4961 81.9713 20.625 82.5884 20.625C83.2134 20.625 83.7447 20.5078 84.1822 20.2734C84.6275 20.0469 84.9673 19.7109 85.2017 19.2656C85.4439 18.8281 85.565 18.2891 85.565 17.6484V8.21484L85.858 5.32031ZM77.2916 11.8125V11.5664C77.2916 10.5977 77.4088 9.71875 77.6431 8.92969C77.8775 8.13281 78.2134 7.44922 78.6509 6.87891C79.0963 6.30859 79.6314 5.86719 80.2564 5.55469C80.8892 5.24219 81.6002 5.08594 82.3892 5.08594C83.2252 5.08594 83.9283 5.23828 84.4986 5.54297C85.0767 5.84766 85.5533 6.28125 85.9283 6.84375C86.3111 7.40625 86.608 8.07422 86.8189 8.84766C87.0377 9.61328 87.2056 10.457 87.3228 11.3789V12.0469C87.2134 12.9453 87.0377 13.7695 86.7955 14.5195C86.5611 15.2695 86.2486 15.9258 85.858 16.4883C85.4673 17.043 84.983 17.4727 84.4048 17.7773C83.8267 18.082 83.147 18.2344 82.3658 18.2344C81.5845 18.2344 80.8814 18.0742 80.2564 17.7539C79.6314 17.4336 79.0963 16.9844 78.6509 16.4062C78.2134 15.8281 77.8775 15.1484 77.6431 14.3672C77.4088 13.5859 77.2916 12.7344 77.2916 11.8125ZM80.3853 11.5664V11.8125C80.3853 12.3594 80.44 12.8711 80.5494 13.3477C80.6588 13.8242 80.8267 14.2461 81.0533 14.6133C81.2798 14.9727 81.565 15.2539 81.9088 15.457C82.2525 15.6602 82.6627 15.7617 83.1392 15.7617C83.7798 15.7617 84.3033 15.6289 84.7095 15.3633C85.1236 15.0898 85.4361 14.7188 85.647 14.25C85.8658 13.7734 86.0064 13.2383 86.0689 12.6445V10.8047C86.0298 10.3359 85.9439 9.90234 85.8111 9.50391C85.6861 9.10547 85.5103 8.76172 85.2838 8.47266C85.0572 8.18359 84.7681 7.95703 84.4166 7.79297C84.065 7.62891 83.647 7.54688 83.1627 7.54688C82.6939 7.54688 82.2838 7.65234 81.9322 7.86328C81.5806 8.06641 81.2916 8.35156 81.065 8.71875C80.8384 9.08594 80.6666 9.51172 80.5494 9.99609C80.44 10.4805 80.3853 11.0039 80.3853 11.5664ZM109.307 15.5625V18H97.752V15.9141L103.295 9.92578C103.873 9.26953 104.33 8.69922 104.666 8.21484C105.002 7.73047 105.24 7.29297 105.381 6.90234C105.529 6.50391 105.604 6.125 105.604 5.76562C105.604 5.24219 105.51 4.78516 105.322 4.39453C105.135 3.99609 104.861 3.6875 104.502 3.46875C104.15 3.25 103.717 3.14062 103.201 3.14062C102.631 3.14062 102.143 3.27344 101.736 3.53906C101.338 3.79688 101.033 4.15625 100.822 4.61719C100.619 5.07812 100.518 5.60547 100.518 6.19922H97.4122C97.4122 5.19141 97.6466 4.27344 98.1153 3.44531C98.5841 2.60938 99.2559 1.94141 100.131 1.44141C101.006 0.941406 102.045 0.691406 103.248 0.691406C104.42 0.691406 105.412 0.886719 106.225 1.27734C107.037 1.66016 107.654 2.20703 108.076 2.91797C108.498 3.62891 108.709 4.47656 108.709 5.46094C108.709 6.00781 108.619 6.54688 108.44 7.07812C108.26 7.60938 108.006 8.13672 107.678 8.66016C107.357 9.17578 106.975 9.69922 106.529 10.2305C106.084 10.7617 105.588 11.3047 105.041 11.8594L101.713 15.5625H109.307Z" fill="black"/>
</svg>
