<svg width="63" height="14" viewBox="0 0 63 14" fill="none" xmlns="http://www.w3.org/2000/svg">
<path d="M7.28394 5.36401V6.78784H2.23462V5.36401H7.28394ZM2.729 1.40234V11H0.91626V1.40234H2.729ZM8.62866 1.40234V11H6.81592V1.40234H8.62866ZM13.6811 11.1318C13.1406 11.1318 12.655 11.0439 12.2244 10.8682C11.7937 10.6924 11.4267 10.4485 11.1235 10.1365C10.8247 9.82007 10.594 9.45312 10.4314 9.03564C10.2732 8.61377 10.1941 8.16113 10.1941 7.67773V7.41406C10.1941 6.86475 10.2732 6.36597 10.4314 5.91772C10.5896 5.46509 10.8137 5.07617 11.1038 4.75098C11.3938 4.42578 11.741 4.17529 12.1453 3.99951C12.5496 3.82373 12.9956 3.73584 13.4834 3.73584C13.9888 3.73584 14.4348 3.82153 14.8215 3.99292C15.2082 4.15991 15.5312 4.39722 15.7905 4.70483C16.0498 5.01245 16.2454 5.38159 16.3772 5.81226C16.509 6.23853 16.5749 6.71094 16.5749 7.22949V7.96118H10.9851V6.76147H14.8611V6.62964C14.8523 6.35278 14.7996 6.1001 14.7029 5.87158C14.6062 5.63867 14.4568 5.4541 14.2546 5.31787C14.0525 5.17725 13.791 5.10693 13.4702 5.10693C13.2109 5.10693 12.9846 5.16406 12.7913 5.27832C12.6023 5.38818 12.4441 5.54639 12.3166 5.75293C12.1936 5.95508 12.1013 6.19678 12.0398 6.47803C11.9783 6.75928 11.9475 7.07129 11.9475 7.41406V7.67773C11.9475 7.97656 11.9871 8.25342 12.0662 8.5083C12.1496 8.76318 12.2705 8.98511 12.4287 9.17407C12.5913 9.35864 12.7847 9.50366 13.0088 9.60913C13.2373 9.71021 13.4966 9.76074 13.7866 9.76074C14.1514 9.76074 14.4809 9.69043 14.7754 9.5498C15.0742 9.40479 15.3335 9.19165 15.5532 8.9104L16.4299 9.82007C16.2805 10.0398 16.0784 10.2507 15.8235 10.4529C15.573 10.655 15.2698 10.8198 14.9138 10.9473C14.5579 11.0703 14.147 11.1318 13.6811 11.1318ZM21.8054 9.48389V6.19458C21.8054 5.95288 21.7637 5.74414 21.6802 5.56836C21.5967 5.39258 21.4692 5.25635 21.2978 5.15967C21.1264 5.06299 20.9089 5.01465 20.6452 5.01465C20.4123 5.01465 20.208 5.0542 20.0322 5.1333C19.8608 5.2124 19.729 5.32446 19.6367 5.46948C19.5444 5.61011 19.4983 5.77271 19.4983 5.95728H17.7514C17.7514 5.66284 17.8218 5.38379 17.9624 5.12012C18.103 4.85205 18.303 4.61475 18.5622 4.4082C18.8259 4.19727 19.1401 4.03247 19.5049 3.91382C19.874 3.79517 20.2871 3.73584 20.7441 3.73584C21.2846 3.73584 21.7659 3.82812 22.1877 4.0127C22.614 4.19287 22.948 4.46533 23.1897 4.83008C23.4358 5.19482 23.5588 5.65405 23.5588 6.20776V9.31909C23.5588 9.67505 23.5808 9.98047 23.6247 10.2354C23.6731 10.4858 23.7434 10.7034 23.8357 10.8879V11H22.0625C21.979 10.8198 21.9153 10.5913 21.8713 10.3145C21.8274 10.0332 21.8054 9.75635 21.8054 9.48389ZM22.0493 6.65601L22.0625 7.69092H20.9617C20.6892 7.69092 20.4497 7.71948 20.2431 7.77661C20.0366 7.82935 19.8674 7.90845 19.7356 8.01392C19.6037 8.11499 19.5049 8.23804 19.4389 8.38306C19.373 8.52368 19.3401 8.68408 19.3401 8.86426C19.3401 9.04004 19.3796 9.19824 19.4587 9.33887C19.5422 9.47949 19.6609 9.59155 19.8147 9.67505C19.9729 9.75415 20.1575 9.7937 20.3684 9.7937C20.676 9.7937 20.9441 9.73218 21.1726 9.60913C21.4011 9.48169 21.5791 9.32788 21.7065 9.14771C21.834 8.96753 21.9021 8.79614 21.9109 8.63354L22.4118 9.38501C22.3503 9.56519 22.258 9.75635 22.135 9.9585C22.0119 10.1606 21.8537 10.3496 21.6604 10.5254C21.467 10.7012 21.2341 10.8462 20.9617 10.9604C20.6892 11.0747 20.3728 11.1318 20.0124 11.1318C19.551 11.1318 19.1379 11.0396 18.7732 10.855C18.4084 10.6704 18.1206 10.4177 17.9096 10.0969C17.6987 9.77612 17.5932 9.41138 17.5932 9.00269C17.5932 8.62476 17.6636 8.29077 17.8042 8.00073C17.9448 7.71069 18.1535 7.4668 18.4304 7.26904C18.7073 7.06689 19.05 6.91528 19.4587 6.81421C19.8718 6.70874 20.3442 6.65601 20.876 6.65601H22.0493ZM29.5407 9.48389V0.875H31.2942V11H29.7121L29.5407 9.48389ZM24.9594 7.51953V7.3811C24.9594 6.83618 25.021 6.3418 25.144 5.89795C25.2715 5.44971 25.456 5.06519 25.6977 4.74438C25.9394 4.42358 26.2317 4.17529 26.5744 3.99951C26.9216 3.82373 27.3149 3.73584 27.7544 3.73584C28.1806 3.73584 28.552 3.82153 28.8684 3.99292C29.1892 4.16431 29.4616 4.4082 29.6858 4.72461C29.9143 5.04102 30.0967 5.41675 30.2329 5.85181C30.3691 6.28247 30.468 6.75708 30.5295 7.27563V7.65137C30.468 8.15674 30.3691 8.62036 30.2329 9.04224C30.0967 9.46411 29.9143 9.83325 29.6858 10.1497C29.4616 10.4617 29.1892 10.7034 28.8684 10.8748C28.5476 11.0461 28.1718 11.1318 27.7412 11.1318C27.3061 11.1318 26.915 11.0417 26.5678 10.8616C26.2251 10.6814 25.9328 10.4287 25.6911 10.1035C25.4538 9.77832 25.2715 9.396 25.144 8.95654C25.021 8.51709 24.9594 8.03809 24.9594 7.51953ZM26.7063 7.3811V7.51953C26.7063 7.82715 26.7326 8.11499 26.7854 8.38306C26.8381 8.65112 26.9238 8.88843 27.0425 9.09497C27.1611 9.29712 27.3127 9.45532 27.4973 9.56958C27.6863 9.68384 27.9148 9.74097 28.1828 9.74097C28.5256 9.74097 28.8069 9.66626 29.0266 9.51685C29.2507 9.36304 29.4243 9.1543 29.5473 8.89062C29.6704 8.62256 29.7495 8.32153 29.7846 7.98755V6.95264C29.7671 6.68896 29.7209 6.44507 29.6462 6.22095C29.5759 5.99683 29.4748 5.80347 29.343 5.64087C29.2155 5.47827 29.0573 5.35083 28.8684 5.25854C28.6794 5.16626 28.4553 5.12012 28.196 5.12012C27.9279 5.12012 27.6994 5.17944 27.5105 5.2981C27.3215 5.41235 27.1677 5.57275 27.049 5.7793C26.9304 5.98584 26.8425 6.22534 26.7854 6.4978C26.7326 6.77026 26.7063 7.0647 26.7063 7.3811ZM34.8503 3.86768V11H33.1035V3.86768H34.8503ZM32.9848 2.0022C32.9848 1.74292 33.0727 1.52759 33.2485 1.3562C33.4287 1.18481 33.6704 1.09912 33.9736 1.09912C34.2768 1.09912 34.5163 1.18481 34.6921 1.3562C34.8723 1.52759 34.9624 1.74292 34.9624 2.0022C34.9624 2.25708 34.8723 2.47021 34.6921 2.6416C34.5163 2.81299 34.2768 2.89868 33.9736 2.89868C33.6704 2.89868 33.4287 2.81299 33.2485 2.6416C33.0727 2.47021 32.9848 2.25708 32.9848 2.0022ZM38.3537 5.39038V11H36.6135V3.86768H38.2482L38.3537 5.39038ZM38.0769 7.17676H37.5627C37.5671 6.6582 37.6374 6.18799 37.7736 5.76611C37.9099 5.34424 38.101 4.98169 38.3471 4.67847C38.5976 4.37524 38.8942 4.14233 39.237 3.97974C39.5798 3.81714 39.9621 3.73584 40.384 3.73584C40.7268 3.73584 41.0366 3.78418 41.3134 3.88086C41.5903 3.97754 41.8276 4.13135 42.0253 4.34229C42.2275 4.55322 42.3813 4.83008 42.4868 5.17285C42.5966 5.51123 42.6516 5.92871 42.6516 6.42529V11H40.8981V6.41211C40.8981 6.08691 40.8498 5.82983 40.7531 5.64087C40.6608 5.4519 40.5246 5.31787 40.3444 5.23877C40.1687 5.15967 39.9511 5.12012 39.6918 5.12012C39.4238 5.12012 39.1887 5.17505 38.9865 5.28491C38.7888 5.39038 38.6218 5.5376 38.4855 5.72656C38.3537 5.91553 38.2526 6.13306 38.1823 6.37915C38.112 6.62524 38.0769 6.89111 38.0769 7.17676ZM48.8576 3.86768H50.4396V10.7825C50.4396 11.4285 50.299 11.9756 50.0178 12.4238C49.7409 12.8765 49.352 13.2192 48.851 13.4521C48.35 13.6895 47.7678 13.8081 47.1042 13.8081C46.8185 13.8081 46.5087 13.7686 46.1747 13.6895C45.8452 13.6104 45.5266 13.4851 45.2189 13.3137C44.9157 13.1467 44.663 12.9292 44.4609 12.6611L45.2453 11.6328C45.4826 11.9097 45.7507 12.1184 46.0495 12.259C46.3483 12.4041 46.6713 12.4766 47.0185 12.4766C47.3701 12.4766 47.6689 12.4106 47.915 12.2788C48.1655 12.1514 48.3566 11.9624 48.4885 11.7119C48.6247 11.4658 48.6928 11.1626 48.6928 10.8022V5.49585L48.8576 3.86768ZM44.039 7.51953V7.3811C44.039 6.83618 44.1049 6.3418 44.2368 5.89795C44.3686 5.44971 44.5576 5.06519 44.8037 4.74438C45.0541 4.42358 45.3552 4.17529 45.7067 3.99951C46.0627 3.82373 46.4626 3.73584 46.9064 3.73584C47.3767 3.73584 47.7722 3.82153 48.093 3.99292C48.4182 4.16431 48.6862 4.4082 48.8972 4.72461C49.1125 5.04102 49.2795 5.41675 49.3981 5.85181C49.5212 6.28247 49.6157 6.75708 49.6816 7.27563V7.65137C49.6201 8.15674 49.5212 8.62036 49.385 9.04224C49.2531 9.46411 49.0773 9.83325 48.8576 10.1497C48.6379 10.4617 48.3654 10.7034 48.0402 10.8748C47.715 11.0461 47.3327 11.1318 46.8933 11.1318C46.4538 11.1318 46.0583 11.0417 45.7067 10.8616C45.3552 10.6814 45.0541 10.4287 44.8037 10.1035C44.5576 9.77832 44.3686 9.396 44.2368 8.95654C44.1049 8.51709 44.039 8.03809 44.039 7.51953ZM45.7792 7.3811V7.51953C45.7792 7.82715 45.81 8.11499 45.8715 8.38306C45.933 8.65112 46.0275 8.88843 46.155 9.09497C46.2824 9.29712 46.4428 9.45532 46.6362 9.56958C46.8295 9.68384 47.0602 9.74097 47.3283 9.74097C47.6887 9.74097 47.9831 9.66626 48.2116 9.51685C48.4445 9.36304 48.6203 9.1543 48.739 8.89062C48.862 8.62256 48.9411 8.32153 48.9763 7.98755V6.95264C48.9543 6.68896 48.9059 6.44507 48.8312 6.22095C48.7609 5.99683 48.6621 5.80347 48.5346 5.64087C48.4072 5.47827 48.2446 5.35083 48.0468 5.25854C47.8491 5.16626 47.614 5.12012 47.3415 5.12012C47.0778 5.12012 46.8471 5.17944 46.6494 5.2981C46.4516 5.41235 46.289 5.57275 46.1616 5.7793C46.0341 5.98584 45.9374 6.22534 45.8715 6.4978C45.81 6.77026 45.7792 7.0647 45.7792 7.3811ZM57.2751 6.5835L55.8842 6.24731L56.4181 1.40234H61.6982V2.84595H57.8617L57.6113 5.08716C57.7475 5.00366 57.9452 4.92017 58.2045 4.83667C58.4682 4.74878 58.7648 4.70483 59.0944 4.70483C59.5514 4.70483 59.9601 4.77954 60.3205 4.92896C60.6808 5.07397 60.9863 5.28491 61.2367 5.56177C61.4916 5.83862 61.6828 6.177 61.8102 6.5769C61.9421 6.97241 62.008 7.42065 62.008 7.92163C62.008 8.36108 61.9421 8.77417 61.8102 9.16089C61.6828 9.54321 61.4872 9.88379 61.2236 10.1826C60.9599 10.4771 60.6281 10.71 60.2282 10.8813C59.8283 11.0483 59.3581 11.1318 58.8176 11.1318C58.4089 11.1318 58.0155 11.0725 57.6376 10.9539C57.2641 10.8308 56.9279 10.6528 56.6291 10.4199C56.3302 10.1826 56.0907 9.89258 55.9106 9.5498C55.7348 9.20703 55.6381 8.81372 55.6205 8.36987H57.341C57.3717 8.66431 57.4509 8.91479 57.5783 9.12134C57.7057 9.32788 57.8727 9.48608 58.0793 9.59595C58.2902 9.70581 58.5341 9.76074 58.811 9.76074C59.0614 9.76074 59.2768 9.7146 59.457 9.62231C59.6415 9.52563 59.7931 9.3916 59.9118 9.22021C60.0304 9.04883 60.1183 8.84668 60.1755 8.61377C60.2326 8.38086 60.2612 8.12598 60.2612 7.84912C60.2612 7.58105 60.2282 7.33716 60.1623 7.11743C60.0964 6.89331 59.9953 6.69995 59.8591 6.53735C59.7228 6.37476 59.5514 6.24951 59.3449 6.16162C59.1427 6.07373 58.9054 6.02979 58.633 6.02979C58.2682 6.02979 57.987 6.08472 57.7892 6.19458C57.5959 6.30444 57.4245 6.43408 57.2751 6.5835Z" fill="black"/>
</svg>
