<svg width="141" height="31" viewBox="0 0 141 31" fill="none" xmlns="http://www.w3.org/2000/svg">
<path d="M15.2656 10.6406V14.0156H3.29688V10.6406H15.2656ZM4.46875 1.25V24H0.171875V1.25H4.46875ZM18.4531 1.25V24H14.1562V1.25H18.4531ZM30.4294 24.3125C29.1481 24.3125 27.9971 24.1042 26.9762 23.6875C25.9554 23.2708 25.0856 22.6927 24.3669 21.9531C23.6585 21.2031 23.1117 20.3333 22.7262 19.3438C22.3512 18.3438 22.1637 17.2708 22.1637 16.125V15.5C22.1637 14.1979 22.3512 13.0156 22.7262 11.9531C23.1012 10.8802 23.6325 9.95833 24.32 9.1875C25.0075 8.41667 25.8304 7.82292 26.7887 7.40625C27.7471 6.98958 28.8044 6.78125 29.9606 6.78125C31.1585 6.78125 32.2158 6.98438 33.1325 7.39062C34.0492 7.78646 34.8148 8.34896 35.4294 9.07812C36.044 9.80729 36.5075 10.6823 36.82 11.7031C37.1325 12.7135 37.2887 13.8333 37.2887 15.0625V16.7969H24.0387V13.9531H33.2262V13.6406C33.2054 12.9844 33.0804 12.3854 32.8512 11.8438C32.6221 11.2917 32.2679 10.8542 31.7887 10.5312C31.3096 10.1979 30.6898 10.0312 29.9294 10.0312C29.3148 10.0312 28.7783 10.1667 28.32 10.4375C27.8721 10.6979 27.4971 11.0729 27.195 11.5625C26.9033 12.0417 26.6846 12.6146 26.5387 13.2812C26.3929 13.9479 26.32 14.6875 26.32 15.5V16.125C26.32 16.8333 26.4137 17.4896 26.6012 18.0938C26.7992 18.6979 27.0856 19.224 27.4606 19.6719C27.846 20.1094 28.3044 20.4531 28.8356 20.7031C29.3773 20.9427 29.9919 21.0625 30.6794 21.0625C31.544 21.0625 32.3252 20.8958 33.0231 20.5625C33.7315 20.2188 34.346 19.7135 34.8669 19.0469L36.945 21.2031C36.5908 21.724 36.1117 22.224 35.5075 22.7031C34.9137 23.1823 34.195 23.5729 33.3512 23.875C32.5075 24.1667 31.5335 24.3125 30.4294 24.3125ZM49.6869 20.4062V12.6094C49.6869 12.0365 49.5879 11.5417 49.39 11.125C49.1921 10.7083 48.89 10.3854 48.4837 10.1562C48.0775 9.92708 47.5619 9.8125 46.9369 9.8125C46.3848 9.8125 45.9004 9.90625 45.4837 10.0938C45.0775 10.2812 44.765 10.5469 44.5462 10.8906C44.3275 11.224 44.2181 11.6094 44.2181 12.0469H40.0775C40.0775 11.349 40.2442 10.6875 40.5775 10.0625C40.9108 9.42708 41.3848 8.86458 41.9994 8.375C42.6244 7.875 43.3692 7.48438 44.2337 7.20312C45.1087 6.92188 46.0879 6.78125 47.1712 6.78125C48.4525 6.78125 49.5931 7 50.5931 7.4375C51.6035 7.86458 52.3952 8.51042 52.9681 9.375C53.5515 10.2396 53.8431 11.3281 53.8431 12.6406V20.0156C53.8431 20.8594 53.8952 21.5833 53.9994 22.1875C54.114 22.7812 54.2806 23.2969 54.4994 23.7344V24H50.2962C50.0983 23.5729 49.9473 23.0312 49.8431 22.375C49.739 21.7083 49.6869 21.0521 49.6869 20.4062ZM50.265 13.7031L50.2962 16.1562H47.6869C47.041 16.1562 46.4733 16.224 45.9837 16.3594C45.4942 16.4844 45.0931 16.6719 44.7806 16.9219C44.4681 17.1615 44.2337 17.4531 44.0775 17.7969C43.9212 18.1302 43.8431 18.5104 43.8431 18.9375C43.8431 19.3542 43.9369 19.7292 44.1244 20.0625C44.3223 20.3958 44.6035 20.6615 44.9681 20.8594C45.3431 21.0469 45.7806 21.1406 46.2806 21.1406C47.0098 21.1406 47.6452 20.9948 48.1869 20.7031C48.7285 20.401 49.1504 20.0365 49.4525 19.6094C49.7546 19.1823 49.916 18.776 49.9369 18.3906L51.1244 20.1719C50.9785 20.599 50.7598 21.0521 50.4681 21.5312C50.1765 22.0104 49.8015 22.4583 49.3431 22.875C48.8848 23.2917 48.3327 23.6354 47.6869 23.9062C47.041 24.1771 46.291 24.3125 45.4369 24.3125C44.3431 24.3125 43.364 24.0938 42.4994 23.6562C41.6348 23.2188 40.9525 22.6198 40.4525 21.8594C39.9525 21.099 39.7025 20.2344 39.7025 19.2656C39.7025 18.3698 39.8692 17.5781 40.2025 16.8906C40.5358 16.2031 41.0306 15.625 41.6869 15.1562C42.3431 14.6771 43.1556 14.3177 44.1244 14.0781C45.1035 13.8281 46.2233 13.7031 47.4837 13.7031H50.265ZM68.0225 20.4062V0H72.1787V24H68.4287L68.0225 20.4062ZM57.1631 15.75V15.4219C57.1631 14.1302 57.309 12.9583 57.6006 11.9062C57.9027 10.8438 58.3402 9.93229 58.9131 9.17188C59.486 8.41146 60.1787 7.82292 60.9912 7.40625C61.8142 6.98958 62.7465 6.78125 63.7881 6.78125C64.7985 6.78125 65.6787 6.98438 66.4287 7.39062C67.1892 7.79688 67.835 8.375 68.3662 9.125C68.9079 9.875 69.3402 10.7656 69.6631 11.7969C69.986 12.8177 70.2204 13.9427 70.3662 15.1719V16.0625C70.2204 17.2604 69.986 18.3594 69.6631 19.3594C69.3402 20.3594 68.9079 21.2344 68.3662 21.9844C67.835 22.724 67.1892 23.2969 66.4287 23.7031C65.6683 24.1094 64.7777 24.3125 63.7569 24.3125C62.7256 24.3125 61.7985 24.099 60.9756 23.6719C60.1631 23.2448 59.4704 22.6458 58.8975 21.875C58.335 21.1042 57.9027 20.1979 57.6006 19.1562C57.309 18.1146 57.1631 16.9792 57.1631 15.75ZM61.3037 15.4219V15.75C61.3037 16.4792 61.3662 17.1615 61.4912 17.7969C61.6162 18.4323 61.8194 18.9948 62.1006 19.4844C62.3819 19.9635 62.7412 20.3385 63.1787 20.6094C63.6267 20.8802 64.1683 21.0156 64.8037 21.0156C65.6162 21.0156 66.2829 20.8385 66.8037 20.4844C67.335 20.1198 67.7465 19.625 68.0381 19C68.3298 18.3646 68.5173 17.651 68.6006 16.8594V14.4062C68.559 13.7812 68.4496 13.2031 68.2725 12.6719C68.1058 12.1406 67.8662 11.6823 67.5537 11.2969C67.2517 10.9115 66.8767 10.6094 66.4287 10.3906C65.9808 10.1719 65.4496 10.0625 64.835 10.0625C64.1996 10.0625 63.6579 10.2031 63.21 10.4844C62.7621 10.7552 62.3975 11.1354 62.1162 11.625C61.835 12.1146 61.6267 12.6823 61.4912 13.3281C61.3662 13.974 61.3037 14.6719 61.3037 15.4219ZM80.6081 7.09375V24H76.4675V7.09375H80.6081ZM76.1862 2.67188C76.1862 2.05729 76.3946 1.54688 76.8112 1.14062C77.2383 0.734375 77.8112 0.53125 78.53 0.53125C79.2487 0.53125 79.8165 0.734375 80.2331 1.14062C80.6602 1.54688 80.8737 2.05729 80.8737 2.67188C80.8737 3.27604 80.6602 3.78125 80.2331 4.1875C79.8165 4.59375 79.2487 4.79688 78.53 4.79688C77.8112 4.79688 77.2383 4.59375 76.8112 4.1875C76.3946 3.78125 76.1862 3.27604 76.1862 2.67188ZM88.9125 10.7031V24H84.7875V7.09375H88.6625L88.9125 10.7031ZM88.2562 14.9375H87.0375C87.0479 13.7083 87.2146 12.5938 87.5375 11.5938C87.8604 10.5938 88.3135 9.73438 88.8969 9.01562C89.4906 8.29688 90.1937 7.74479 91.0062 7.35938C91.8187 6.97396 92.725 6.78125 93.725 6.78125C94.5375 6.78125 95.2719 6.89583 95.9281 7.125C96.5844 7.35417 97.1469 7.71875 97.6156 8.21875C98.0948 8.71875 98.4594 9.375 98.7094 10.1875C98.9698 10.9896 99.1 11.9792 99.1 13.1562V24H94.9437V13.125C94.9437 12.3542 94.8292 11.7448 94.6 11.2969C94.3812 10.849 94.0583 10.5312 93.6312 10.3438C93.2146 10.1562 92.699 10.0625 92.0844 10.0625C91.449 10.0625 90.8917 10.1927 90.4125 10.4531C89.9437 10.7031 89.5479 11.0521 89.225 11.5C88.9125 11.9479 88.6729 12.4635 88.5062 13.0469C88.3396 13.6302 88.2562 14.2604 88.2562 14.9375ZM113.811 7.09375H117.561V23.4844C117.561 25.0156 117.227 26.3125 116.561 27.375C115.904 28.4479 114.982 29.2604 113.795 29.8125C112.607 30.375 111.227 30.6562 109.654 30.6562C108.977 30.6562 108.243 30.5625 107.451 30.375C106.67 30.1875 105.915 29.8906 105.186 29.4844C104.467 29.0885 103.868 28.5729 103.389 27.9375L105.248 25.5C105.811 26.1562 106.446 26.651 107.154 26.9844C107.863 27.3281 108.628 27.5 109.451 27.5C110.285 27.5 110.993 27.3438 111.576 27.0312C112.17 26.7292 112.623 26.2812 112.936 25.6875C113.259 25.1042 113.42 24.3854 113.42 23.5312V10.9531L113.811 7.09375ZM102.389 15.75V15.4219C102.389 14.1302 102.545 12.9583 102.857 11.9062C103.17 10.8438 103.618 9.93229 104.201 9.17188C104.795 8.41146 105.509 7.82292 106.342 7.40625C107.186 6.98958 108.134 6.78125 109.186 6.78125C110.3 6.78125 111.238 6.98438 111.998 7.39062C112.769 7.79688 113.404 8.375 113.904 9.125C114.415 9.875 114.811 10.7656 115.092 11.7969C115.384 12.8177 115.607 13.9427 115.764 15.1719V16.0625C115.618 17.2604 115.384 18.3594 115.061 19.3594C114.748 20.3594 114.331 21.2344 113.811 21.9844C113.29 22.724 112.644 23.2969 111.873 23.7031C111.102 24.1094 110.196 24.3125 109.154 24.3125C108.113 24.3125 107.175 24.099 106.342 23.6719C105.509 23.2448 104.795 22.6458 104.201 21.875C103.618 21.1042 103.17 20.1979 102.857 19.1562C102.545 18.1146 102.389 16.9792 102.389 15.75ZM106.514 15.4219V15.75C106.514 16.4792 106.587 17.1615 106.732 17.7969C106.878 18.4323 107.102 18.9948 107.404 19.4844C107.706 19.9635 108.087 20.3385 108.545 20.6094C109.003 20.8802 109.55 21.0156 110.186 21.0156C111.04 21.0156 111.738 20.8385 112.279 20.4844C112.831 20.1198 113.248 19.625 113.529 19C113.821 18.3646 114.009 17.651 114.092 16.8594V14.4062C114.04 13.7812 113.925 13.2031 113.748 12.6719C113.581 12.1406 113.347 11.6823 113.045 11.2969C112.743 10.9115 112.357 10.6094 111.889 10.3906C111.42 10.1719 110.863 10.0625 110.217 10.0625C109.592 10.0625 109.045 10.2031 108.576 10.4844C108.107 10.7552 107.722 11.1354 107.42 11.625C107.118 12.1146 106.889 12.6823 106.732 13.3281C106.587 13.974 106.514 14.6719 106.514 15.4219ZM140.294 1.1875V24H136.154V6.01562L130.669 7.82812V4.48438L139.826 1.1875H140.294Z" fill="black"/>
</svg>
