<svg width="73" height="16" viewBox="0 0 73 16" fill="none" xmlns="http://www.w3.org/2000/svg">
<path d="M7.63281 5.32031V7.00781H1.64844V5.32031H7.63281ZM2.23438 0.625V12H0.0859375V0.625H2.23438ZM9.22656 0.625V12H7.07812V0.625H9.22656ZM15.2147 12.1562C14.5741 12.1562 13.9985 12.0521 13.4881 11.8438C12.9777 11.6354 12.5428 11.3464 12.1834 10.9766C11.8293 10.6016 11.5558 10.1667 11.3631 9.67188C11.1756 9.17188 11.0819 8.63542 11.0819 8.0625V7.75C11.0819 7.09896 11.1756 6.50781 11.3631 5.97656C11.5506 5.4401 11.8162 4.97917 12.16 4.59375C12.5037 4.20833 12.9152 3.91146 13.3944 3.70312C13.8735 3.49479 14.4022 3.39062 14.9803 3.39062C15.5793 3.39062 16.1079 3.49219 16.5662 3.69531C17.0246 3.89323 17.4074 4.17448 17.7147 4.53906C18.022 4.90365 18.2537 5.34115 18.41 5.85156C18.5662 6.35677 18.6444 6.91667 18.6444 7.53125V8.39844H12.0194V6.97656H16.6131V6.82031C16.6027 6.49219 16.5402 6.19271 16.4256 5.92188C16.311 5.64583 16.134 5.42708 15.8944 5.26562C15.6548 5.09896 15.3449 5.01562 14.9647 5.01562C14.6574 5.01562 14.3892 5.08333 14.16 5.21875C13.936 5.34896 13.7485 5.53646 13.5975 5.78125C13.4517 6.02083 13.3423 6.30729 13.2694 6.64062C13.1965 6.97396 13.16 7.34375 13.16 7.75V8.0625C13.16 8.41667 13.2069 8.74479 13.3006 9.04688C13.3996 9.34896 13.5428 9.61198 13.7303 9.83594C13.923 10.0547 14.1522 10.2266 14.4178 10.3516C14.6886 10.4714 14.9959 10.5312 15.3397 10.5312C15.772 10.5312 16.1626 10.4479 16.5116 10.2812C16.8657 10.1094 17.173 9.85677 17.4334 9.52344L18.4725 10.6016C18.2954 10.862 18.0558 11.112 17.7537 11.3516C17.4569 11.5911 17.0975 11.7865 16.6756 11.9375C16.2537 12.0833 15.7668 12.1562 15.2147 12.1562ZM24.8434 10.2031V6.30469C24.8434 6.01823 24.794 5.77083 24.695 5.5625C24.596 5.35417 24.445 5.19271 24.2419 5.07812C24.0387 4.96354 23.7809 4.90625 23.4684 4.90625C23.1924 4.90625 22.9502 4.95312 22.7419 5.04688C22.5387 5.14062 22.3825 5.27344 22.2731 5.44531C22.1637 5.61198 22.1091 5.80469 22.1091 6.02344H20.0387C20.0387 5.67448 20.1221 5.34375 20.2887 5.03125C20.4554 4.71354 20.6924 4.43229 20.9997 4.1875C21.3122 3.9375 21.6846 3.74219 22.1169 3.60156C22.5544 3.46094 23.044 3.39062 23.5856 3.39062C24.2262 3.39062 24.7966 3.5 25.2966 3.71875C25.8018 3.93229 26.1976 4.25521 26.4841 4.6875C26.7757 5.11979 26.9216 5.66406 26.9216 6.32031V10.0078C26.9216 10.4297 26.9476 10.7917 26.9997 11.0938C27.057 11.3906 27.1403 11.6484 27.2497 11.8672V12H25.1481C25.0492 11.7865 24.9736 11.5156 24.9216 11.1875C24.8695 10.8542 24.8434 10.526 24.8434 10.2031ZM25.1325 6.85156L25.1481 8.07812H23.8434C23.5205 8.07812 23.2367 8.11198 22.9919 8.17969C22.7471 8.24219 22.5466 8.33594 22.3903 8.46094C22.2341 8.58073 22.1169 8.72656 22.0387 8.89844C21.9606 9.0651 21.9216 9.25521 21.9216 9.46875C21.9216 9.67708 21.9684 9.86458 22.0622 10.0312C22.1611 10.1979 22.3018 10.3307 22.4841 10.4297C22.6716 10.5234 22.8903 10.5703 23.1403 10.5703C23.5049 10.5703 23.8226 10.4974 24.0934 10.3516C24.3643 10.2005 24.5752 10.0182 24.7262 9.80469C24.8773 9.59115 24.958 9.38802 24.9684 9.19531L25.5622 10.0859C25.4893 10.2995 25.3799 10.526 25.2341 10.7656C25.0882 11.0052 24.9007 11.2292 24.6716 11.4375C24.4424 11.6458 24.1664 11.8177 23.8434 11.9531C23.5205 12.0885 23.1455 12.1562 22.7184 12.1562C22.1716 12.1562 21.682 12.0469 21.2497 11.8281C20.8174 11.6094 20.4762 11.3099 20.2262 10.9297C19.9762 10.5495 19.8512 10.1172 19.8512 9.63281C19.8512 9.1849 19.9346 8.78906 20.1012 8.44531C20.2679 8.10156 20.5153 7.8125 20.8434 7.57812C21.1716 7.33854 21.5778 7.15885 22.0622 7.03906C22.5518 6.91406 23.1117 6.85156 23.7419 6.85156H25.1325ZM34.0112 10.2031V0H36.0894V12H34.2144L34.0112 10.2031ZM28.5816 7.875V7.71094C28.5816 7.0651 28.6545 6.47917 28.8003 5.95312C28.9514 5.42188 29.1701 4.96615 29.4566 4.58594C29.743 4.20573 30.0894 3.91146 30.4956 3.70312C30.9071 3.49479 31.3732 3.39062 31.8941 3.39062C32.3993 3.39062 32.8394 3.49219 33.2144 3.69531C33.5946 3.89844 33.9175 4.1875 34.1831 4.5625C34.454 4.9375 34.6701 5.38281 34.8316 5.89844C34.993 6.40885 35.1102 6.97135 35.1831 7.58594V8.03125C35.1102 8.63021 34.993 9.17969 34.8316 9.67969C34.6701 10.1797 34.454 10.6172 34.1831 10.9922C33.9175 11.362 33.5946 11.6484 33.2144 11.8516C32.8342 12.0547 32.3889 12.1562 31.8784 12.1562C31.3628 12.1562 30.8993 12.0495 30.4878 11.8359C30.0816 11.6224 29.7352 11.3229 29.4487 10.9375C29.1675 10.5521 28.9514 10.099 28.8003 9.57812C28.6545 9.05729 28.5816 8.48958 28.5816 7.875ZM30.6519 7.71094V7.875C30.6519 8.23958 30.6831 8.58073 30.7456 8.89844C30.8081 9.21615 30.9097 9.4974 31.0503 9.74219C31.1909 9.98177 31.3706 10.1693 31.5894 10.3047C31.8133 10.4401 32.0842 10.5078 32.4019 10.5078C32.8081 10.5078 33.1415 10.4193 33.4019 10.2422C33.6675 10.0599 33.8732 9.8125 34.0191 9.5C34.1649 9.18229 34.2586 8.82552 34.3003 8.42969V7.20312C34.2795 6.89062 34.2248 6.60156 34.1362 6.33594C34.0529 6.07031 33.9331 5.84115 33.7769 5.64844C33.6258 5.45573 33.4383 5.30469 33.2144 5.19531C32.9904 5.08594 32.7248 5.03125 32.4175 5.03125C32.0998 5.03125 31.829 5.10156 31.605 5.24219C31.381 5.3776 31.1987 5.56771 31.0581 5.8125C30.9175 6.05729 30.8133 6.34115 30.7456 6.66406C30.6831 6.98698 30.6519 7.33594 30.6519 7.71094ZM40.3041 3.54688V12H38.2337V3.54688H40.3041ZM38.0931 1.33594C38.0931 1.02865 38.1973 0.773438 38.4056 0.570312C38.6192 0.367188 38.9056 0.265625 39.265 0.265625C39.6244 0.265625 39.9082 0.367188 40.1166 0.570312C40.3301 0.773438 40.4369 1.02865 40.4369 1.33594C40.4369 1.63802 40.3301 1.89062 40.1166 2.09375C39.9082 2.29688 39.6244 2.39844 39.265 2.39844C38.9056 2.39844 38.6192 2.29688 38.4056 2.09375C38.1973 1.89062 38.0931 1.63802 38.0931 1.33594ZM44.4562 5.35156V12H42.3937V3.54688H44.3312L44.4562 5.35156ZM44.1281 7.46875H43.5187C43.524 6.85417 43.6073 6.29688 43.7687 5.79688C43.9302 5.29688 44.1568 4.86719 44.4484 4.50781C44.7453 4.14844 45.0969 3.8724 45.5031 3.67969C45.9094 3.48698 46.3625 3.39062 46.8625 3.39062C47.2687 3.39062 47.6359 3.44792 47.9641 3.5625C48.2922 3.67708 48.5734 3.85938 48.8078 4.10938C49.0474 4.35938 49.2297 4.6875 49.3547 5.09375C49.4849 5.49479 49.55 5.98958 49.55 6.57812V12H47.4719V6.5625C47.4719 6.17708 47.4146 5.8724 47.3 5.64844C47.1906 5.42448 47.0292 5.26562 46.8156 5.17188C46.6073 5.07812 46.3495 5.03125 46.0422 5.03125C45.7245 5.03125 45.4458 5.09635 45.2062 5.22656C44.9719 5.35156 44.774 5.52604 44.6125 5.75C44.4562 5.97396 44.3365 6.23177 44.2531 6.52344C44.1698 6.8151 44.1281 7.13021 44.1281 7.46875ZM56.9053 3.54688H58.7803V11.7422C58.7803 12.5078 58.6136 13.1562 58.2803 13.6875C57.9522 14.224 57.4912 14.6302 56.8975 14.9062C56.3037 15.1875 55.6136 15.3281 54.8272 15.3281C54.4886 15.3281 54.1215 15.2812 53.7256 15.1875C53.335 15.0938 52.9574 14.9453 52.5928 14.7422C52.2334 14.5443 51.934 14.2865 51.6944 13.9688L52.6241 12.75C52.9053 13.0781 53.223 13.3255 53.5772 13.4922C53.9314 13.6641 54.3142 13.75 54.7256 13.75C55.1423 13.75 55.4965 13.6719 55.7881 13.5156C56.085 13.3646 56.3116 13.1406 56.4678 12.8438C56.6293 12.5521 56.71 12.1927 56.71 11.7656V5.47656L56.9053 3.54688ZM51.1944 7.875V7.71094C51.1944 7.0651 51.2725 6.47917 51.4287 5.95312C51.585 5.42188 51.809 4.96615 52.1006 4.58594C52.3975 4.20573 52.7543 3.91146 53.1709 3.70312C53.5928 3.49479 54.0668 3.39062 54.5928 3.39062C55.1501 3.39062 55.6189 3.49219 55.9991 3.69531C56.3845 3.89844 56.7022 4.1875 56.9522 4.5625C57.2074 4.9375 57.4053 5.38281 57.5459 5.89844C57.6918 6.40885 57.8037 6.97135 57.8819 7.58594V8.03125C57.809 8.63021 57.6918 9.17969 57.5303 9.67969C57.3741 10.1797 57.1657 10.6172 56.9053 10.9922C56.6449 11.362 56.322 11.6484 55.9366 11.8516C55.5511 12.0547 55.098 12.1562 54.5772 12.1562C54.0564 12.1562 53.5876 12.0495 53.1709 11.8359C52.7543 11.6224 52.3975 11.3229 52.1006 10.9375C51.809 10.5521 51.585 10.099 51.4287 9.57812C51.2725 9.05729 51.1944 8.48958 51.1944 7.875ZM53.2569 7.71094V7.875C53.2569 8.23958 53.2933 8.58073 53.3662 8.89844C53.4392 9.21615 53.5511 9.4974 53.7022 9.74219C53.8532 9.98177 54.0433 10.1693 54.2725 10.3047C54.5017 10.4401 54.7751 10.5078 55.0928 10.5078C55.5199 10.5078 55.8689 10.4193 56.1397 10.2422C56.4157 10.0599 56.6241 9.8125 56.7647 9.5C56.9105 9.18229 57.0043 8.82552 57.0459 8.42969V7.20312C57.0199 6.89062 56.9626 6.60156 56.8741 6.33594C56.7907 6.07031 56.6735 5.84115 56.5225 5.64844C56.3715 5.45573 56.1787 5.30469 55.9444 5.19531C55.71 5.08594 55.4314 5.03125 55.1084 5.03125C54.7959 5.03125 54.5225 5.10156 54.2881 5.24219C54.0537 5.3776 53.861 5.56771 53.71 5.8125C53.559 6.05729 53.4444 6.34115 53.3662 6.66406C53.2933 6.98698 53.2569 7.33594 53.2569 7.71094ZM72.7331 7.85156V9.47656H64.5378L64.4519 8.22656L69.2722 0.625H70.9206L69.1394 3.64844L66.5534 7.85156H72.7331ZM71.3816 0.625V12H69.3112V0.625H71.3816Z" fill="black"/>
</svg>
