<svg width="84" height="18" viewBox="0 0 84 18" fill="none" xmlns="http://www.w3.org/2000/svg">
<path d="M8.98169 6.27661V8.22778H2.06226V6.27661H8.98169ZM2.73975 0.847656V14H0.255615V0.847656H2.73975ZM10.8245 0.847656V14H8.34033V0.847656H10.8245ZM17.7482 14.1807C17.0075 14.1807 16.3421 14.0602 15.7519 13.8193C15.1617 13.5785 14.6589 13.2442 14.2434 12.8167C13.8338 12.3831 13.5177 11.8802 13.2949 11.3081C13.0781 10.73 12.9697 10.1097 12.9697 9.44727V9.08594C12.9697 8.33317 13.0781 7.64966 13.2949 7.0354C13.5117 6.41512 13.8188 5.88216 14.2163 5.43652C14.6137 4.99089 15.0895 4.64762 15.6435 4.40674C16.1975 4.16585 16.8088 4.04541 17.4772 4.04541C18.1698 4.04541 18.781 4.16284 19.311 4.39771C19.8409 4.62655 20.2836 4.95174 20.6389 5.37329C20.9942 5.79484 21.2621 6.3007 21.4428 6.89087C21.6235 7.47502 21.7138 8.1224 21.7138 8.83301V9.83569H14.0537V8.19165H19.3652V8.01099C19.3531 7.63159 19.2809 7.28532 19.1484 6.97217C19.0159 6.65299 18.8111 6.40007 18.5341 6.21338C18.2571 6.02067 17.8988 5.92432 17.4592 5.92432C17.1039 5.92432 16.7937 6.0026 16.5288 6.15918C16.2698 6.30973 16.053 6.52653 15.8784 6.80957C15.7097 7.08659 15.5833 7.41781 15.499 7.80322C15.4147 8.18864 15.3725 8.61621 15.3725 9.08594V9.44727C15.3725 9.85677 15.4267 10.2362 15.5351 10.5854C15.6495 10.9347 15.8151 11.2389 16.0319 11.4978C16.2547 11.7507 16.5197 11.9495 16.8268 12.094C17.14 12.2325 17.4953 12.3018 17.8928 12.3018C18.3926 12.3018 18.8443 12.2054 19.2477 12.0127C19.6572 11.814 20.0126 11.5219 20.3137 11.1365L21.5151 12.3831C21.3103 12.6842 21.0333 12.9732 20.684 13.2502C20.3408 13.5273 19.9252 13.7531 19.4374 13.9277C18.9496 14.0964 18.3866 14.1807 17.7482 14.1807ZM28.8815 11.9224V7.41479C28.8815 7.08358 28.8243 6.79753 28.7098 6.55664C28.5954 6.31576 28.4208 6.12907 28.1859 5.99658C27.9511 5.8641 27.653 5.79785 27.2916 5.79785C26.9725 5.79785 26.6924 5.85205 26.4515 5.96045C26.2167 6.06885 26.036 6.22241 25.9096 6.42114C25.7831 6.61385 25.7199 6.83667 25.7199 7.0896H23.3261C23.3261 6.68612 23.4224 6.30371 23.6151 5.94238C23.8078 5.57503 24.0818 5.24984 24.4371 4.9668C24.7985 4.67773 25.2291 4.4519 25.7289 4.28931C26.2347 4.12671 26.8008 4.04541 27.4271 4.04541C28.1679 4.04541 28.8273 4.17188 29.4054 4.4248C29.9895 4.67171 30.4472 5.04508 30.7784 5.54492C31.1157 6.04476 31.2843 6.67407 31.2843 7.43286V11.6965C31.2843 12.1843 31.3144 12.6029 31.3746 12.9521C31.4409 13.2954 31.5372 13.5935 31.6637 13.8464V14H29.2338C29.1193 13.7531 29.032 13.4399 28.9718 13.0605C28.9116 12.6751 28.8815 12.2957 28.8815 11.9224ZM29.2157 8.04712L29.2338 9.46533H27.7252C27.3519 9.46533 27.0236 9.50448 26.7406 9.58276C26.4576 9.65503 26.2257 9.76343 26.045 9.90796C25.8644 10.0465 25.7289 10.2151 25.6386 10.4138C25.5482 10.6065 25.5031 10.8263 25.5031 11.0732C25.5031 11.3141 25.5573 11.5309 25.6657 11.7236C25.7801 11.9163 25.9427 12.0699 26.1534 12.1843C26.3702 12.2927 26.6232 12.3469 26.9122 12.3469C27.3338 12.3469 27.7011 12.2626 28.0143 12.094C28.3274 11.9194 28.5713 11.7086 28.746 11.4617C28.9206 11.2148 29.014 10.9799 29.026 10.7571L29.7125 11.7869C29.6282 12.0338 29.5018 12.2957 29.3331 12.5728C29.1645 12.8498 28.9477 13.1087 28.6827 13.3496C28.4178 13.5905 28.0986 13.7892 27.7252 13.9458C27.3519 14.1024 26.9183 14.1807 26.4244 14.1807C25.7921 14.1807 25.226 14.0542 24.7262 13.8013C24.2264 13.5483 23.8319 13.2021 23.5429 12.7625C23.2538 12.3228 23.1093 11.823 23.1093 11.2629C23.1093 10.745 23.2056 10.2874 23.3983 9.88989C23.591 9.49243 23.8771 9.1582 24.2565 8.88721C24.6359 8.61019 25.1056 8.40243 25.6657 8.26392C26.2317 8.11938 26.8791 8.04712 27.6078 8.04712H29.2157ZM39.4818 11.9224V0.125H41.8846V14H39.7166L39.4818 11.9224ZM33.2037 9.23047V9.04077C33.2037 8.29403 33.288 7.61654 33.4566 7.0083C33.6313 6.39404 33.8842 5.86711 34.2154 5.42749C34.5466 4.98787 34.9471 4.64762 35.4168 4.40674C35.8926 4.16585 36.4315 4.04541 37.0338 4.04541C37.6179 4.04541 38.1268 4.16284 38.5604 4.39771C39 4.63257 39.3734 4.9668 39.6805 5.40039C39.9936 5.83398 40.2436 6.34888 40.4302 6.94507C40.6169 7.53524 40.7524 8.18563 40.8367 8.89624V9.41113C40.7524 10.1037 40.6169 10.739 40.4302 11.3171C40.2436 11.8953 39.9936 12.4011 39.6805 12.8347C39.3734 13.2623 39 13.5935 38.5604 13.8284C38.1208 14.0632 37.6059 14.1807 37.0157 14.1807C36.4195 14.1807 35.8835 14.0572 35.4078 13.8103C34.9381 13.5634 34.5376 13.2171 34.2064 12.7715C33.8812 12.3258 33.6313 11.8019 33.4566 11.1997C33.288 10.5975 33.2037 9.94108 33.2037 9.23047ZM35.5975 9.04077V9.23047C35.5975 9.65202 35.6336 10.0465 35.7059 10.4138C35.7781 10.7812 35.8956 11.1064 36.0582 11.3894C36.2208 11.6664 36.4285 11.8832 36.6815 12.0398C36.9404 12.1964 37.2536 12.2747 37.6209 12.2747C38.0906 12.2747 38.4761 12.1723 38.7772 11.9675C39.0843 11.7568 39.3222 11.4707 39.4908 11.1094C39.6594 10.742 39.7678 10.3295 39.816 9.87183V8.45361C39.7919 8.09229 39.7287 7.75806 39.6263 7.45093C39.5299 7.1438 39.3914 6.87882 39.2108 6.65601C39.0361 6.43319 38.8193 6.25854 38.5604 6.13208C38.3014 6.00562 37.9943 5.94238 37.639 5.94238C37.2716 5.94238 36.9585 6.02368 36.6995 6.18628C36.4406 6.34285 36.2298 6.56266 36.0672 6.8457C35.9046 7.12874 35.7842 7.45695 35.7059 7.83032C35.6336 8.20369 35.5975 8.60718 35.5975 9.04077ZM46.7578 4.22607V14H44.364V4.22607H46.7578ZM44.2014 1.66968C44.2014 1.31437 44.3219 1.01929 44.5628 0.784424C44.8097 0.549561 45.1409 0.432129 45.5564 0.432129C45.9719 0.432129 46.3001 0.549561 46.541 0.784424C46.7879 1.01929 46.9114 1.31437 46.9114 1.66968C46.9114 2.01896 46.7879 2.31104 46.541 2.5459C46.3001 2.78076 45.9719 2.89819 45.5564 2.89819C45.1409 2.89819 44.8097 2.78076 44.5628 2.5459C44.3219 2.31104 44.2014 2.01896 44.2014 1.66968ZM51.5588 6.31274V14H49.174V4.22607H51.4143L51.5588 6.31274ZM51.1794 8.76074H50.4748C50.4808 8.05013 50.5772 7.40576 50.7639 6.82764C50.9506 6.24951 51.2125 5.75269 51.5498 5.33716C51.893 4.92163 52.2995 4.60246 52.7692 4.37964C53.239 4.15682 53.7629 4.04541 54.341 4.04541C54.8107 4.04541 55.2353 4.11165 55.6147 4.24414C55.9941 4.37663 56.3193 4.5874 56.5903 4.87646C56.8673 5.16553 57.0781 5.54492 57.2226 6.01465C57.3732 6.47835 57.4484 7.05046 57.4484 7.73096V14H55.0456V7.71289C55.0456 7.26725 54.9794 6.91496 54.8469 6.65601C54.7204 6.39705 54.5337 6.21338 54.2868 6.10498C54.0459 5.99658 53.7478 5.94238 53.3925 5.94238C53.0252 5.94238 52.703 6.01766 52.426 6.16821C52.155 6.31274 51.9261 6.51449 51.7395 6.77344C51.5588 7.03239 51.4203 7.33049 51.3239 7.66772C51.2276 8.00496 51.1794 8.3693 51.1794 8.76074ZM65.953 4.22607H68.121V13.7019C68.121 14.5872 67.9283 15.3369 67.5429 15.9512C67.1635 16.5715 66.6305 17.0412 65.944 17.3604C65.2575 17.6855 64.4595 17.8481 63.5502 17.8481C63.1587 17.8481 62.7342 17.7939 62.2765 17.6855C61.8248 17.5771 61.3882 17.4055 60.9667 17.1707C60.5512 16.9418 60.2049 16.6437 59.9279 16.2764L61.0028 14.8672C61.328 15.2466 61.6954 15.5326 62.1049 15.7253C62.5144 15.9241 62.957 16.0234 63.4328 16.0234C63.9145 16.0234 64.324 15.9331 64.6613 15.7524C65.0045 15.5778 65.2665 15.3188 65.4472 14.9756C65.6338 14.6383 65.7272 14.2228 65.7272 13.729V6.45728L65.953 4.22607ZM59.3497 9.23047V9.04077C59.3497 8.29403 59.4401 7.61654 59.6207 7.0083C59.8014 6.39404 60.0604 5.86711 60.3976 5.42749C60.7409 4.98787 61.1534 4.64762 61.6351 4.40674C62.1229 4.16585 62.671 4.04541 63.2792 4.04541C63.9236 4.04541 64.4656 4.16284 64.9052 4.39771C65.3508 4.63257 65.7182 4.9668 66.0072 5.40039C66.3023 5.83398 66.5311 6.34888 66.6937 6.94507C66.8624 7.53524 66.9918 8.18563 67.0822 8.89624V9.41113C66.9979 10.1037 66.8624 10.739 66.6757 11.3171C66.495 11.8953 66.2541 12.4011 65.953 12.8347C65.6519 13.2623 65.2785 13.5935 64.8329 13.8284C64.3873 14.0632 63.8633 14.1807 63.2611 14.1807C62.6589 14.1807 62.1169 14.0572 61.6351 13.8103C61.1534 13.5634 60.7409 13.2171 60.3976 12.7715C60.0604 12.3258 59.8014 11.8019 59.6207 11.1997C59.4401 10.5975 59.3497 9.94108 59.3497 9.23047ZM61.7345 9.04077V9.23047C61.7345 9.65202 61.7767 10.0465 61.861 10.4138C61.9453 10.7812 62.0748 11.1064 62.2494 11.3894C62.424 11.6664 62.6439 11.8832 62.9088 12.0398C63.1738 12.1964 63.49 12.2747 63.8573 12.2747C64.3511 12.2747 64.7546 12.1723 65.0678 11.9675C65.3869 11.7568 65.6278 11.4707 65.7904 11.1094C65.959 10.742 66.0674 10.3295 66.1156 9.87183V8.45361C66.0855 8.09229 66.0193 7.75806 65.9169 7.45093C65.8205 7.1438 65.685 6.87882 65.5104 6.65601C65.3357 6.43319 65.1129 6.25854 64.8419 6.13208C64.5709 6.00562 64.2488 5.94238 63.8754 5.94238C63.5141 5.94238 63.1979 6.02368 62.9269 6.18628C62.6559 6.34285 62.4331 6.56266 62.2584 6.8457C62.0838 7.12874 61.9513 7.45695 61.861 7.83032C61.7767 8.20369 61.7345 8.60718 61.7345 9.04077ZM77.732 6.36694H79.0779C79.5537 6.36694 79.9451 6.28564 80.2522 6.12305C80.5654 5.95443 80.7972 5.72559 80.9478 5.43652C81.1044 5.14144 81.1826 4.80119 81.1826 4.41577C81.1826 4.03638 81.1134 3.70817 80.9749 3.43115C80.8364 3.14811 80.6256 2.93132 80.3426 2.78076C80.0655 2.62419 79.7102 2.5459 79.2766 2.5459C78.9274 2.5459 78.6052 2.61515 78.3101 2.75366C78.021 2.89217 77.7892 3.0909 77.6145 3.34985C77.4459 3.60278 77.3616 3.9069 77.3616 4.26221H74.9678C74.9678 3.5516 75.1545 2.9283 75.5279 2.39233C75.9072 1.85034 76.4191 1.42578 77.0635 1.11865C77.7079 0.811523 78.4275 0.657959 79.2224 0.657959C80.0896 0.657959 80.8484 0.80249 81.4988 1.09155C82.1552 1.37459 82.6641 1.79313 83.0254 2.34717C83.3928 2.9012 83.5764 3.58773 83.5764 4.40674C83.5764 4.79818 83.4831 5.18962 83.2964 5.58105C83.1157 5.96647 82.8478 6.31576 82.4925 6.62891C82.1432 6.93604 81.7126 7.18595 81.2007 7.37866C80.6948 7.56535 80.1137 7.65869 79.4573 7.65869H77.732V6.36694ZM77.732 8.20972V6.93604H79.4573C80.198 6.93604 80.8394 7.02336 81.3814 7.198C81.9294 7.36662 82.381 7.6075 82.7364 7.92065C83.0917 8.22778 83.3536 8.5861 83.5222 8.99561C83.6969 9.40511 83.7842 9.84473 83.7842 10.3145C83.7842 10.9287 83.6698 11.4767 83.4409 11.9585C83.2121 12.4342 82.8899 12.8377 82.4744 13.1689C82.0649 13.5002 81.5831 13.7531 81.0291 13.9277C80.475 14.0964 79.8758 14.1807 79.2315 14.1807C78.6714 14.1807 78.1264 14.1054 77.5965 13.9548C77.0725 13.7983 76.5998 13.5664 76.1782 13.2593C75.7567 12.9461 75.4225 12.5547 75.1756 12.085C74.9287 11.6092 74.8052 11.0582 74.8052 10.4319H77.199C77.199 10.7932 77.2863 11.1154 77.461 11.3984C77.6416 11.6815 77.8885 11.9043 78.2017 12.0669C78.5209 12.2235 78.8792 12.3018 79.2766 12.3018C79.7163 12.3018 80.0926 12.2235 80.4058 12.0669C80.725 11.9043 80.9689 11.6755 81.1375 11.3804C81.3061 11.0793 81.3904 10.7209 81.3904 10.3054C81.3904 9.8116 81.2971 9.41113 81.1104 9.104C80.9237 8.79688 80.6557 8.57104 80.3064 8.42651C79.9632 8.28198 79.5537 8.20972 79.0779 8.20972H77.732Z" fill="black"/>
</svg>
