<svg width="600" height="114" viewBox="0 0 600 114" fill="none" xmlns="http://www.w3.org/2000/svg">
<g clip-path="url(#clip0_11_623)">
<path d="M320.86 29.7093C326.769 29.7093 331.497 31.6348 335.043 35.486C338.589 39.3371 340.361 44.5038 340.357 50.9861V82.7579H327.051V51.89C327.051 48.7922 326.294 46.3853 324.78 44.6692C323.266 42.9531 321.132 42.0932 318.38 42.0895C315.359 42.0895 313.006 43.0853 311.319 45.0771C309.632 47.0688 308.789 49.9571 308.789 53.7421V82.7304H295.483V51.89C295.483 48.7922 294.726 46.3853 293.212 44.6692C291.698 42.9531 289.566 42.0932 286.818 42.0895C283.859 42.0895 281.504 43.0853 279.751 45.0771C277.998 47.0688 277.122 49.9571 277.122 53.7421V82.7304H263.81V31.1424H277.122V36.6104C280.216 32.0023 284.993 29.6982 291.453 29.6982C297.781 29.6982 302.457 32.1732 305.482 37.1231C308.925 32.1805 314.051 29.7093 320.86 29.7093Z" fill="#EEEDFC"/>
<path d="M396.062 31.1426H409.368V82.7196H396.062V76.6562C392.071 81.6686 386.462 84.1748 379.234 84.1748C372.355 84.1748 366.458 81.5455 361.545 76.2869C356.632 71.0283 354.172 64.581 354.165 56.9449C354.165 49.3087 356.625 42.8614 361.545 37.6028C366.466 32.3443 372.362 29.7131 379.234 29.7095C386.455 29.7095 392.06 32.2193 396.051 37.239L396.062 31.1426ZM371.517 67.4124C374.203 70.128 377.608 71.4877 381.731 71.4914C385.854 71.495 389.275 70.1354 391.994 67.4124C394.71 64.6967 396.07 61.2057 396.073 56.9394C396.077 52.673 394.717 49.182 391.994 46.4663C389.279 43.747 385.857 42.3892 381.731 42.3929C377.604 42.3965 374.199 43.7562 371.517 46.4718C368.838 49.1875 367.497 52.6785 367.493 56.9449C367.489 61.2112 368.83 64.7004 371.517 67.4124Z" fill="#EEEDFC"/>
<path d="M460.631 31.1426H473.937V82.7195H460.631V76.9538C457.401 81.7714 452.278 84.1784 445.263 84.1747C439.623 84.1747 434.963 82.284 431.285 78.5027C427.606 74.7214 425.769 69.4941 425.772 62.8207V31.1426H439.079V61.1616C439.079 64.6012 440.008 67.2323 441.868 69.0549C443.727 70.8776 446.202 71.7963 449.293 71.811C452.729 71.811 455.485 70.7435 457.561 68.6085C459.637 66.4734 460.668 63.2764 460.653 59.0174L460.631 31.1426Z" fill="#EEEDFC"/>
<path d="M525.211 31.1426H539.857L520.261 82.7195H505.098L485.497 31.1426H500.142L512.627 67.258L525.211 31.1426Z" fill="#EEEDFC"/>
<path d="M560.583 62.4128C562.369 68.873 567.216 72.1049 575.124 72.1086C580.213 72.1086 584.072 70.3888 586.699 66.9492L597.426 73.1393C592.336 80.4888 584.84 84.1636 574.937 84.1636C566.407 84.1636 559.565 81.5913 554.409 76.4466C549.254 71.302 546.681 64.8032 546.692 56.9502C546.692 49.1781 549.237 42.6959 554.327 37.5035C559.416 32.3111 565.95 29.7148 573.928 29.7148C581.49 29.7148 587.737 32.3276 592.669 37.5531C597.6 42.7786 600.061 49.2443 600.05 56.9502C600.04 58.7847 599.866 60.6146 599.532 62.4183L560.583 62.4128ZM560.385 52.0885H586.694C585.933 48.5828 584.368 45.9701 581.998 44.2503C579.648 42.5375 576.807 41.6324 573.9 41.6706C570.325 41.6706 567.367 42.5893 565.026 44.4267C562.624 46.3538 560.98 49.0674 560.385 52.0885Z" fill="#EEEDFC"/>
<path d="M224.669 76.7C224.682 81.333 223.776 85.9226 222.005 90.2038C220.234 94.4849 217.632 98.3726 214.35 101.642L213.247 102.745C206.633 109.352 197.666 113.064 188.316 113.064C178.967 113.064 170 109.352 163.385 102.745C161.823 101.186 160.944 99.0713 160.941 96.8648C160.939 94.6583 161.813 92.5412 163.371 90.9791C164.929 89.4171 167.044 88.5381 169.251 88.5355C171.457 88.5329 173.575 89.407 175.137 90.9654C178.635 94.4559 183.374 96.4163 188.316 96.4163C193.258 96.4163 197.998 94.4559 201.496 90.9654L202.598 89.8629C206.088 86.3704 208.049 81.6348 208.049 76.6972C208.049 71.7597 206.088 67.0241 202.598 63.5315L162.156 23.1112C159.245 20.1952 154.477 16.8714 148.342 17.5549C142.042 18.266 131.866 23.3371 119.062 43.5611L118.941 43.7651C118.558 44.3746 118.097 44.9307 117.568 45.4187C117.311 45.6648 117.032 45.888 116.736 46.0857C116.46 46.2946 116.167 46.479 115.859 46.6369C115.631 46.7603 115.395 46.8707 115.154 46.9676C115.154 46.9676 115.154 46.9676 115.11 46.9676L114.636 47.155C114.465 47.1991 114.321 47.2598 114.156 47.3039C113.991 47.3479 113.902 47.3645 113.781 47.4031C113.568 47.45 113.353 47.485 113.136 47.5078C112.728 47.5992 112.314 47.6564 111.896 47.6787C111.648 47.6787 111.417 47.6787 111.168 47.6401C110.92 47.6015 110.667 47.5739 110.419 47.5354C110.165 47.4981 109.915 47.4429 109.669 47.37L108.942 47.1164C108.685 47.0214 108.435 46.911 108.192 46.7857C107.944 46.6589 107.696 46.5377 107.464 46.3888C106.857 46.0037 106.301 45.5425 105.811 45.0163C105.342 44.4766 104.928 43.8913 104.576 43.269C104.493 43.0981 104.405 42.9327 104.322 42.7674C100.624 34.6535 96.4401 30.558 92.0083 26.231C91.3028 25.542 90.6138 24.875 89.9303 24.1915L88.8278 23.0891C87.1013 21.3548 85.0492 19.9787 82.7894 19.0396C80.5296 18.1006 78.1065 17.6172 75.6594 17.6172C73.2122 17.6172 70.7892 18.1006 68.5294 19.0396C66.2695 19.9787 64.2174 21.3548 62.4909 23.0891L22.0485 63.5315C19.7544 65.8189 18.104 68.6709 17.264 71.7997C17.264 71.7997 17.264 71.7997 17.264 71.8383C16.9971 72.8488 16.8127 73.8793 16.7128 74.9196C16.6742 75.5424 16.6301 76.1874 16.6301 76.8323C16.6301 77.1465 16.6301 77.4552 16.6301 77.7473C16.6536 78.3012 16.7088 78.8533 16.7954 79.4009C16.7847 79.463 16.7847 79.5263 16.7954 79.5883C17.4222 83.4805 19.2604 87.0758 22.0485 89.8629L23.1509 90.9654C26.6444 94.4559 31.3809 96.4166 36.3194 96.4166C41.2579 96.4166 45.9943 94.4559 49.4878 90.9654L84.5229 55.9469C86.0842 54.3855 88.2018 53.5084 90.4098 53.5084C92.6179 53.5084 94.7355 54.3855 96.2968 55.9469C97.8581 57.5082 98.7352 59.6258 98.7352 61.8338C98.7352 64.0418 97.8581 66.1594 96.2968 67.7208L61.2838 102.745C54.6632 109.35 45.6932 113.059 36.3414 113.059C26.9897 113.059 18.0197 109.35 11.3991 102.745L10.2966 101.642C3.71612 95.0565 0.0136289 86.1313 0 76.8213C0.00498229 75.0828 0.122822 73.3465 0.352776 71.6233C0.435458 71.0721 0.540188 70.5209 0.644918 69.9697C0.689015 69.7382 0.7276 69.5342 0.788233 69.3027C0.975646 68.4098 1.20715 67.5333 1.4552 66.6624C1.64261 66.0781 1.83002 65.4939 2.00641 64.9316C2.40329 63.8512 2.84058 62.7911 3.3183 61.7511C3.52776 61.2936 3.75376 60.8582 3.98526 60.4007C5.63494 57.2083 7.77168 54.2924 10.3187 51.7576L50.7115 11.3593C57.3321 4.75454 66.3021 1.04536 75.6539 1.04536C85.0056 1.04536 93.9756 4.75454 100.596 11.3593L101.699 12.4617C102.322 13.0846 102.966 13.7075 103.611 14.3524C106.814 17.335 109.764 20.5781 112.431 24.0482C123.361 10.0695 134.777 2.33045 146.49 1.01857C156.412 -0.0838563 166.168 3.57619 173.93 11.3593L214.35 51.7576C217.631 55.0279 220.233 58.9158 222.004 63.1968C223.775 67.4778 224.681 72.0671 224.669 76.7Z" fill="url(#paint0_linear_11_623)"/>
<path d="M115.143 46.9899C115.384 46.893 115.619 46.7826 115.848 46.6592L115.352 46.9072C115.286 46.9293 115.203 46.9734 115.143 46.9899Z" fill="url(#paint1_linear_11_623)"/>
<path d="M177.694 62.3242L137.252 102.745C130.637 109.352 121.67 113.063 112.321 113.063C102.971 113.063 94.004 109.352 87.3893 102.745L86.2868 101.642C84.7729 100.071 83.9359 97.9685 83.9559 95.7867C83.9759 93.605 84.8512 91.5181 86.3936 89.975C87.9361 88.4318 90.0225 87.5555 92.2042 87.5345C94.386 87.5135 96.4889 88.3495 98.0607 89.8627L99.1632 90.9651C102.661 94.4557 107.401 96.416 112.343 96.416C117.284 96.416 122.024 94.4557 125.522 90.9651L165.915 50.5503C166.688 49.7772 167.606 49.1639 168.616 48.7455C169.626 48.3272 170.709 48.1118 171.802 48.1118C172.895 48.1118 173.978 48.3272 174.988 48.7455C175.998 49.1639 176.916 49.7772 177.689 50.5503C178.462 51.3234 179.075 52.2411 179.494 53.2512C179.912 54.2613 180.127 55.3439 180.127 56.4372C180.127 57.5305 179.912 58.6131 179.494 59.6232C179.075 60.6333 178.462 61.5511 177.689 62.3242H177.694Z" fill="url(#paint2_linear_11_623)"/>
</g>
<defs>
<linearGradient id="paint0_linear_11_623" x1="-38.662" y1="21.8544" x2="223.423" y2="91.7922" gradientUnits="userSpaceOnUse">
<stop offset="0.18" stop-color="#826CEB"/>
<stop offset="0.5" stop-color="#8992E5"/>
<stop offset="0.95" stop-color="#5EA7F0"/>
</linearGradient>
<linearGradient id="paint1_linear_11_623" x1="115.242" y1="47.0891" x2="115.749" y2="46.56" gradientUnits="userSpaceOnUse">
<stop offset="0.18" stop-color="#826CEB"/>
<stop offset="0.7" stop-color="#8992E5"/>
<stop offset="0.95" stop-color="#5EA7F0"/>
</linearGradient>
<linearGradient id="paint2_linear_11_623" x1="17081.4" y1="13185.2" x2="24511.8" y2="1665.8" gradientUnits="userSpaceOnUse">
<stop offset="0.18" stop-color="#826CEB"/>
<stop offset="0.5" stop-color="#8992E5"/>
<stop offset="0.95" stop-color="#5EA7F0"/>
</linearGradient>
<clipPath id="clip0_11_623">
<rect width="600" height="112.232" fill="white" transform="translate(0 0.825684)"/>
</clipPath>
</defs>
</svg>
