<svg width="115" height="48" viewBox="0 0 115 48" fill="none" xmlns="http://www.w3.org/2000/svg">
<g filter="url(#filter0_d_62_1441)">
<rect x="7" y="5" width="101" height="34" rx="4" fill="#3E41DC"/>
</g>
<path d="M34.9351 22.7598H36.6441C36.5894 23.4115 36.4071 23.9925 36.0972 24.5029C35.7873 25.0088 35.3521 25.4076 34.7916 25.6992C34.231 25.9909 33.5497 26.1367 32.7476 26.1367C32.1324 26.1367 31.5787 26.0273 31.0865 25.8086C30.5943 25.5853 30.1727 25.2708 29.8218 24.8652C29.4709 24.4551 29.202 23.9606 29.0152 23.3818C28.8329 22.8031 28.7418 22.1559 28.7418 21.4404V20.6133C28.7418 19.8978 28.8352 19.2507 29.022 18.6719C29.2134 18.0931 29.4869 17.5986 29.8423 17.1885C30.1978 16.7738 30.6239 16.457 31.1207 16.2383C31.622 16.0195 32.1848 15.9102 32.8091 15.9102C33.6021 15.9102 34.272 16.056 34.8189 16.3477C35.3658 16.6393 35.7896 17.0426 36.0904 17.5576C36.3957 18.0726 36.5826 18.6628 36.6509 19.3281H34.942C34.8964 18.8997 34.7961 18.5329 34.6412 18.2275C34.4908 17.9222 34.2675 17.6898 33.9713 17.5303C33.675 17.3662 33.2877 17.2842 32.8091 17.2842C32.4172 17.2842 32.0754 17.3571 31.7838 17.5029C31.4921 17.6488 31.2483 17.863 31.0523 18.1455C30.8563 18.4281 30.7082 18.7767 30.608 19.1914C30.5123 19.6016 30.4644 20.071 30.4644 20.5996V21.4404C30.4644 21.9417 30.5077 22.3975 30.5943 22.8076C30.6854 23.2132 30.8222 23.5618 31.0045 23.8535C31.1913 24.1452 31.4283 24.3708 31.7154 24.5303C32.0025 24.6898 32.3466 24.7695 32.7476 24.7695C33.2352 24.7695 33.6295 24.6921 33.9302 24.5371C34.2356 24.3822 34.4657 24.1566 34.6207 23.8604C34.7802 23.5596 34.885 23.1927 34.9351 22.7598ZM39.9423 15.5V26H38.288V15.5H39.9423ZM43.6507 18.6035V26H41.9964V18.6035H43.6507ZM41.887 16.6621C41.887 16.4115 41.969 16.2041 42.1331 16.04C42.3017 15.8714 42.5341 15.7871 42.8304 15.7871C43.122 15.7871 43.3522 15.8714 43.5208 16.04C43.6894 16.2041 43.7737 16.4115 43.7737 16.6621C43.7737 16.9082 43.6894 17.1133 43.5208 17.2773C43.3522 17.4414 43.122 17.5234 42.8304 17.5234C42.5341 17.5234 42.3017 17.4414 42.1331 17.2773C41.969 17.1133 41.887 16.9082 41.887 16.6621ZM48.6168 24.8242C48.8857 24.8242 49.1273 24.7718 49.3414 24.667C49.5602 24.5576 49.7357 24.4072 49.8678 24.2158C50.0045 24.0244 50.0797 23.8034 50.0934 23.5527H51.6452C51.636 24.0312 51.4948 24.4665 51.2213 24.8584C50.9479 25.2503 50.5856 25.5625 50.1344 25.7949C49.6832 26.0228 49.1842 26.1367 48.6373 26.1367C48.0722 26.1367 47.5801 26.041 47.1608 25.8496C46.7415 25.6536 46.3929 25.3848 46.1149 25.043C45.8369 24.7012 45.6273 24.307 45.486 23.8604C45.3493 23.4137 45.2809 22.9352 45.2809 22.4248V22.1855C45.2809 21.6751 45.3493 21.1966 45.486 20.75C45.6273 20.2988 45.8369 19.9023 46.1149 19.5605C46.3929 19.2188 46.7415 18.9521 47.1608 18.7607C47.5801 18.5648 48.07 18.4668 48.6305 18.4668C49.223 18.4668 49.7425 18.5853 50.1891 18.8223C50.6357 19.0547 50.9866 19.3805 51.2418 19.7998C51.5016 20.2145 51.636 20.6976 51.6452 21.249H50.0934C50.0797 20.9756 50.0114 20.7295 49.8883 20.5107C49.7698 20.2874 49.6012 20.1097 49.3825 19.9775C49.1683 19.8454 48.9108 19.7793 48.61 19.7793C48.2773 19.7793 48.0016 19.8477 47.7829 19.9844C47.5641 20.1165 47.3932 20.2988 47.2702 20.5312C47.1471 20.7591 47.0582 21.0166 47.0036 21.3037C46.9534 21.5863 46.9284 21.8802 46.9284 22.1855V22.4248C46.9284 22.7301 46.9534 23.0264 47.0036 23.3135C47.0537 23.6006 47.1403 23.8581 47.2633 24.0859C47.3909 24.3092 47.5641 24.4893 47.7829 24.626C48.0016 24.7581 48.2796 24.8242 48.6168 24.8242ZM54.7109 15.5V26H53.0566V15.5H54.7109ZM59.3047 18.6035L56.085 22.1719L54.3213 23.9766L53.8906 22.582L55.2236 20.9346L57.3154 18.6035H59.3047ZM57.6709 26L55.2715 22.5273L56.3105 21.3721L59.5781 26H57.6709ZM65.7644 20.1074V26H64.1169V18.6035H65.6687L65.7644 20.1074ZM65.4978 22.0283L64.9372 22.0215C64.9372 21.5111 65.001 21.0394 65.1286 20.6064C65.2562 20.1735 65.4431 19.7975 65.6892 19.4785C65.9353 19.1549 66.2406 18.9066 66.6052 18.7334C66.9743 18.5557 67.4004 18.4668 67.8835 18.4668C68.2208 18.4668 68.5284 18.5169 68.8064 18.6172C69.0889 18.7129 69.3327 18.8656 69.5378 19.0752C69.7474 19.2848 69.907 19.5537 70.0163 19.8818C70.1303 20.21 70.1872 20.6064 70.1872 21.0713V26H68.5398V21.2148C68.5398 20.8548 68.4851 20.5723 68.3757 20.3672C68.2709 20.1621 68.1182 20.0163 67.9177 19.9297C67.7217 19.8385 67.487 19.793 67.2136 19.793C66.9037 19.793 66.6394 19.8522 66.4206 19.9707C66.2064 20.0892 66.031 20.251 65.8943 20.4561C65.7575 20.6611 65.6573 20.8981 65.5935 21.167C65.5297 21.4359 65.4978 21.723 65.4978 22.0283ZM70.0847 21.5908L69.3122 21.7617C69.3122 21.3151 69.3737 20.8936 69.4968 20.4971C69.6244 20.096 69.809 19.7451 70.0505 19.4443C70.2966 19.139 70.5997 18.8997 70.9597 18.7266C71.3197 18.5534 71.7321 18.4668 72.197 18.4668C72.5752 18.4668 72.9125 18.5192 73.2087 18.624C73.5095 18.7243 73.7647 18.8838 73.9743 19.1025C74.184 19.3213 74.3435 19.6061 74.4529 19.957C74.5622 20.3034 74.6169 20.7227 74.6169 21.2148V26H72.9626V21.208C72.9626 20.8343 72.9079 20.5449 72.7986 20.3398C72.6937 20.1348 72.5433 19.9935 72.3474 19.916C72.1514 19.834 71.9167 19.793 71.6433 19.793C71.3881 19.793 71.1625 19.8408 70.9665 19.9365C70.7751 20.0277 70.6133 20.1576 70.4812 20.3262C70.349 20.4902 70.2487 20.6794 70.1804 20.8936C70.1166 21.1077 70.0847 21.3402 70.0847 21.5908ZM79.713 26.1367C79.1661 26.1367 78.6716 26.0479 78.2296 25.8701C77.7921 25.6878 77.4184 25.4349 77.1085 25.1113C76.8031 24.7878 76.5684 24.4072 76.4044 23.9697C76.2403 23.5322 76.1583 23.0605 76.1583 22.5547V22.2812C76.1583 21.7025 76.2426 21.1784 76.4112 20.709C76.5798 20.2396 76.8145 19.8385 77.1153 19.5059C77.4161 19.1686 77.7716 18.9111 78.1817 18.7334C78.5919 18.5557 79.0362 18.4668 79.5147 18.4668C80.0434 18.4668 80.5059 18.5557 80.9024 18.7334C81.2989 18.9111 81.627 19.1618 81.8868 19.4854C82.1511 19.8044 82.3471 20.1849 82.4747 20.627C82.6068 21.069 82.6729 21.5566 82.6729 22.0898V22.7939H76.9581V21.6113H81.046V21.4814C81.0369 21.1852 80.9776 20.9072 80.8682 20.6475C80.7634 20.3877 80.6016 20.1781 80.3829 20.0186C80.1641 19.859 79.8725 19.7793 79.5079 19.7793C79.2345 19.7793 78.9906 19.8385 78.7764 19.957C78.5668 20.071 78.3914 20.2373 78.2501 20.4561C78.1088 20.6748 77.9994 20.9391 77.922 21.249C77.849 21.5544 77.8126 21.8984 77.8126 22.2812V22.5547C77.8126 22.8783 77.8559 23.179 77.9425 23.457C78.0336 23.7305 78.1658 23.9697 78.3389 24.1748C78.5121 24.3799 78.7218 24.5417 78.9678 24.6602C79.2139 24.7741 79.4942 24.8311 79.8087 24.8311C80.2052 24.8311 80.5583 24.7513 80.8682 24.5918C81.1781 24.4323 81.447 24.2067 81.6749 23.915L82.543 24.7559C82.3835 24.9883 82.1762 25.2116 81.921 25.4258C81.6658 25.6354 81.3536 25.8063 80.9845 25.9385C80.6199 26.0706 80.196 26.1367 79.713 26.1367ZM85.9985 16.0469L85.8344 23.0674H84.4262L84.2553 16.0469H85.9985ZM84.2075 25.2207C84.2075 24.9701 84.2895 24.7604 84.4536 24.5918C84.6222 24.4186 84.8546 24.332 85.1508 24.332C85.4425 24.332 85.6726 24.4186 85.8412 24.5918C86.0099 24.7604 86.0942 24.9701 86.0942 25.2207C86.0942 25.4622 86.0099 25.6696 85.8412 25.8428C85.6726 26.0114 85.4425 26.0957 85.1508 26.0957C84.8546 26.0957 84.6222 26.0114 84.4536 25.8428C84.2895 25.6696 84.2075 25.4622 84.2075 25.2207Z" fill="white"/>
<defs>
<filter id="filter0_d_62_1441" x="0" y="0" width="115" height="48" filterUnits="userSpaceOnUse" color-interpolation-filters="sRGB">
<feFlood flood-opacity="0" result="BackgroundImageFix"/>
<feColorMatrix in="SourceAlpha" type="matrix" values="0 0 0 0 0 0 0 0 0 0 0 0 0 0 0 0 0 0 127 0" result="hardAlpha"/>
<feMorphology radius="1" operator="dilate" in="SourceAlpha" result="effect1_dropShadow_62_1441"/>
<feOffset dy="2"/>
<feGaussianBlur stdDeviation="3"/>
<feComposite in2="hardAlpha" operator="out"/>
<feColorMatrix type="matrix" values="0 0 0 0 0 0 0 0 0 0 0 0 0 0 0 0 0 0 0.4 0"/>
<feBlend mode="normal" in2="BackgroundImageFix" result="effect1_dropShadow_62_1441"/>
<feBlend mode="normal" in="SourceGraphic" in2="effect1_dropShadow_62_1441" result="shape"/>
</filter>
</defs>
</svg>
