<svg width="340" height="85" viewBox="0 0 340 85" fill="none" xmlns="http://www.w3.org/2000/svg">
<rect y="19" width="340" height="66" rx="4" fill="#EEEEEE"/>
<rect x="0.25" y="19.25" width="339.5" height="65.5" rx="3.75" stroke="#515151" stroke-opacity="0.25" stroke-width="0.5"/>
<path d="M12.0205 39.2822V40H6.85938V39.2822H12.0205ZM7.10547 30.0469V40H6.26465V30.0469H7.10547ZM18.0941 38.6738V34.8594C18.0941 34.5085 18.0212 34.2054 17.8754 33.9502C17.7295 33.695 17.5153 33.499 17.2328 33.3623C16.9502 33.2256 16.6016 33.1572 16.1869 33.1572C15.8041 33.1572 15.4623 33.2256 15.1615 33.3623C14.8653 33.4945 14.6306 33.6745 14.4574 33.9023C14.2888 34.1257 14.2045 34.374 14.2045 34.6475L13.3841 34.6406C13.3841 34.3626 13.4525 34.0938 13.5892 33.834C13.7259 33.5742 13.9196 33.3418 14.1703 33.1367C14.4209 32.9316 14.7194 32.7699 15.0658 32.6514C15.4167 32.5283 15.8018 32.4668 16.2211 32.4668C16.7497 32.4668 17.2145 32.5557 17.6156 32.7334C18.0212 32.9111 18.3379 33.1777 18.5658 33.5332C18.7936 33.8887 18.9076 34.3353 18.9076 34.873V38.4482C18.9076 38.7035 18.9258 38.9678 18.9623 39.2412C19.0033 39.5146 19.0602 39.7402 19.1332 39.918V40H18.265C18.2103 39.8359 18.167 39.6309 18.1351 39.3848C18.1078 39.1341 18.0941 38.8971 18.0941 38.6738ZM18.2855 35.6934L18.2992 36.3223H16.6927C16.2735 36.3223 15.8975 36.361 15.5648 36.4385C15.2367 36.5114 14.9587 36.6208 14.7308 36.7666C14.503 36.9079 14.3275 37.0788 14.2045 37.2793C14.086 37.4798 14.0267 37.7077 14.0267 37.9629C14.0267 38.2272 14.0928 38.4688 14.225 38.6875C14.3617 38.9062 14.5531 39.0817 14.7992 39.2139C15.0498 39.3415 15.3461 39.4053 15.6879 39.4053C16.1436 39.4053 16.5446 39.321 16.891 39.1523C17.2419 38.9837 17.5313 38.7627 17.7591 38.4893C17.987 38.2158 18.1397 37.9173 18.2171 37.5938L18.5726 38.0654C18.5134 38.2933 18.404 38.528 18.2445 38.7695C18.0895 39.0065 17.8867 39.2298 17.6361 39.4395C17.3854 39.6445 17.0892 39.8132 16.7474 39.9453C16.4102 40.0729 16.0274 40.1367 15.599 40.1367C15.1159 40.1367 14.6944 40.0456 14.3343 39.8633C13.9789 39.681 13.7009 39.4326 13.5004 39.1182C13.3044 38.7992 13.2064 38.4391 13.2064 38.0381C13.2064 37.6735 13.2839 37.3477 13.4388 37.0605C13.5938 36.7689 13.8171 36.5228 14.1087 36.3223C14.405 36.1172 14.7604 35.9622 15.1752 35.8574C15.5944 35.748 16.0638 35.6934 16.5834 35.6934H18.2855ZM22.0554 33.8271V40H21.2419V32.6035H22.0349L22.0554 33.8271ZM24.6736 32.5488L24.653 33.3008C24.5619 33.2871 24.473 33.2757 24.3864 33.2666C24.2999 33.2575 24.2064 33.2529 24.1062 33.2529C23.7507 33.2529 23.4385 33.319 23.1696 33.4512C22.9053 33.5788 22.682 33.7588 22.4997 33.9912C22.3174 34.2191 22.1784 34.488 22.0827 34.7979C21.987 35.1032 21.9323 35.4313 21.9187 35.7822L21.6179 35.8984C21.6179 35.4154 21.668 34.9665 21.7683 34.5518C21.8685 34.137 22.0212 33.7747 22.2263 33.4648C22.4359 33.1504 22.698 32.9066 23.0124 32.7334C23.3314 32.5557 23.7051 32.4668 24.1335 32.4668C24.2383 32.4668 24.3409 32.4759 24.4411 32.4941C24.546 32.5078 24.6234 32.526 24.6736 32.5488ZM30.8292 32.6035H31.588V39.8701C31.588 40.5127 31.4649 41.0641 31.2188 41.5244C30.9773 41.9847 30.6332 42.3379 30.1866 42.584C29.7445 42.8301 29.2227 42.9531 28.6212 42.9531C28.3158 42.9531 28.0014 42.9053 27.6778 42.8096C27.3588 42.7184 27.0557 42.5771 26.7686 42.3857C26.4861 42.1989 26.2445 41.9665 26.044 41.6885L26.502 41.1895C26.8028 41.554 27.1241 41.8206 27.4659 41.9893C27.8077 42.1624 28.1768 42.249 28.5733 42.249C29.0427 42.249 29.4392 42.1556 29.7628 41.9688C30.0909 41.7819 30.3393 41.513 30.5079 41.1621C30.6811 40.8112 30.7677 40.3896 30.7677 39.8975V34.2305L30.8292 32.6035ZM25.6339 36.377V36.2334C25.6339 35.6592 25.6977 35.1419 25.8253 34.6816C25.9574 34.2168 26.1466 33.8203 26.3927 33.4922C26.6388 33.1595 26.9373 32.9066 27.2882 32.7334C27.6436 32.5557 28.0447 32.4668 28.4913 32.4668C28.9197 32.4668 29.3002 32.5374 29.6329 32.6787C29.9656 32.82 30.2527 33.0228 30.4942 33.2871C30.7358 33.5514 30.9294 33.8659 31.0753 34.2305C31.2257 34.5951 31.335 35.0007 31.4034 35.4473V37.2725C31.3487 37.6917 31.2485 38.0768 31.1026 38.4277C30.9568 38.7741 30.7631 39.0771 30.5216 39.3369C30.28 39.5921 29.9884 39.7904 29.6466 39.9316C29.3093 40.0684 28.9197 40.1367 28.4776 40.1367C28.0356 40.1367 27.6391 40.0456 27.2882 39.8633C26.9373 39.681 26.6388 39.4235 26.3927 39.0908C26.1466 38.7536 25.9574 38.3548 25.8253 37.8945C25.6977 37.4342 25.6339 36.9284 25.6339 36.377ZM26.4542 36.2334V36.377C26.4542 36.8099 26.4975 37.2109 26.5841 37.5801C26.6707 37.9492 26.8028 38.2705 26.9805 38.5439C27.1583 38.8174 27.3839 39.0316 27.6573 39.1865C27.9307 39.3415 28.252 39.4189 28.6212 39.4189C29.0906 39.4189 29.4848 39.3301 29.8038 39.1523C30.1228 38.9701 30.3757 38.7308 30.5626 38.4346C30.7494 38.1338 30.8861 37.8057 30.9727 37.4502V35.3242C30.9226 35.0827 30.8451 34.8366 30.7403 34.5859C30.6401 34.3353 30.4988 34.1051 30.3165 33.8955C30.1388 33.6813 29.9109 33.5104 29.6329 33.3828C29.3595 33.2507 29.0268 33.1846 28.6348 33.1846C28.2611 33.1846 27.9353 33.262 27.6573 33.417C27.3839 33.5719 27.1583 33.7884 26.9805 34.0664C26.8028 34.3398 26.6707 34.6611 26.5841 35.0303C26.4975 35.3994 26.4542 35.8005 26.4542 36.2334ZM36.725 40.1367C36.242 40.1367 35.7976 40.0479 35.392 39.8701C34.991 39.6924 34.6401 39.4417 34.3393 39.1182C34.0431 38.7946 33.8129 38.4118 33.6489 37.9697C33.4894 37.5231 33.4096 37.0355 33.4096 36.5068V36.2129C33.4096 35.6432 33.4939 35.1283 33.6625 34.668C33.8312 34.2077 34.0636 33.8135 34.3598 33.4854C34.656 33.1572 34.9933 32.9066 35.3715 32.7334C35.7543 32.5557 36.1554 32.4668 36.5746 32.4668C37.044 32.4668 37.461 32.5511 37.8256 32.7197C38.1902 32.8838 38.4955 33.1185 38.7416 33.4238C38.9923 33.7246 39.1814 34.0824 39.309 34.4971C39.4366 34.9072 39.5004 35.3607 39.5004 35.8574V36.3564H33.9018V35.6592H38.687V35.5635C38.6778 35.1488 38.5935 34.7614 38.434 34.4014C38.2791 34.0368 38.0467 33.7406 37.7368 33.5127C37.4269 33.2848 37.0395 33.1709 36.5746 33.1709C36.2283 33.1709 35.9093 33.2438 35.6176 33.3896C35.3305 33.5355 35.0821 33.7451 34.8725 34.0186C34.6674 34.2874 34.5079 34.6087 34.394 34.9824C34.2846 35.3516 34.2299 35.7617 34.2299 36.2129V36.5068C34.2299 36.917 34.2892 37.2998 34.4077 37.6553C34.5307 38.0062 34.7039 38.3161 34.9272 38.585C35.1551 38.8538 35.4239 39.0635 35.7338 39.2139C36.0437 39.3643 36.3855 39.4395 36.7592 39.4395C37.1967 39.4395 37.5841 39.3597 37.9213 39.2002C38.2586 39.0361 38.5616 38.7786 38.8305 38.4277L39.3432 38.8242C39.1837 39.0612 38.9832 39.2799 38.7416 39.4805C38.5047 39.681 38.2198 39.8405 37.8871 39.959C37.5545 40.0775 37.1671 40.1367 36.725 40.1367ZM49.3097 38.6738V34.8594C49.3097 34.5085 49.2368 34.2054 49.091 33.9502C48.9451 33.695 48.731 33.499 48.4484 33.3623C48.1658 33.2256 47.8172 33.1572 47.4025 33.1572C47.0197 33.1572 46.6779 33.2256 46.3771 33.3623C46.0809 33.4945 45.8462 33.6745 45.673 33.9023C45.5044 34.1257 45.4201 34.374 45.4201 34.6475L44.5998 34.6406C44.5998 34.3626 44.6681 34.0938 44.8048 33.834C44.9416 33.5742 45.1352 33.3418 45.3859 33.1367C45.6365 32.9316 45.9351 32.7699 46.2814 32.6514C46.6323 32.5283 47.0174 32.4668 47.4367 32.4668C47.9653 32.4668 48.4302 32.5557 48.8312 32.7334C49.2368 32.9111 49.5535 33.1777 49.7814 33.5332C50.0093 33.8887 50.1232 34.3353 50.1232 34.873V38.4482C50.1232 38.7035 50.1414 38.9678 50.1779 39.2412C50.2189 39.5146 50.2759 39.7402 50.3488 39.918V40H49.4806C49.4259 39.8359 49.3826 39.6309 49.3507 39.3848C49.3234 39.1341 49.3097 38.8971 49.3097 38.6738ZM49.5011 35.6934L49.5148 36.3223H47.9084C47.4891 36.3223 47.1131 36.361 46.7804 36.4385C46.4523 36.5114 46.1743 36.6208 45.9464 36.7666C45.7186 36.9079 45.5431 37.0788 45.4201 37.2793C45.3016 37.4798 45.2423 37.7077 45.2423 37.9629C45.2423 38.2272 45.3084 38.4688 45.4406 38.6875C45.5773 38.9062 45.7687 39.0817 46.0148 39.2139C46.2655 39.3415 46.5617 39.4053 46.9035 39.4053C47.3592 39.4053 47.7602 39.321 48.1066 39.1523C48.4575 38.9837 48.7469 38.7627 48.9748 38.4893C49.2026 38.2158 49.3553 37.9173 49.4328 37.5938L49.7882 38.0654C49.729 38.2933 49.6196 38.528 49.4601 38.7695C49.3052 39.0065 49.1024 39.2298 48.8517 39.4395C48.6011 39.6445 48.3048 39.8132 47.963 39.9453C47.6258 40.0729 47.243 40.1367 46.8146 40.1367C46.3315 40.1367 45.91 40.0456 45.55 39.8633C45.1945 39.681 44.9165 39.4326 44.716 39.1182C44.52 38.7992 44.422 38.4391 44.422 38.0381C44.422 37.6735 44.4995 37.3477 44.6545 37.0605C44.8094 36.7689 45.0327 36.5228 45.3244 36.3223C45.6206 36.1172 45.9761 35.9622 46.3908 35.8574C46.8101 35.748 47.2795 35.6934 47.799 35.6934H49.5011ZM53.23 34.1348V40H52.4097V32.6035H53.1958L53.23 34.1348ZM53.0796 35.8438L52.6831 35.6387C52.7105 35.2012 52.7925 34.791 52.9292 34.4082C53.0705 34.0254 53.2665 33.6882 53.5171 33.3965C53.7678 33.1048 54.0685 32.877 54.4195 32.7129C54.7704 32.5488 55.1691 32.4668 55.6157 32.4668C55.9758 32.4668 56.3016 32.5169 56.5933 32.6172C56.8895 32.7129 57.1402 32.8656 57.3452 33.0752C57.5549 33.2803 57.7167 33.5492 57.8306 33.8818C57.9445 34.2145 58.0015 34.6133 58.0015 35.0781V40H57.188V35.1055C57.188 34.6133 57.1105 34.2282 56.9556 33.9502C56.8052 33.6722 56.5933 33.474 56.3198 33.3555C56.051 33.237 55.7388 33.1777 55.3833 33.1777C54.964 33.1777 54.6086 33.2643 54.3169 33.4375C54.0298 33.6061 53.7951 33.8271 53.6128 34.1006C53.4351 34.3695 53.3029 34.6589 53.2163 34.9688C53.1297 35.2741 53.0842 35.5658 53.0796 35.8438ZM57.9946 35.2012L57.4478 35.2148C57.4706 34.8548 57.5526 34.5107 57.6939 34.1826C57.8397 33.8545 58.0379 33.5628 58.2886 33.3076C58.5392 33.0479 58.8377 32.8428 59.1841 32.6924C59.535 32.542 59.9292 32.4668 60.3667 32.4668C60.7495 32.4668 61.0913 32.5192 61.3921 32.624C61.6929 32.7243 61.9458 32.8861 62.1509 33.1094C62.3605 33.3281 62.52 33.6084 62.6294 33.9502C62.7388 34.292 62.7935 34.7021 62.7935 35.1807V40H61.9732V35.1738C61.9732 34.6497 61.8957 34.2441 61.7407 33.957C61.5904 33.6654 61.3807 33.4626 61.1118 33.3486C60.843 33.2347 60.5285 33.1777 60.1685 33.1777C59.813 33.1823 59.5008 33.2484 59.232 33.376C58.9631 33.499 58.7375 33.6631 58.5552 33.8682C58.3775 34.0687 58.2407 34.2852 58.145 34.5176C58.0539 34.75 58.0038 34.9779 57.9946 35.2012ZM64.5604 36.418V36.1924C64.5604 35.6546 64.6379 35.1579 64.7929 34.7021C64.9478 34.2464 65.1688 33.8522 65.4559 33.5195C65.7476 33.1868 66.0962 32.9294 66.5018 32.7471C66.9074 32.5602 67.3586 32.4668 67.8554 32.4668C68.3567 32.4668 68.8101 32.5602 69.2157 32.7471C69.6213 32.9294 69.9699 33.1868 70.2616 33.5195C70.5533 33.8522 70.7766 34.2464 70.9315 34.7021C71.0865 35.1579 71.1639 35.6546 71.1639 36.1924V36.418C71.1639 36.9557 71.0865 37.4525 70.9315 37.9082C70.7766 38.3594 70.5533 38.7513 70.2616 39.084C69.9745 39.4167 69.6281 39.6764 69.2225 39.8633C68.8169 40.0456 68.3658 40.1367 67.869 40.1367C67.3677 40.1367 66.9143 40.0456 66.5087 39.8633C66.1031 39.6764 65.7544 39.4167 65.4628 39.084C65.1711 38.7513 64.9478 38.3594 64.7929 37.9082C64.6379 37.4525 64.5604 36.9557 64.5604 36.418ZM65.3739 36.1924V36.418C65.3739 36.8236 65.4286 37.2087 65.538 37.5732C65.6473 37.9333 65.8068 38.2546 66.0165 38.5371C66.2261 38.8151 66.4859 39.0339 66.7958 39.1934C67.1057 39.3529 67.4634 39.4326 67.869 39.4326C68.2701 39.4326 68.6233 39.3529 68.9286 39.1934C69.2385 39.0339 69.4983 38.8151 69.7079 38.5371C69.9175 38.2546 70.0748 37.9333 70.1796 37.5732C70.2889 37.2087 70.3436 36.8236 70.3436 36.418V36.1924C70.3436 35.7913 70.2889 35.4108 70.1796 35.0508C70.0748 34.6908 69.9152 34.3695 69.7011 34.0869C69.4914 33.8044 69.2317 33.5811 68.9218 33.417C68.6119 33.2529 68.2564 33.1709 67.8554 33.1709C67.4543 33.1709 67.0988 33.2529 66.7889 33.417C66.4836 33.5811 66.2238 33.8044 66.0096 34.0869C65.8 34.3695 65.6405 34.6908 65.5311 35.0508C65.4263 35.4108 65.3739 35.7913 65.3739 36.1924ZM77.7366 38.291V32.6035H78.5569V40H77.7707L77.7366 38.291ZM77.887 36.9238L78.3108 36.9102C78.3108 37.375 78.2561 37.8034 78.1467 38.1953C78.0373 38.5872 77.8664 38.929 77.634 39.2207C77.4016 39.5124 77.1008 39.738 76.7317 39.8975C76.3625 40.057 75.9182 40.1367 75.3987 40.1367C75.0386 40.1367 74.7082 40.0866 74.4075 39.9863C74.1112 39.8815 73.856 39.7174 73.6418 39.4941C73.4276 39.2708 73.2613 38.9814 73.1428 38.626C73.0289 38.2705 72.9719 37.8398 72.9719 37.334V32.6035H73.7854V37.3477C73.7854 37.7441 73.8287 38.0745 73.9153 38.3389C74.0064 38.6032 74.1295 38.8151 74.2844 38.9746C74.4439 39.1341 74.6262 39.248 74.8313 39.3164C75.0364 39.3848 75.2574 39.4189 75.4944 39.4189C76.0959 39.4189 76.5699 39.3027 76.9163 39.0703C77.2672 38.8379 77.5155 38.5326 77.6614 38.1543C77.8118 37.7715 77.887 37.3613 77.887 36.9238ZM81.65 34.1826V40H80.8365V32.6035H81.6158L81.65 34.1826ZM81.4654 35.8438L81.1031 35.6387C81.1305 35.2012 81.2193 34.791 81.3697 34.4082C81.5201 34.0254 81.7229 33.6882 81.9781 33.3965C82.2379 33.1048 82.541 32.877 82.8873 32.7129C83.2382 32.5488 83.6256 32.4668 84.0494 32.4668C84.4186 32.4668 84.749 32.5169 85.0406 32.6172C85.3323 32.7174 85.5807 32.877 85.7857 33.0957C85.9908 33.3145 86.1458 33.5947 86.2506 33.9365C86.36 34.2783 86.4146 34.6953 86.4146 35.1875V40H85.5943V35.1807C85.5943 34.6702 85.5237 34.2715 85.3824 33.9844C85.2411 33.6927 85.0406 33.4854 84.7809 33.3623C84.5211 33.2393 84.2135 33.1777 83.858 33.1777C83.4661 33.1777 83.122 33.2643 82.8258 33.4375C82.5341 33.6061 82.288 33.8271 82.0875 34.1006C81.8915 34.3695 81.7411 34.6589 81.6363 34.9688C81.5315 35.2741 81.4745 35.5658 81.4654 35.8438ZM91.4697 32.6035V33.2734H87.7646V32.6035H91.4697ZM89.125 30.7031H89.9384V38.2021C89.9384 38.5439 89.984 38.8014 90.0752 38.9746C90.1663 39.1478 90.2848 39.264 90.4306 39.3232C90.5765 39.3825 90.7337 39.4121 90.9023 39.4121C91.0254 39.4121 91.1438 39.4053 91.2578 39.3916C91.3717 39.3734 91.4742 39.3551 91.5654 39.3369L91.5996 40.0273C91.4993 40.0592 91.3694 40.0843 91.2099 40.1025C91.0504 40.1253 90.8909 40.1367 90.7314 40.1367C90.417 40.1367 90.139 40.0798 89.8974 39.9658C89.6559 39.8473 89.4668 39.6468 89.33 39.3643C89.1933 39.0771 89.125 38.6875 89.125 38.1953V30.7031ZM96.4323 36.418V36.1924C96.4323 35.6546 96.5098 35.1579 96.6647 34.7021C96.8197 34.2464 97.0407 33.8522 97.3278 33.5195C97.6195 33.1868 97.9681 32.9294 98.3737 32.7471C98.7793 32.5602 99.2305 32.4668 99.7272 32.4668C100.229 32.4668 100.682 32.5602 101.088 32.7471C101.493 32.9294 101.842 33.1868 102.133 33.5195C102.425 33.8522 102.648 34.2464 102.803 34.7021C102.958 35.1579 103.036 35.6546 103.036 36.1924V36.418C103.036 36.9557 102.958 37.4525 102.803 37.9082C102.648 38.3594 102.425 38.7513 102.133 39.084C101.846 39.4167 101.5 39.6764 101.094 39.8633C100.689 40.0456 100.238 40.1367 99.7409 40.1367C99.2396 40.1367 98.7861 40.0456 98.3805 39.8633C97.9749 39.6764 97.6263 39.4167 97.3346 39.084C97.043 38.7513 96.8197 38.3594 96.6647 37.9082C96.5098 37.4525 96.4323 36.9557 96.4323 36.418ZM97.2458 36.1924V36.418C97.2458 36.8236 97.3005 37.2087 97.4098 37.5732C97.5192 37.9333 97.6787 38.2546 97.8884 38.5371C98.098 38.8151 98.3578 39.0339 98.6677 39.1934C98.9776 39.3529 99.3353 39.4326 99.7409 39.4326C100.142 39.4326 100.495 39.3529 100.8 39.1934C101.11 39.0339 101.37 38.8151 101.58 38.5371C101.789 38.2546 101.947 37.9333 102.051 37.5732C102.161 37.2087 102.216 36.8236 102.216 36.418V36.1924C102.216 35.7913 102.161 35.4108 102.051 35.0508C101.947 34.6908 101.787 34.3695 101.573 34.0869C101.363 33.8044 101.104 33.5811 100.794 33.417C100.484 33.2529 100.128 33.1709 99.7272 33.1709C99.3262 33.1709 98.9707 33.2529 98.6608 33.417C98.3555 33.5811 98.0957 33.8044 97.8815 34.0869C97.6719 34.3695 97.5124 34.6908 97.403 35.0508C97.2982 35.4108 97.2458 35.7913 97.2458 36.1924ZM106.272 40H105.459V31.6875C105.459 31.1816 105.546 30.7555 105.719 30.4092C105.897 30.0628 106.147 29.8008 106.471 29.623C106.799 29.4453 107.189 29.3564 107.64 29.3564C107.781 29.3564 107.927 29.3656 108.077 29.3838C108.228 29.3975 108.373 29.4271 108.515 29.4727L108.453 30.1631C108.339 30.1312 108.223 30.1107 108.105 30.1016C107.991 30.0879 107.856 30.0811 107.701 30.0811C107.405 30.0811 107.15 30.1449 106.936 30.2725C106.721 30.3955 106.557 30.5755 106.443 30.8125C106.329 31.0495 106.272 31.3411 106.272 31.6875V40ZM108.036 32.6035V33.2734H104.235V32.6035H108.036ZM116 32.6035V33.2734H112.295V32.6035H116ZM113.655 30.7031H114.469V38.2021C114.469 38.5439 114.514 38.8014 114.605 38.9746C114.696 39.1478 114.815 39.264 114.961 39.3232C115.107 39.3825 115.264 39.4121 115.432 39.4121C115.555 39.4121 115.674 39.4053 115.788 39.3916C115.902 39.3734 116.004 39.3551 116.095 39.3369L116.13 40.0273C116.029 40.0592 115.9 40.0843 115.74 40.1025C115.58 40.1253 115.421 40.1367 115.261 40.1367C114.947 40.1367 114.669 40.0798 114.427 39.9658C114.186 39.8473 113.997 39.6468 113.86 39.3643C113.723 39.0771 113.655 38.6875 113.655 38.1953V30.7031ZM120.713 40.1367C120.23 40.1367 119.786 40.0479 119.38 39.8701C118.979 39.6924 118.628 39.4417 118.327 39.1182C118.031 38.7946 117.801 38.4118 117.637 37.9697C117.477 37.5231 117.398 37.0355 117.398 36.5068V36.2129C117.398 35.6432 117.482 35.1283 117.651 34.668C117.819 34.2077 118.052 33.8135 118.348 33.4854C118.644 33.1572 118.981 32.9066 119.359 32.7334C119.742 32.5557 120.143 32.4668 120.563 32.4668C121.032 32.4668 121.449 32.5511 121.814 32.7197C122.178 32.8838 122.484 33.1185 122.73 33.4238C122.98 33.7246 123.169 34.0824 123.297 34.4971C123.425 34.9072 123.488 35.3607 123.488 35.8574V36.3564H117.89V35.6592H122.675V35.5635C122.666 35.1488 122.581 34.7614 122.422 34.4014C122.267 34.0368 122.035 33.7406 121.725 33.5127C121.415 33.2848 121.027 33.1709 120.563 33.1709C120.216 33.1709 119.897 33.2438 119.606 33.3896C119.318 33.5355 119.07 33.7451 118.86 34.0186C118.655 34.2874 118.496 34.6087 118.382 34.9824C118.273 35.3516 118.218 35.7617 118.218 36.2129V36.5068C118.218 36.917 118.277 37.2998 118.396 37.6553C118.519 38.0062 118.692 38.3161 118.915 38.585C119.143 38.8538 119.412 39.0635 119.722 39.2139C120.032 39.3643 120.373 39.4395 120.747 39.4395C121.185 39.4395 121.572 39.3597 121.909 39.2002C122.247 39.0361 122.55 38.7786 122.818 38.4277L123.331 38.8242C123.172 39.0612 122.971 39.2799 122.73 39.4805C122.493 39.681 122.208 39.8405 121.875 39.959C121.542 40.0775 121.155 40.1367 120.713 40.1367ZM125.563 32.6035L127.559 35.5908L129.562 32.6035H130.533L128.024 36.2266L130.635 40H129.678L127.566 36.876L125.46 40H124.503L127.115 36.2266L124.606 32.6035H125.563ZM135 32.6035V33.2734H131.295V32.6035H135ZM132.655 30.7031H133.469V38.2021C133.469 38.5439 133.514 38.8014 133.605 38.9746C133.696 39.1478 133.815 39.264 133.961 39.3232C134.107 39.3825 134.264 39.4121 134.432 39.4121C134.556 39.4121 134.674 39.4053 134.788 39.3916C134.902 39.3734 135.004 39.3551 135.096 39.3369L135.13 40.0273C135.029 40.0592 134.9 40.0843 134.74 40.1025C134.581 40.1253 134.421 40.1367 134.262 40.1367C133.947 40.1367 133.669 40.0798 133.428 39.9658C133.186 39.8473 132.997 39.6468 132.86 39.3643C132.723 39.0771 132.655 38.6875 132.655 38.1953V30.7031ZM136.78 39.501C136.78 39.3415 136.831 39.207 136.931 39.0977C137.036 38.9837 137.177 38.9268 137.355 38.9268C137.537 38.9268 137.681 38.9814 137.785 39.0908C137.89 39.2002 137.943 39.3369 137.943 39.501C137.943 39.6559 137.89 39.7881 137.785 39.8975C137.681 40.0068 137.537 40.0615 137.355 40.0615C137.177 40.0615 137.036 40.0068 136.931 39.8975C136.831 39.7881 136.78 39.6559 136.78 39.501ZM140.27 39.501C140.27 39.3415 140.32 39.207 140.42 39.0977C140.525 38.9837 140.667 38.9268 140.844 38.9268C141.027 38.9268 141.17 38.9814 141.275 39.0908C141.38 39.2002 141.432 39.3369 141.432 39.501C141.432 39.6559 141.38 39.7881 141.275 39.8975C141.17 40.0068 141.027 40.0615 140.844 40.0615C140.667 40.0615 140.525 40.0068 140.42 39.8975C140.32 39.7881 140.27 39.6559 140.27 39.501ZM143.76 39.501C143.76 39.3415 143.81 39.207 143.91 39.0977C144.015 38.9837 144.156 38.9268 144.334 38.9268C144.516 38.9268 144.66 38.9814 144.765 39.0908C144.869 39.2002 144.922 39.3369 144.922 39.501C144.922 39.6559 144.869 39.7881 144.765 39.8975C144.66 40.0068 144.516 40.0615 144.334 40.0615C144.156 40.0615 144.015 40.0068 143.91 39.8975C143.81 39.7881 143.76 39.6559 143.76 39.501Z" fill="#515151"/>
<path d="M5.60059 2.04688V12H4.7666V2.04688H5.60059ZM9.01172 2.04688V2.77148H1.3623V2.04688H9.01172ZM12.7543 12.1367C12.2712 12.1367 11.8268 12.0479 11.4212 11.8701C11.0202 11.6924 10.6693 11.4417 10.3685 11.1182C10.0723 10.7946 9.84215 10.4118 9.67809 9.96973C9.51858 9.52311 9.43883 9.03548 9.43883 8.50684V8.21289C9.43883 7.64323 9.52314 7.12826 9.69176 6.66797C9.86038 6.20768 10.0928 5.81348 10.389 5.48535C10.6852 5.15723 11.0225 4.90658 11.4007 4.7334C11.7836 4.55566 12.1846 4.4668 12.6039 4.4668C13.0733 4.4668 13.4903 4.55111 13.8548 4.71973C14.2194 4.88379 14.5248 5.11849 14.7709 5.42383C15.0215 5.72461 15.2106 6.08236 15.3382 6.49707C15.4658 6.90723 15.5296 7.36068 15.5296 7.85742V8.35645H9.93102V7.65918H14.7162V7.56348C14.7071 7.14876 14.6227 6.76139 14.4632 6.40137C14.3083 6.03678 14.0759 5.74056 13.766 5.5127C13.4561 5.28483 13.0687 5.1709 12.6039 5.1709C12.2575 5.1709 11.9385 5.24382 11.6468 5.38965C11.3597 5.53548 11.1114 5.74512 10.9017 6.01855C10.6966 6.28743 10.5371 6.60872 10.4232 6.98242C10.3138 7.35156 10.2591 7.76172 10.2591 8.21289V8.50684C10.2591 8.91699 10.3184 9.2998 10.4369 9.65527C10.5599 10.0062 10.7331 10.3161 10.9564 10.585C11.1843 10.8538 11.4532 11.0635 11.763 11.2139C12.0729 11.3643 12.4147 11.4395 12.7884 11.4395C13.2259 11.4395 13.6133 11.3597 13.9505 11.2002C14.2878 11.0361 14.5908 10.7786 14.8597 10.4277L15.3724 10.8242C15.2129 11.0612 15.0124 11.2799 14.7709 11.4805C14.5339 11.681 14.249 11.8405 13.9164 11.959C13.5837 12.0775 13.1963 12.1367 12.7543 12.1367ZM17.6042 4.60352L19.6003 7.59082L21.6032 4.60352H22.5739L20.0652 8.22656L22.6765 12H21.7195L19.6071 8.87598L17.5017 12H16.5446L19.156 8.22656L16.6472 4.60352H17.6042ZM27.0411 4.60352V5.27344H23.336V4.60352H27.0411ZM24.6964 2.70312H25.5098V10.2021C25.5098 10.5439 25.5554 10.8014 25.6466 10.9746C25.7377 11.1478 25.8562 11.264 26.002 11.3232C26.1479 11.3825 26.3051 11.4121 26.4737 11.4121C26.5968 11.4121 26.7152 11.4053 26.8292 11.3916C26.9431 11.3734 27.0457 11.3551 27.1368 11.3369L27.171 12.0273C27.0707 12.0592 26.9408 12.0843 26.7813 12.1025C26.6218 12.1253 26.4623 12.1367 26.3028 12.1367C25.9884 12.1367 25.7104 12.0798 25.4688 11.9658C25.2273 11.8473 25.0382 11.6468 24.9014 11.3643C24.7647 11.0771 24.6964 10.6875 24.6964 10.1953V2.70312ZM36.9529 10.6738V6.85938C36.9529 6.50846 36.88 6.2054 36.7342 5.9502C36.5883 5.69499 36.3742 5.49902 36.0916 5.3623C35.8091 5.22559 35.4604 5.15723 35.0457 5.15723C34.6629 5.15723 34.3211 5.22559 34.0203 5.3623C33.7241 5.49447 33.4894 5.67448 33.3162 5.90234C33.1476 6.12565 33.0633 6.37402 33.0633 6.64746L32.243 6.64062C32.243 6.36263 32.3113 6.09375 32.448 5.83398C32.5848 5.57422 32.7785 5.3418 33.0291 5.13672C33.2798 4.93164 33.5783 4.76986 33.9246 4.65137C34.2755 4.52832 34.6606 4.4668 35.0799 4.4668C35.6085 4.4668 36.0734 4.55566 36.4744 4.7334C36.88 4.91113 37.1967 5.17773 37.4246 5.5332C37.6525 5.88867 37.7664 6.33529 37.7664 6.87305V10.4482C37.7664 10.7035 37.7846 10.9678 37.8211 11.2412C37.8621 11.5146 37.9191 11.7402 37.992 11.918V12H37.1238C37.0691 11.8359 37.0258 11.6309 36.9939 11.3848C36.9666 11.1341 36.9529 10.8971 36.9529 10.6738ZM37.1443 7.69336L37.158 8.32227H35.5516C35.1323 8.32227 34.7563 8.361 34.4236 8.43848C34.0955 8.51139 33.8175 8.62077 33.5896 8.7666C33.3618 8.90788 33.1863 9.07878 33.0633 9.2793C32.9448 9.47982 32.8855 9.70768 32.8855 9.96289C32.8855 10.2272 32.9516 10.4688 33.0838 10.6875C33.2205 10.9062 33.4119 11.0817 33.658 11.2139C33.9087 11.3415 34.2049 11.4053 34.5467 11.4053C35.0024 11.4053 35.4035 11.321 35.7498 11.1523C36.1007 10.9837 36.3901 10.7627 36.618 10.4893C36.8458 10.2158 36.9985 9.91732 37.076 9.59375L37.4314 10.0654C37.3722 10.2933 37.2628 10.528 37.1033 10.7695C36.9484 11.0065 36.7456 11.2298 36.4949 11.4395C36.2443 11.6445 35.948 11.8132 35.6063 11.9453C35.269 12.0729 34.8862 12.1367 34.4578 12.1367C33.9747 12.1367 33.5532 12.0456 33.1932 11.8633C32.8377 11.681 32.5597 11.4326 32.3592 11.1182C32.1632 10.7992 32.0652 10.4391 32.0652 10.0381C32.0652 9.6735 32.1427 9.34766 32.2977 9.06055C32.4526 8.76888 32.6759 8.52279 32.9676 8.32227C33.2638 8.11719 33.6193 7.96224 34.034 7.85742C34.4533 7.74805 34.9227 7.69336 35.4422 7.69336H37.1443ZM40.9142 5.82715V12H40.1007V4.60352H40.8937L40.9142 5.82715ZM43.5324 4.54883L43.5119 5.30078C43.4207 5.28711 43.3319 5.27572 43.2453 5.2666C43.1587 5.25749 43.0653 5.25293 42.965 5.25293C42.6095 5.25293 42.2974 5.31901 42.0285 5.45117C41.7642 5.57878 41.5408 5.75879 41.3586 5.99121C41.1763 6.21908 41.0373 6.48796 40.9416 6.79785C40.8459 7.10319 40.7912 7.43132 40.7775 7.78223L40.4767 7.89844C40.4767 7.41536 40.5268 6.96647 40.6271 6.55176C40.7274 6.13704 40.88 5.77474 41.0851 5.46484C41.2948 5.15039 41.5568 4.90658 41.8713 4.7334C42.1903 4.55566 42.564 4.4668 42.9923 4.4668C43.0972 4.4668 43.1997 4.47591 43.3 4.49414C43.4048 4.50781 43.4823 4.52604 43.5324 4.54883ZM47.6782 12.1367C47.1952 12.1367 46.7508 12.0479 46.3452 11.8701C45.9442 11.6924 45.5933 11.4417 45.2925 11.1182C44.9963 10.7946 44.7661 10.4118 44.6021 9.96973C44.4426 9.52311 44.3628 9.03548 44.3628 8.50684V8.21289C44.3628 7.64323 44.4471 7.12826 44.6157 6.66797C44.7844 6.20768 45.0168 5.81348 45.313 5.48535C45.6092 5.15723 45.9465 4.90658 46.3247 4.7334C46.7075 4.55566 47.1086 4.4668 47.5279 4.4668C47.9973 4.4668 48.4142 4.55111 48.7788 4.71973C49.1434 4.88379 49.4487 5.11849 49.6948 5.42383C49.9455 5.72461 50.1346 6.08236 50.2622 6.49707C50.3898 6.90723 50.4536 7.36068 50.4536 7.85742V8.35645H44.855V7.65918H49.6402V7.56348C49.631 7.14876 49.5467 6.76139 49.3872 6.40137C49.2323 6.03678 48.9999 5.74056 48.69 5.5127C48.3801 5.28483 47.9927 5.1709 47.5279 5.1709C47.1815 5.1709 46.8625 5.24382 46.5708 5.38965C46.2837 5.53548 46.0353 5.74512 45.8257 6.01855C45.6206 6.28743 45.4611 6.60872 45.3472 6.98242C45.2378 7.35156 45.1831 7.76172 45.1831 8.21289V8.50684C45.1831 8.91699 45.2424 9.2998 45.3609 9.65527C45.4839 10.0062 45.6571 10.3161 45.8804 10.585C46.1083 10.8538 46.3771 11.0635 46.687 11.2139C46.9969 11.3643 47.3387 11.4395 47.7124 11.4395C48.1499 11.4395 48.5373 11.3597 48.8745 11.2002C49.2118 11.0361 49.5148 10.7786 49.7837 10.4277L50.2964 10.8242C50.1369 11.0612 49.9364 11.2799 49.6948 11.4805C49.4579 11.681 49.173 11.8405 48.8404 11.959C48.5077 12.0775 48.1203 12.1367 47.6782 12.1367ZM56.705 10.6738V6.85938C56.705 6.50846 56.632 6.2054 56.4862 5.9502C56.3404 5.69499 56.1262 5.49902 55.8436 5.3623C55.5611 5.22559 55.2124 5.15723 54.7977 5.15723C54.4149 5.15723 54.0731 5.22559 53.7723 5.3623C53.4761 5.49447 53.2414 5.67448 53.0682 5.90234C52.8996 6.12565 52.8153 6.37402 52.8153 6.64746L51.995 6.64062C51.995 6.36263 52.0634 6.09375 52.2001 5.83398C52.3368 5.57422 52.5305 5.3418 52.7811 5.13672C53.0318 4.93164 53.3303 4.76986 53.6766 4.65137C54.0276 4.52832 54.4126 4.4668 54.8319 4.4668C55.3606 4.4668 55.8254 4.55566 56.2264 4.7334C56.632 4.91113 56.9488 5.17773 57.1766 5.5332C57.4045 5.88867 57.5184 6.33529 57.5184 6.87305V10.4482C57.5184 10.7035 57.5367 10.9678 57.5731 11.2412C57.6141 11.5146 57.6711 11.7402 57.744 11.918V12H56.8759C56.8212 11.8359 56.7779 11.6309 56.746 11.3848C56.7186 11.1341 56.705 10.8971 56.705 10.6738ZM56.8964 7.69336L56.91 8.32227H55.3036C54.8843 8.32227 54.5083 8.361 54.1757 8.43848C53.8475 8.51139 53.5695 8.62077 53.3417 8.7666C53.1138 8.90788 52.9384 9.07878 52.8153 9.2793C52.6968 9.47982 52.6376 9.70768 52.6376 9.96289C52.6376 10.2272 52.7037 10.4688 52.8358 10.6875C52.9725 10.9062 53.1639 11.0817 53.41 11.2139C53.6607 11.3415 53.9569 11.4053 54.2987 11.4053C54.7544 11.4053 55.1555 11.321 55.5018 11.1523C55.8527 10.9837 56.1421 10.7627 56.37 10.4893C56.5979 10.2158 56.7505 9.91732 56.828 9.59375L57.1835 10.0654C57.1242 10.2933 57.0149 10.528 56.8554 10.7695C56.7004 11.0065 56.4976 11.2298 56.247 11.4395C55.9963 11.6445 55.7001 11.8132 55.3583 11.9453C55.021 12.0729 54.6382 12.1367 54.2098 12.1367C53.7268 12.1367 53.3052 12.0456 52.9452 11.8633C52.5897 11.681 52.3117 11.4326 52.1112 11.1182C51.9152 10.7992 51.8173 10.4391 51.8173 10.0381C51.8173 9.6735 51.8947 9.34766 52.0497 9.06055C52.2046 8.76888 52.4279 8.52279 52.7196 8.32227C53.0158 8.11719 53.3713 7.96224 53.786 7.85742C54.2053 7.74805 54.6747 7.69336 55.1942 7.69336H56.8964ZM64.3199 1.5V12H63.5064V1.5H64.3199ZM71.1933 10.6738V6.85938C71.1933 6.50846 71.1204 6.2054 70.9746 5.9502C70.8287 5.69499 70.6145 5.49902 70.332 5.3623C70.0494 5.22559 69.7008 5.15723 69.2861 5.15723C68.9033 5.15723 68.5615 5.22559 68.2607 5.3623C67.9645 5.49447 67.7298 5.67448 67.5566 5.90234C67.388 6.12565 67.3037 6.37402 67.3037 6.64746L66.4834 6.64062C66.4834 6.36263 66.5517 6.09375 66.6884 5.83398C66.8252 5.57422 67.0188 5.3418 67.2695 5.13672C67.5201 4.93164 67.8186 4.76986 68.165 4.65137C68.5159 4.52832 68.901 4.4668 69.3203 4.4668C69.8489 4.4668 70.3138 4.55566 70.7148 4.7334C71.1204 4.91113 71.4371 5.17773 71.665 5.5332C71.8929 5.88867 72.0068 6.33529 72.0068 6.87305V10.4482C72.0068 10.7035 72.025 10.9678 72.0615 11.2412C72.1025 11.5146 72.1595 11.7402 72.2324 11.918V12H71.3642C71.3095 11.8359 71.2662 11.6309 71.2343 11.3848C71.207 11.1341 71.1933 10.8971 71.1933 10.6738ZM71.3847 7.69336L71.3984 8.32227H69.792C69.3727 8.32227 68.9967 8.361 68.664 8.43848C68.3359 8.51139 68.0579 8.62077 67.83 8.7666C67.6022 8.90788 67.4267 9.07878 67.3037 9.2793C67.1852 9.47982 67.1259 9.70768 67.1259 9.96289C67.1259 10.2272 67.192 10.4688 67.3242 10.6875C67.4609 10.9062 67.6523 11.0817 67.8984 11.2139C68.1491 11.3415 68.4453 11.4053 68.7871 11.4053C69.2428 11.4053 69.6438 11.321 69.9902 11.1523C70.3411 10.9837 70.6305 10.7627 70.8584 10.4893C71.0862 10.2158 71.2389 9.91732 71.3164 9.59375L71.6718 10.0654C71.6126 10.2933 71.5032 10.528 71.3437 10.7695C71.1888 11.0065 70.986 11.2298 70.7353 11.4395C70.4847 11.6445 70.1884 11.8132 69.8466 11.9453C69.5094 12.0729 69.1266 12.1367 68.6982 12.1367C68.2151 12.1367 67.7936 12.0456 67.4336 11.8633C67.0781 11.681 66.8001 11.4326 66.5996 11.1182C66.4036 10.7992 66.3056 10.4391 66.3056 10.0381C66.3056 9.6735 66.3831 9.34766 66.538 9.06055C66.693 8.76888 66.9163 8.52279 67.208 8.32227C67.5042 8.11719 67.8597 7.96224 68.2744 7.85742C68.6936 7.74805 69.163 7.69336 69.6826 7.69336H71.3847ZM74.3275 1.5H75.1478V10.5645L75.0931 12H74.3275V1.5ZM80.2952 8.2334V8.37695C80.2952 8.92839 80.2314 9.43424 80.1038 9.89453C79.9762 10.3548 79.7917 10.7536 79.5501 11.0908C79.3086 11.4235 79.0124 11.681 78.6614 11.8633C78.3151 12.0456 77.9163 12.1367 77.4652 12.1367C77.0231 12.1367 76.6312 12.0684 76.2894 11.9316C75.9476 11.7904 75.6559 11.5921 75.4144 11.3369C75.1728 11.0771 74.9792 10.7741 74.8333 10.4277C74.6875 10.0768 74.5849 9.69173 74.5257 9.27246V7.44727C74.5941 7.00065 74.7034 6.59505 74.8538 6.23047C75.0042 5.86589 75.1979 5.55143 75.4349 5.28711C75.6764 5.02279 75.9635 4.81999 76.2962 4.67871C76.6335 4.53743 77.0185 4.4668 77.4515 4.4668C77.9027 4.4668 78.3037 4.55566 78.6546 4.7334C79.0101 4.90658 79.3086 5.15951 79.5501 5.49219C79.7917 5.82031 79.9762 6.2168 80.1038 6.68164C80.2314 7.14193 80.2952 7.65918 80.2952 8.2334ZM79.4681 8.37695V8.2334C79.4681 7.80046 79.4271 7.39941 79.345 7.03027C79.263 6.66113 79.1331 6.33984 78.9554 6.06641C78.7822 5.78841 78.5589 5.57194 78.2855 5.41699C78.012 5.26204 77.6839 5.18457 77.3011 5.18457C76.9092 5.18457 76.5742 5.25065 76.2962 5.38281C76.0228 5.51042 75.7949 5.68132 75.6126 5.89551C75.4349 6.10514 75.2936 6.33529 75.1888 6.58594C75.084 6.83659 75.0065 7.08268 74.9564 7.32422V9.4502C75.0338 9.79199 75.1683 10.1133 75.3597 10.4141C75.5511 10.7148 75.8086 10.9587 76.1321 11.1455C76.4557 11.3278 76.8499 11.4189 77.3148 11.4189C77.6885 11.4189 78.0098 11.3415 78.2786 11.1865C78.5521 11.0316 78.7754 10.8174 78.9486 10.5439C79.1263 10.2705 79.2562 9.94922 79.3382 9.58008C79.4248 9.21094 79.4681 8.8099 79.4681 8.37695ZM85.1042 12.1367C84.6211 12.1367 84.1768 12.0479 83.7712 11.8701C83.3701 11.6924 83.0192 11.4417 82.7184 11.1182C82.4222 10.7946 82.1921 10.4118 82.028 9.96973C81.8685 9.52311 81.7887 9.03548 81.7887 8.50684V8.21289C81.7887 7.64323 81.8731 7.12826 82.0417 6.66797C82.2103 6.20768 82.4427 5.81348 82.7389 5.48535C83.0352 5.15723 83.3724 4.90658 83.7507 4.7334C84.1335 4.55566 84.5345 4.4668 84.9538 4.4668C85.4232 4.4668 85.8402 4.55111 86.2048 4.71973C86.5693 4.88379 86.8747 5.11849 87.1208 5.42383C87.3714 5.72461 87.5606 6.08236 87.6882 6.49707C87.8158 6.90723 87.8796 7.36068 87.8796 7.85742V8.35645H82.2809V7.65918H87.0661V7.56348C87.057 7.14876 86.9727 6.76139 86.8132 6.40137C86.6582 6.03678 86.4258 5.74056 86.1159 5.5127C85.806 5.28483 85.4186 5.1709 84.9538 5.1709C84.6074 5.1709 84.2884 5.24382 83.9968 5.38965C83.7096 5.53548 83.4613 5.74512 83.2516 6.01855C83.0466 6.28743 82.8871 6.60872 82.7731 6.98242C82.6637 7.35156 82.6091 7.76172 82.6091 8.21289V8.50684C82.6091 8.91699 82.6683 9.2998 82.7868 9.65527C82.9098 10.0062 83.083 10.3161 83.3063 10.585C83.5342 10.8538 83.8031 11.0635 84.113 11.2139C84.4229 11.3643 84.7647 11.4395 85.1384 11.4395C85.5759 11.4395 85.9632 11.3597 86.3005 11.2002C86.6377 11.0361 86.9408 10.7786 87.2096 10.4277L87.7223 10.8242C87.5628 11.0612 87.3623 11.2799 87.1208 11.4805C86.8838 11.681 86.599 11.8405 86.2663 11.959C85.9336 12.0775 85.5462 12.1367 85.1042 12.1367ZM90.542 1.5V12H89.7286V1.5H90.542Z" fill="#515151"/>
</svg>
