<svg width="32" height="32" viewBox="0 0 32 32" fill="none" xmlns="http://www.w3.org/2000/svg">
<g clip-path="url(#clip0_63_2008)">
<path d="M7.61214 16.8506L4.56982 21.5138L10.4861 27.4301L15.1493 24.3878L7.61214 16.8506Z" fill="#E6E2E0"/>
<path d="M25.1932 16.5139L15.4859 6.80664L6.90262 8.14745L1.56543 13.4846L8.51574 13.7769L18.223 23.4841L18.5152 30.4345L23.8524 25.0973L25.1932 16.5139Z" fill="#EE3840"/>
<path d="M31.5515 0.448482C25.8144 -1.14364 20.469 1.82373 17.9603 4.33242C17.2107 5.08192 6.00342 16.2892 6.00342 16.2892L15.7107 25.9965C15.7107 25.9965 25.8567 15.8505 27.6675 14.0397C30.1761 11.531 33.1436 6.18555 31.5515 0.448482Z" fill="#CCC4C1"/>
<path d="M9.51674 22.4831C9.22749 22.1939 9.22749 21.7248 9.51674 21.4356L19.8159 11.1364C20.1052 10.8471 20.5742 10.8471 20.8635 11.1364C21.1527 11.4256 21.1527 11.8947 20.8635 12.1839L10.5643 22.4831C10.275 22.7724 9.80599 22.7724 9.51674 22.4831Z" fill="#EE3840"/>
<path d="M25.1943 9.5431C26.706 9.5431 27.9315 8.31759 27.9315 6.80585C27.9315 5.29411 26.706 4.0686 25.1943 4.0686C23.6825 4.0686 22.457 5.29411 22.457 6.80585C22.457 8.31759 23.6825 9.5431 25.1943 9.5431Z" fill="white"/>
<path d="M0.216937 27.0052C-0.0723125 26.7159 -0.0723125 26.2469 0.216937 25.9576L3.04406 23.1305C3.33331 22.8413 3.80238 22.8413 4.09163 23.1305C4.38088 23.4198 4.38088 23.8888 4.09163 24.1781L1.2645 27.0052C0.97525 27.2944 0.506187 27.2945 0.216937 27.0052Z" fill="#FFB14D"/>
<path d="M4.99477 31.783C4.70552 31.4938 4.70552 31.0247 4.99477 30.7355L7.82189 27.9083C8.11114 27.6191 8.58021 27.6191 8.86946 27.9083C9.15871 28.1976 9.15871 28.6667 8.86946 28.9559L6.04233 31.783C5.75302 32.0723 5.28402 32.0723 4.99477 31.783Z" fill="#FFB14D"/>
<path d="M1.41469 30.4799C1.12544 30.1906 1.12544 29.7216 1.41469 29.4323L5.38032 25.4667C5.66957 25.1774 6.13863 25.1774 6.42788 25.4667C6.71713 25.7559 6.71713 26.225 6.42788 26.5143L2.46225 30.4799C2.173 30.7691 1.704 30.7691 1.41469 30.4799Z" fill="#FFB14D"/>
</g>
<defs>
<clipPath id="clip0_63_2008">
<rect width="32" height="32" fill="white"/>
</clipPath>
</defs>
</svg>
