<svg width="1200" height="240" viewBox="0 0 1200 240" fill="none" xmlns="http://www.w3.org/2000/svg">
<rect width="1200" height="240" transform="translate(1200 240) rotate(-180)" fill="white"/>
<path d="M400.474 121.391L425.779 131.645V138.822L395.823 124.943V120.731L400.474 121.391ZM425.779 112.968L400.51 123.368L395.823 123.881V119.633L425.779 105.79V112.968ZM460.623 139.225V118.827C460.623 117.265 460.306 115.91 459.671 114.762C459.061 113.59 458.133 112.687 456.888 112.052C455.643 111.417 454.104 111.1 452.273 111.1C450.564 111.1 449.063 111.393 447.769 111.979C446.5 112.565 445.499 113.334 444.766 114.286C444.058 115.238 443.704 116.264 443.704 117.362H436.929C436.929 115.946 437.295 114.542 438.028 113.151C438.76 111.759 439.81 110.502 441.177 109.379C442.569 108.231 444.229 107.328 446.158 106.669C448.111 105.985 450.284 105.644 452.676 105.644C455.557 105.644 458.096 106.132 460.293 107.108C462.515 108.085 464.249 109.562 465.494 111.54C466.763 113.493 467.398 115.946 467.398 118.9V137.357C467.398 138.676 467.508 140.08 467.728 141.569C467.972 143.058 468.326 144.34 468.79 145.414V146H461.722C461.38 145.219 461.111 144.181 460.916 142.887C460.721 141.569 460.623 140.348 460.623 139.225ZM461.795 121.977L461.868 126.737H455.02C453.091 126.737 451.37 126.896 449.856 127.213C448.343 127.506 447.073 127.958 446.048 128.568C445.022 129.179 444.241 129.948 443.704 130.875C443.167 131.779 442.898 132.841 442.898 134.062C442.898 135.307 443.179 136.442 443.741 137.467C444.302 138.493 445.145 139.311 446.268 139.921C447.415 140.507 448.819 140.8 450.479 140.8C452.554 140.8 454.385 140.36 455.972 139.481C457.559 138.603 458.816 137.528 459.744 136.259C460.696 134.989 461.209 133.756 461.282 132.56L464.175 135.819C464.004 136.845 463.541 137.98 462.784 139.225C462.027 140.47 461.014 141.667 459.744 142.814C458.499 143.937 457.01 144.877 455.276 145.634C453.567 146.366 451.639 146.732 449.49 146.732C446.805 146.732 444.449 146.208 442.422 145.158C440.42 144.108 438.858 142.704 437.735 140.946C436.636 139.164 436.087 137.174 436.087 134.977C436.087 132.853 436.502 130.985 437.332 129.374C438.162 127.738 439.358 126.383 440.921 125.309C442.483 124.21 444.363 123.38 446.561 122.819C448.758 122.257 451.211 121.977 453.921 121.977H461.795ZM504.623 122.855L478.585 112.711V105.717L509.859 119.56V123.844L504.623 122.855ZM478.585 131.791L504.696 121.427L509.859 120.658V124.906L478.585 138.786V131.791Z" fill="#7176EC"/>
<path d="M554.609 146.732C551.85 146.732 549.348 146.269 547.102 145.341C544.88 144.389 542.963 143.058 541.352 141.349C539.765 139.64 538.544 137.614 537.69 135.27C536.835 132.926 536.408 130.363 536.408 127.58V126.042C536.408 122.819 536.884 119.95 537.836 117.436C538.789 114.896 540.083 112.748 541.718 110.99C543.354 109.232 545.209 107.902 547.285 106.999C549.36 106.095 551.508 105.644 553.73 105.644C556.562 105.644 559.003 106.132 561.054 107.108C563.129 108.085 564.826 109.452 566.145 111.21C567.463 112.943 568.439 114.994 569.074 117.362C569.709 119.706 570.026 122.27 570.026 125.053V128.092H540.437V122.562H563.251V122.05C563.154 120.292 562.788 118.583 562.153 116.923C561.542 115.263 560.566 113.896 559.223 112.821C557.88 111.747 556.049 111.21 553.73 111.21C552.192 111.21 550.776 111.54 549.482 112.199C548.188 112.833 547.077 113.786 546.149 115.055C545.222 116.325 544.501 117.875 543.989 119.706C543.476 121.537 543.22 123.649 543.22 126.042V127.58C543.22 129.459 543.476 131.229 543.989 132.89C544.526 134.525 545.295 135.966 546.296 137.211C547.321 138.456 548.554 139.433 549.995 140.141C551.459 140.849 553.12 141.203 554.975 141.203C557.368 141.203 559.394 140.714 561.054 139.738C562.714 138.761 564.167 137.455 565.412 135.819L569.514 139.079C568.659 140.373 567.573 141.605 566.254 142.777C564.936 143.949 563.312 144.901 561.384 145.634C559.479 146.366 557.221 146.732 554.609 146.732ZM586.047 89.75V146H579.236V89.75H586.047ZM614.117 146.732C611.358 146.732 608.855 146.269 606.609 145.341C604.388 144.389 602.471 143.058 600.86 141.349C599.273 139.64 598.052 137.614 597.198 135.27C596.343 132.926 595.916 130.363 595.916 127.58V126.042C595.916 122.819 596.392 119.95 597.344 117.436C598.296 114.896 599.59 112.748 601.226 110.99C602.862 109.232 604.717 107.902 606.792 106.999C608.868 106.095 611.016 105.644 613.238 105.644C616.07 105.644 618.511 106.132 620.562 107.108C622.637 108.085 624.334 109.452 625.652 111.21C626.971 112.943 627.947 114.994 628.582 117.362C629.217 119.706 629.534 122.27 629.534 125.053V128.092H599.944V122.562H622.759V122.05C622.662 120.292 622.295 118.583 621.661 116.923C621.05 115.263 620.074 113.896 618.731 112.821C617.388 111.747 615.557 111.21 613.238 111.21C611.7 111.21 610.284 111.54 608.99 112.199C607.696 112.833 606.585 113.786 605.657 115.055C604.729 116.325 604.009 117.875 603.497 119.706C602.984 121.537 602.728 123.649 602.728 126.042V127.58C602.728 129.459 602.984 131.229 603.497 132.89C604.034 134.525 604.803 135.966 605.804 137.211C606.829 138.456 608.062 139.433 609.502 140.141C610.967 140.849 612.627 141.203 614.483 141.203C616.875 141.203 618.902 140.714 620.562 139.738C622.222 138.761 623.675 137.455 624.92 135.819L629.021 139.079C628.167 140.373 627.081 141.605 625.762 142.777C624.444 143.949 622.82 144.901 620.892 145.634C618.987 146.366 616.729 146.732 614.117 146.732ZM644.933 114.25V146H638.121V106.376H644.566L644.933 114.25ZM643.541 124.687L640.392 124.577C640.416 121.867 640.77 119.364 641.454 117.069C642.137 114.75 643.15 112.736 644.493 111.027C645.836 109.318 647.508 108 649.51 107.072C651.512 106.12 653.832 105.644 656.468 105.644C658.324 105.644 660.033 105.912 661.595 106.449C663.158 106.962 664.513 107.78 665.66 108.903C666.808 110.026 667.699 111.466 668.333 113.224C668.968 114.982 669.286 117.106 669.286 119.596V146H662.511V119.926C662.511 117.851 662.157 116.19 661.449 114.945C660.765 113.7 659.789 112.797 658.519 112.235C657.25 111.649 655.76 111.356 654.051 111.356C652.049 111.356 650.377 111.71 649.034 112.418C647.691 113.126 646.617 114.103 645.812 115.348C645.006 116.593 644.42 118.021 644.054 119.633C643.712 121.22 643.541 122.904 643.541 124.687ZM669.212 120.951L664.671 122.343C664.696 120.17 665.05 118.083 665.733 116.081C666.441 114.079 667.455 112.296 668.773 110.734C670.116 109.171 671.764 107.938 673.717 107.035C675.67 106.107 677.904 105.644 680.418 105.644C682.542 105.644 684.422 105.924 686.058 106.486C687.718 107.047 689.11 107.914 690.233 109.086C691.38 110.233 692.247 111.71 692.833 113.517C693.419 115.324 693.712 117.472 693.712 119.962V146H686.9V119.889C686.9 117.667 686.546 115.946 685.838 114.726C685.155 113.48 684.178 112.614 682.909 112.125C681.664 111.613 680.174 111.356 678.441 111.356C676.952 111.356 675.633 111.613 674.486 112.125C673.338 112.638 672.374 113.346 671.593 114.25C670.812 115.128 670.213 116.142 669.798 117.289C669.408 118.437 669.212 119.657 669.212 120.951ZM721.159 146.732C718.4 146.732 715.897 146.269 713.651 145.341C711.43 144.389 709.513 143.058 707.902 141.349C706.315 139.64 705.094 137.614 704.24 135.27C703.385 132.926 702.958 130.363 702.958 127.58V126.042C702.958 122.819 703.434 119.95 704.386 117.436C705.338 114.896 706.632 112.748 708.268 110.99C709.904 109.232 711.759 107.902 713.834 106.999C715.91 106.095 718.058 105.644 720.28 105.644C723.112 105.644 725.553 106.132 727.604 107.108C729.679 108.085 731.376 109.452 732.694 111.21C734.013 112.943 734.989 114.994 735.624 117.362C736.259 119.706 736.576 122.27 736.576 125.053V128.092H706.986V122.562H729.801V122.05C729.704 120.292 729.337 118.583 728.703 116.923C728.092 115.263 727.116 113.896 725.773 112.821C724.43 111.747 722.599 111.21 720.28 111.21C718.742 111.21 717.326 111.54 716.032 112.199C714.738 112.833 713.627 113.786 712.699 115.055C711.771 116.325 711.051 117.875 710.539 119.706C710.026 121.537 709.77 123.649 709.77 126.042V127.58C709.77 129.459 710.026 131.229 710.539 132.89C711.076 134.525 711.845 135.966 712.846 137.211C713.871 138.456 715.104 139.433 716.544 140.141C718.009 140.849 719.669 141.203 721.525 141.203C723.917 141.203 725.944 140.714 727.604 139.738C729.264 138.761 730.717 137.455 731.962 135.819L736.063 139.079C735.209 140.373 734.123 141.605 732.804 142.777C731.486 143.949 729.862 144.901 727.934 145.634C726.029 146.366 723.771 146.732 721.159 146.732ZM752.011 114.835V146H745.236V106.376H751.645L752.011 114.835ZM750.4 124.687L747.58 124.577C747.604 121.867 748.007 119.364 748.789 117.069C749.57 114.75 750.668 112.736 752.084 111.027C753.5 109.318 755.185 108 757.138 107.072C759.116 106.12 761.301 105.644 763.693 105.644C765.646 105.644 767.404 105.912 768.967 106.449C770.529 106.962 771.86 107.792 772.958 108.939C774.082 110.087 774.936 111.576 775.522 113.407C776.108 115.214 776.401 117.423 776.401 120.036V146H769.589V119.962C769.589 117.887 769.284 116.227 768.674 114.982C768.063 113.712 767.172 112.797 766 112.235C764.829 111.649 763.388 111.356 761.679 111.356C759.995 111.356 758.457 111.71 757.065 112.418C755.698 113.126 754.514 114.103 753.513 115.348C752.536 116.593 751.767 118.021 751.206 119.633C750.668 121.22 750.4 122.904 750.4 124.687ZM804.031 106.376V111.576H782.607V106.376H804.031ZM789.858 96.7446H796.633V136.186C796.633 137.528 796.841 138.542 797.256 139.225C797.671 139.909 798.208 140.36 798.867 140.58C799.526 140.8 800.234 140.91 800.991 140.91C801.553 140.91 802.139 140.861 802.749 140.763C803.384 140.641 803.86 140.543 804.177 140.47L804.214 146C803.677 146.171 802.969 146.33 802.09 146.476C801.235 146.647 800.198 146.732 798.977 146.732C797.317 146.732 795.791 146.403 794.399 145.744C793.008 145.084 791.897 143.986 791.067 142.448C790.261 140.885 789.858 138.786 789.858 136.149V96.7446Z" fill="black"/>
</svg>
