<svg width="1200" height="240" viewBox="0 0 1200 240" fill="none" xmlns="http://www.w3.org/2000/svg">
<rect width="1200" height="240" transform="translate(1200 240) rotate(-180)" fill="white"/>
<path d="M383.253 122.416L406.544 130.839V140.763L374.903 127.36V120.329L383.253 122.416ZM406.544 115.531L383.216 124.101L374.903 126.078V119.047L406.544 105.644V115.531ZM426.3 89.75V146H415.753V89.75H426.3ZM424.799 124.796H421.906C421.93 122.038 422.296 119.499 423.004 117.179C423.712 114.835 424.726 112.809 426.044 111.1C427.362 109.367 428.937 108.024 430.768 107.072C432.624 106.12 434.674 105.644 436.92 105.644C438.874 105.644 440.644 105.924 442.23 106.486C443.842 107.023 445.221 107.902 446.369 109.123C447.541 110.319 448.444 111.894 449.079 113.847C449.713 115.8 450.031 118.168 450.031 120.951V146H439.411V120.878C439.411 119.12 439.154 117.741 438.642 116.74C438.153 115.714 437.433 114.994 436.481 114.579C435.553 114.14 434.406 113.92 433.039 113.92C431.525 113.92 430.231 114.201 429.157 114.762C428.107 115.324 427.265 116.105 426.63 117.106C425.995 118.083 425.531 119.23 425.238 120.548C424.945 121.867 424.799 123.283 424.799 124.796ZM494.836 137.76V146H458.361V138.969L475.61 120.475C477.343 118.546 478.71 116.85 479.711 115.385C480.712 113.896 481.433 112.565 481.872 111.393C482.336 110.197 482.568 109.062 482.568 107.987C482.568 106.376 482.299 104.997 481.762 103.849C481.225 102.677 480.432 101.774 479.382 101.139C478.356 100.504 477.087 100.187 475.573 100.187C473.962 100.187 472.57 100.578 471.398 101.359C470.251 102.14 469.372 103.227 468.762 104.618C468.176 106.01 467.883 107.584 467.883 109.342H457.299C457.299 106.168 458.056 103.263 459.57 100.626C461.083 97.9653 463.22 95.8535 465.979 94.291C468.737 92.7041 472.009 91.9106 475.793 91.9106C479.528 91.9106 482.678 92.521 485.241 93.7417C487.829 94.938 489.782 96.6714 491.101 98.9419C492.443 101.188 493.115 103.874 493.115 106.999C493.115 108.756 492.834 110.478 492.272 112.162C491.711 113.822 490.905 115.482 489.855 117.143C488.83 118.778 487.585 120.438 486.12 122.123C484.655 123.808 483.032 125.553 481.25 127.36L471.984 137.76H494.836ZM526.348 123.881L502.874 115.495V105.644L534.771 119.047V126.115L526.348 123.881ZM502.874 130.912L526.384 122.343L534.771 120.329V127.36L502.874 140.763V130.912Z" fill="#585858"/>
<path d="M578.421 146.732C575.833 146.732 573.453 146.256 571.28 145.304C569.132 144.352 567.252 143.009 565.641 141.276C564.054 139.542 562.821 137.492 561.942 135.124C561.087 132.731 560.66 130.119 560.66 127.287V125.712C560.66 122.66 561.112 119.901 562.015 117.436C562.918 114.97 564.164 112.858 565.75 111.1C567.337 109.342 569.144 108 571.17 107.072C573.221 106.12 575.37 105.644 577.616 105.644C580.13 105.644 582.364 106.095 584.317 106.999C586.271 107.877 587.906 109.135 589.225 110.771C590.567 112.382 591.581 114.298 592.264 116.52C592.948 118.717 593.29 121.146 593.29 123.808V126.481H563.297V122.746H588.932V122.233C588.883 120.011 588.431 117.936 587.577 116.007C586.747 114.054 585.501 112.467 583.841 111.247C582.181 110.026 580.106 109.416 577.616 109.416C575.76 109.416 574.051 109.806 572.489 110.587C570.951 111.369 569.62 112.492 568.497 113.957C567.398 115.397 566.544 117.118 565.934 119.12C565.348 121.098 565.055 123.295 565.055 125.712V127.287C565.055 129.484 565.372 131.535 566.007 133.439C566.666 135.319 567.594 136.979 568.79 138.419C570.011 139.86 571.451 140.983 573.111 141.789C574.771 142.594 576.603 142.997 578.604 142.997C580.948 142.997 583.023 142.57 584.83 141.715C586.637 140.836 588.26 139.457 589.701 137.577L592.447 139.701C591.593 140.971 590.519 142.143 589.225 143.217C587.955 144.291 586.429 145.146 584.647 145.78C582.865 146.415 580.79 146.732 578.421 146.732ZM607.553 89.75V146H603.195V89.75H607.553ZM635.585 146.732C632.998 146.732 630.617 146.256 628.444 145.304C626.296 144.352 624.416 143.009 622.805 141.276C621.218 139.542 619.985 137.492 619.106 135.124C618.251 132.731 617.824 130.119 617.824 127.287V125.712C617.824 122.66 618.276 119.901 619.179 117.436C620.083 114.97 621.328 112.858 622.915 111.1C624.501 109.342 626.308 108 628.334 107.072C630.385 106.12 632.534 105.644 634.78 105.644C637.294 105.644 639.528 106.095 641.481 106.999C643.435 107.877 645.07 109.135 646.389 110.771C647.731 112.382 648.745 114.298 649.428 116.52C650.112 118.717 650.454 121.146 650.454 123.808V126.481H620.461V122.746H646.096V122.233C646.047 120.011 645.595 117.936 644.741 116.007C643.911 114.054 642.666 112.467 641.005 111.247C639.345 110.026 637.27 109.416 634.78 109.416C632.924 109.416 631.215 109.806 629.653 110.587C628.115 111.369 626.784 112.492 625.661 113.957C624.562 115.397 623.708 117.118 623.098 119.12C622.512 121.098 622.219 123.295 622.219 125.712V127.287C622.219 129.484 622.536 131.535 623.171 133.439C623.83 135.319 624.758 136.979 625.954 138.419C627.175 139.86 628.615 140.983 630.275 141.789C631.936 142.594 633.767 142.997 635.769 142.997C638.112 142.997 640.188 142.57 641.994 141.715C643.801 140.836 645.424 139.457 646.865 137.577L649.611 139.701C648.757 140.971 647.683 142.143 646.389 143.217C645.119 144.291 643.593 145.146 641.811 145.78C640.029 146.415 637.954 146.732 635.585 146.732ZM663.984 114.579V146H659.59V106.376H663.801L663.984 114.579ZM663.179 123.734L661.055 122.636C661.201 120.292 661.641 118.095 662.373 116.044C663.13 113.993 664.18 112.187 665.522 110.624C666.865 109.062 668.477 107.841 670.356 106.962C672.236 106.083 674.373 105.644 676.765 105.644C678.694 105.644 680.439 105.912 682.002 106.449C683.589 106.962 684.932 107.78 686.03 108.903C687.153 110.001 688.02 111.442 688.63 113.224C689.241 115.006 689.546 117.143 689.546 119.633V146H685.188V119.779C685.188 117.143 684.773 115.08 683.943 113.59C683.137 112.101 682.002 111.039 680.537 110.404C679.097 109.77 677.424 109.452 675.52 109.452C673.274 109.452 671.37 109.916 669.807 110.844C668.269 111.747 667.012 112.931 666.035 114.396C665.083 115.836 664.375 117.387 663.911 119.047C663.447 120.683 663.203 122.245 663.179 123.734ZM689.509 120.292L686.58 120.365C686.702 118.437 687.141 116.593 687.898 114.835C688.679 113.078 689.741 111.515 691.084 110.148C692.427 108.756 694.026 107.658 695.881 106.852C697.761 106.046 699.873 105.644 702.217 105.644C704.268 105.644 706.099 105.924 707.71 106.486C709.321 107.023 710.676 107.89 711.775 109.086C712.898 110.258 713.752 111.759 714.338 113.59C714.924 115.421 715.217 117.619 715.217 120.182V146H710.823V120.146C710.823 117.338 710.408 115.165 709.578 113.627C708.772 112.064 707.649 110.978 706.208 110.368C704.768 109.757 703.083 109.452 701.155 109.452C699.25 109.477 697.578 109.831 696.138 110.514C694.697 111.173 693.489 112.052 692.512 113.151C691.56 114.225 690.828 115.385 690.315 116.63C689.827 117.875 689.558 119.096 689.509 120.292ZM742.408 146.732C739.82 146.732 737.439 146.256 735.267 145.304C733.118 144.352 731.238 143.009 729.627 141.276C728.04 139.542 726.807 137.492 725.928 135.124C725.074 132.731 724.646 130.119 724.646 127.287V125.712C724.646 122.66 725.098 119.901 726.001 117.436C726.905 114.97 728.15 112.858 729.737 111.1C731.324 109.342 733.13 108 735.157 107.072C737.208 106.12 739.356 105.644 741.602 105.644C744.117 105.644 746.351 106.095 748.304 106.999C750.257 107.877 751.893 109.135 753.211 110.771C754.554 112.382 755.567 114.298 756.25 116.52C756.934 118.717 757.276 121.146 757.276 123.808V126.481H727.283V122.746H752.918V122.233C752.869 120.011 752.417 117.936 751.563 116.007C750.733 114.054 749.488 112.467 747.828 111.247C746.167 110.026 744.092 109.416 741.602 109.416C739.747 109.416 738.038 109.806 736.475 110.587C734.937 111.369 733.606 112.492 732.483 113.957C731.385 115.397 730.53 117.118 729.92 119.12C729.334 121.098 729.041 123.295 729.041 125.712V127.287C729.041 129.484 729.358 131.535 729.993 133.439C730.652 135.319 731.58 136.979 732.776 138.419C733.997 139.86 735.438 140.983 737.098 141.789C738.758 142.594 740.589 142.997 742.591 142.997C744.935 142.997 747.01 142.57 748.816 141.715C750.623 140.836 752.247 139.457 753.687 137.577L756.434 139.701C755.579 140.971 754.505 142.143 753.211 143.217C751.941 144.291 750.416 145.146 748.633 145.78C746.851 146.415 744.776 146.732 742.408 146.732ZM771.026 114.835V146H766.668V106.376H770.843L771.026 114.835ZM770.038 123.734L768.097 122.636C768.243 120.292 768.719 118.095 769.525 116.044C770.331 113.993 771.417 112.187 772.784 110.624C774.176 109.062 775.799 107.841 777.655 106.962C779.535 106.083 781.61 105.644 783.88 105.644C785.858 105.644 787.628 105.912 789.19 106.449C790.753 106.986 792.083 107.841 793.182 109.013C794.281 110.185 795.111 111.686 795.672 113.517C796.258 115.348 796.551 117.582 796.551 120.219V146H792.157V120.182C792.157 117.448 791.778 115.312 791.021 113.773C790.265 112.211 789.19 111.1 787.799 110.441C786.407 109.782 784.759 109.452 782.855 109.452C780.755 109.452 778.912 109.916 777.325 110.844C775.763 111.747 774.444 112.931 773.37 114.396C772.32 115.836 771.515 117.387 770.953 119.047C770.392 120.683 770.086 122.245 770.038 123.734ZM823.632 106.376V109.965H803.783V106.376H823.632ZM811.071 96.1953H815.429V136.369C815.429 138.2 815.673 139.579 816.161 140.507C816.649 141.435 817.284 142.057 818.065 142.375C818.847 142.692 819.689 142.851 820.592 142.851C821.251 142.851 821.886 142.814 822.497 142.741C823.107 142.643 823.656 142.545 824.145 142.448L824.328 146.146C823.791 146.317 823.095 146.452 822.24 146.549C821.386 146.671 820.531 146.732 819.677 146.732C817.992 146.732 816.503 146.427 815.209 145.817C813.915 145.182 812.902 144.108 812.169 142.594C811.437 141.056 811.071 138.969 811.071 136.332V96.1953Z" fill="black"/>
</svg>
