<svg width="1200" height="240" viewBox="0 0 1200 240" fill="none" xmlns="http://www.w3.org/2000/svg">
<rect width="1200" height="240" transform="translate(1200 240) rotate(-180)" fill="white"/>
<path d="M339.794 121.391L365.099 131.645V138.822L335.143 124.943V120.731L339.794 121.391ZM365.099 112.968L339.831 123.368L335.143 123.881V119.633L365.099 105.79V112.968ZM383.94 89.75V146H377.128V89.75H383.94ZM418.931 139.225V118.827C418.931 117.265 418.613 115.91 417.979 114.762C417.368 113.59 416.44 112.687 415.195 112.052C413.95 111.417 412.412 111.1 410.581 111.1C408.872 111.1 407.371 111.393 406.077 111.979C404.807 112.565 403.806 113.334 403.074 114.286C402.366 115.238 402.012 116.264 402.012 117.362H395.237C395.237 115.946 395.603 114.542 396.335 113.151C397.068 111.759 398.118 110.502 399.485 109.379C400.876 108.231 402.537 107.328 404.465 106.669C406.418 105.985 408.591 105.644 410.984 105.644C413.865 105.644 416.404 106.132 418.601 107.108C420.823 108.085 422.556 109.562 423.801 111.54C425.071 113.493 425.706 115.946 425.706 118.9V137.357C425.706 138.676 425.815 140.08 426.035 141.569C426.279 143.058 426.633 144.34 427.097 145.414V146H420.029C419.688 145.219 419.419 144.181 419.224 142.887C419.028 141.569 418.931 140.348 418.931 139.225ZM420.103 121.977L420.176 126.737H413.328C411.399 126.737 409.678 126.896 408.164 127.213C406.65 127.506 405.381 127.958 404.355 128.568C403.33 129.179 402.549 129.948 402.012 130.875C401.475 131.779 401.206 132.841 401.206 134.062C401.206 135.307 401.487 136.442 402.048 137.467C402.61 138.493 403.452 139.311 404.575 139.921C405.723 140.507 407.126 140.8 408.787 140.8C410.862 140.8 412.693 140.36 414.28 139.481C415.867 138.603 417.124 137.528 418.052 136.259C419.004 134.989 419.517 133.756 419.59 132.56L422.483 135.819C422.312 136.845 421.848 137.98 421.091 139.225C420.334 140.47 419.321 141.667 418.052 142.814C416.807 143.937 415.317 144.877 413.584 145.634C411.875 146.366 409.946 146.732 407.798 146.732C405.112 146.732 402.756 146.208 400.73 145.158C398.728 144.108 397.166 142.704 396.042 140.946C394.944 139.164 394.395 137.174 394.395 134.977C394.395 132.853 394.81 130.985 395.64 129.374C396.47 127.738 397.666 126.383 399.229 125.309C400.791 124.21 402.671 123.38 404.868 122.819C407.065 122.257 409.519 121.977 412.229 121.977H420.103ZM437.076 89.75H443.887V138.31L443.301 146H437.076V89.75ZM470.657 125.858V126.627C470.657 129.508 470.315 132.182 469.632 134.647C468.948 137.089 467.947 139.213 466.629 141.02C465.311 142.826 463.699 144.23 461.795 145.231C459.891 146.232 457.706 146.732 455.24 146.732C452.725 146.732 450.516 146.305 448.611 145.451C446.731 144.572 445.145 143.314 443.851 141.679C442.557 140.043 441.519 138.065 440.738 135.746C439.981 133.427 439.456 130.814 439.163 127.909V124.54C439.456 121.61 439.981 118.986 440.738 116.667C441.519 114.347 442.557 112.37 443.851 110.734C445.145 109.074 446.731 107.816 448.611 106.962C450.491 106.083 452.676 105.644 455.167 105.644C457.657 105.644 459.866 106.132 461.795 107.108C463.724 108.061 465.335 109.428 466.629 111.21C467.947 112.992 468.948 115.128 469.632 117.619C470.315 120.084 470.657 122.831 470.657 125.858ZM463.846 126.627V125.858C463.846 123.881 463.663 122.025 463.296 120.292C462.93 118.534 462.344 116.996 461.539 115.678C460.733 114.335 459.671 113.285 458.353 112.528C457.034 111.747 455.411 111.356 453.482 111.356C451.773 111.356 450.284 111.649 449.014 112.235C447.769 112.821 446.707 113.615 445.828 114.616C444.949 115.592 444.229 116.715 443.667 117.985C443.13 119.23 442.728 120.524 442.459 121.867V130.692C442.85 132.401 443.484 134.049 444.363 135.636C445.267 137.199 446.463 138.48 447.952 139.481C449.466 140.482 451.333 140.983 453.555 140.983C455.386 140.983 456.949 140.617 458.243 139.884C459.561 139.127 460.623 138.09 461.429 136.771C462.259 135.453 462.869 133.927 463.26 132.194C463.65 130.46 463.846 128.605 463.846 126.627ZM496.419 146.732C493.661 146.732 491.158 146.269 488.912 145.341C486.69 144.389 484.774 143.058 483.163 141.349C481.576 139.64 480.355 137.614 479.5 135.27C478.646 132.926 478.219 130.363 478.219 127.58V126.042C478.219 122.819 478.695 119.95 479.647 117.436C480.599 114.896 481.893 112.748 483.529 110.99C485.165 109.232 487.02 107.902 489.095 106.999C491.17 106.095 493.319 105.644 495.541 105.644C498.373 105.644 500.814 106.132 502.865 107.108C504.94 108.085 506.637 109.452 507.955 111.21C509.273 112.943 510.25 114.994 510.885 117.362C511.52 119.706 511.837 122.27 511.837 125.053V128.092H482.247V122.562H505.062V122.05C504.964 120.292 504.598 118.583 503.963 116.923C503.353 115.263 502.376 113.896 501.034 112.821C499.691 111.747 497.86 111.21 495.541 111.21C494.002 111.21 492.586 111.54 491.292 112.199C489.999 112.833 488.888 113.786 487.96 115.055C487.032 116.325 486.312 117.875 485.799 119.706C485.287 121.537 485.03 123.649 485.03 126.042V127.58C485.03 129.459 485.287 131.229 485.799 132.89C486.336 134.525 487.105 135.966 488.106 137.211C489.132 138.456 490.365 139.433 491.805 140.141C493.27 140.849 494.93 141.203 496.786 141.203C499.178 141.203 501.205 140.714 502.865 139.738C504.525 138.761 505.978 137.455 507.223 135.819L511.324 139.079C510.47 140.373 509.383 141.605 508.065 142.777C506.747 143.949 505.123 144.901 503.194 145.634C501.29 146.366 499.032 146.732 496.419 146.732ZM527.858 89.75V146H521.046V89.75H527.858ZM565.302 122.855L539.265 112.711V105.717L570.539 119.56V123.844L565.302 122.855ZM539.265 131.791L565.375 121.427L570.539 120.658V124.906L539.265 138.786V131.791Z" fill="#585858"/>
<path d="M615.289 146.732C612.53 146.732 610.027 146.269 607.781 145.341C605.56 144.389 603.643 143.058 602.032 141.349C600.445 139.64 599.224 137.614 598.37 135.27C597.515 132.926 597.088 130.363 597.088 127.58V126.042C597.088 122.819 597.564 119.95 598.516 117.436C599.468 114.896 600.762 112.748 602.398 110.99C604.034 109.232 605.889 107.902 607.964 106.999C610.04 106.095 612.188 105.644 614.41 105.644C617.242 105.644 619.683 106.132 621.734 107.108C623.809 108.085 625.506 109.452 626.824 111.21C628.143 112.943 629.119 114.994 629.754 117.362C630.389 119.706 630.706 122.27 630.706 125.053V128.092H601.116V122.562H623.931V122.05C623.833 120.292 623.467 118.583 622.833 116.923C622.222 115.263 621.246 113.896 619.903 112.821C618.56 111.747 616.729 111.21 614.41 111.21C612.872 111.21 611.456 111.54 610.162 112.199C608.868 112.833 607.757 113.786 606.829 115.055C605.901 116.325 605.181 117.875 604.668 119.706C604.156 121.537 603.899 123.649 603.899 126.042V127.58C603.899 129.459 604.156 131.229 604.668 132.89C605.206 134.525 605.975 135.966 606.976 137.211C608.001 138.456 609.234 139.433 610.674 140.141C612.139 140.849 613.799 141.203 615.655 141.203C618.047 141.203 620.074 140.714 621.734 139.738C623.394 138.761 624.847 137.455 626.092 135.819L630.193 139.079C629.339 140.373 628.252 141.605 626.934 142.777C625.616 143.949 623.992 144.901 622.063 145.634C620.159 146.366 617.901 146.732 615.289 146.732ZM646.727 89.75V146H639.916V89.75H646.727ZM674.796 146.732C672.038 146.732 669.535 146.269 667.289 145.341C665.067 144.389 663.151 143.058 661.54 141.349C659.953 139.64 658.732 137.614 657.877 135.27C657.023 132.926 656.596 130.363 656.596 127.58V126.042C656.596 122.819 657.072 119.95 658.024 117.436C658.976 114.896 660.27 112.748 661.906 110.99C663.542 109.232 665.397 107.902 667.472 106.999C669.547 106.095 671.696 105.644 673.917 105.644C676.75 105.644 679.191 106.132 681.242 107.108C683.317 108.085 685.014 109.452 686.332 111.21C687.65 112.943 688.627 114.994 689.262 117.362C689.896 119.706 690.214 122.27 690.214 125.053V128.092H660.624V122.562H683.439V122.05C683.341 120.292 682.975 118.583 682.34 116.923C681.73 115.263 680.753 113.896 679.411 112.821C678.068 111.747 676.237 111.21 673.917 111.21C672.379 111.21 670.963 111.54 669.669 112.199C668.375 112.833 667.265 113.786 666.337 115.055C665.409 116.325 664.689 117.875 664.176 119.706C663.664 121.537 663.407 123.649 663.407 126.042V127.58C663.407 129.459 663.664 131.229 664.176 132.89C664.713 134.525 665.482 135.966 666.483 137.211C667.509 138.456 668.742 139.433 670.182 140.141C671.647 140.849 673.307 141.203 675.163 141.203C677.555 141.203 679.582 140.714 681.242 139.738C682.902 138.761 684.354 137.455 685.6 135.819L689.701 139.079C688.847 140.373 687.76 141.605 686.442 142.777C685.124 143.949 683.5 144.901 681.571 145.634C679.667 146.366 677.409 146.732 674.796 146.732ZM705.612 114.25V146H698.801V106.376H705.246L705.612 114.25ZM704.221 124.687L701.071 124.577C701.096 121.867 701.45 119.364 702.133 117.069C702.817 114.75 703.83 112.736 705.173 111.027C706.516 109.318 708.188 108 710.19 107.072C712.192 106.12 714.511 105.644 717.148 105.644C719.003 105.644 720.712 105.912 722.275 106.449C723.837 106.962 725.192 107.78 726.34 108.903C727.487 110.026 728.378 111.466 729.013 113.224C729.648 114.982 729.965 117.106 729.965 119.596V146H723.19V119.926C723.19 117.851 722.836 116.19 722.128 114.945C721.445 113.7 720.468 112.797 719.199 112.235C717.929 111.649 716.44 111.356 714.731 111.356C712.729 111.356 711.057 111.71 709.714 112.418C708.371 113.126 707.297 114.103 706.491 115.348C705.686 116.593 705.1 118.021 704.733 119.633C704.392 121.22 704.221 122.904 704.221 124.687ZM729.892 120.951L725.351 122.343C725.375 120.17 725.729 118.083 726.413 116.081C727.121 114.079 728.134 112.296 729.453 110.734C730.795 109.171 732.443 107.938 734.396 107.035C736.35 106.107 738.583 105.644 741.098 105.644C743.222 105.644 745.102 105.924 746.738 106.486C748.398 107.047 749.79 107.914 750.913 109.086C752.06 110.233 752.927 111.71 753.513 113.517C754.099 115.324 754.392 117.472 754.392 119.962V146H747.58V119.889C747.58 117.667 747.226 115.946 746.518 114.726C745.834 113.48 744.858 112.614 743.588 112.125C742.343 111.613 740.854 111.356 739.121 111.356C737.631 111.356 736.313 111.613 735.166 112.125C734.018 112.638 733.054 113.346 732.272 114.25C731.491 115.128 730.893 116.142 730.478 117.289C730.087 118.437 729.892 119.657 729.892 120.951ZM781.838 146.732C779.08 146.732 776.577 146.269 774.331 145.341C772.109 144.389 770.193 143.058 768.582 141.349C766.995 139.64 765.774 137.614 764.919 135.27C764.065 132.926 763.638 130.363 763.638 127.58V126.042C763.638 122.819 764.114 119.95 765.066 117.436C766.018 114.896 767.312 112.748 768.948 110.99C770.583 109.232 772.439 107.902 774.514 106.999C776.589 106.095 778.738 105.644 780.959 105.644C783.792 105.644 786.233 106.132 788.284 107.108C790.359 108.085 792.056 109.452 793.374 111.21C794.692 112.943 795.669 114.994 796.304 117.362C796.938 119.706 797.256 122.27 797.256 125.053V128.092H767.666V122.562H790.481V122.05C790.383 120.292 790.017 118.583 789.382 116.923C788.772 115.263 787.795 113.896 786.453 112.821C785.11 111.747 783.279 111.21 780.959 111.21C779.421 111.21 778.005 111.54 776.711 112.199C775.417 112.833 774.307 113.786 773.379 115.055C772.451 116.325 771.731 117.875 771.218 119.706C770.706 121.537 770.449 123.649 770.449 126.042V127.58C770.449 129.459 770.706 131.229 771.218 132.89C771.755 134.525 772.524 135.966 773.525 137.211C774.551 138.456 775.784 139.433 777.224 140.141C778.689 140.849 780.349 141.203 782.205 141.203C784.597 141.203 786.624 140.714 788.284 139.738C789.944 138.761 791.396 137.455 792.642 135.819L796.743 139.079C795.889 140.373 794.802 141.605 793.484 142.777C792.166 143.949 790.542 144.901 788.613 145.634C786.709 146.366 784.451 146.732 781.838 146.732ZM812.691 114.835V146H805.916V106.376H812.325L812.691 114.835ZM811.08 124.687L808.26 124.577C808.284 121.867 808.687 119.364 809.468 117.069C810.25 114.75 811.348 112.736 812.764 111.027C814.18 109.318 815.865 108 817.818 107.072C819.795 106.12 821.98 105.644 824.373 105.644C826.326 105.644 828.084 105.912 829.646 106.449C831.209 106.962 832.54 107.792 833.638 108.939C834.761 110.087 835.616 111.576 836.202 113.407C836.788 115.214 837.081 117.423 837.081 120.036V146H830.269V119.962C830.269 117.887 829.964 116.227 829.354 114.982C828.743 113.712 827.852 112.797 826.68 112.235C825.508 111.649 824.068 111.356 822.359 111.356C820.674 111.356 819.136 111.71 817.745 112.418C816.377 113.126 815.193 114.103 814.192 115.348C813.216 116.593 812.447 118.021 811.885 119.633C811.348 121.22 811.08 122.904 811.08 124.687ZM864.71 106.376V111.576H843.287V106.376H864.71ZM850.538 96.7446H857.313V136.186C857.313 137.528 857.521 138.542 857.936 139.225C858.351 139.909 858.888 140.36 859.547 140.58C860.206 140.8 860.914 140.91 861.671 140.91C862.232 140.91 862.818 140.861 863.429 140.763C864.063 140.641 864.54 140.543 864.857 140.47L864.894 146C864.356 146.171 863.648 146.33 862.77 146.476C861.915 146.647 860.877 146.732 859.657 146.732C857.997 146.732 856.471 146.403 855.079 145.744C853.688 145.084 852.577 143.986 851.747 142.448C850.941 140.885 850.538 138.786 850.538 136.149V96.7446Z" fill="black"/>
</svg>
