<svg width="1200" height="240" viewBox="0 0 1200 240" fill="none" xmlns="http://www.w3.org/2000/svg">
<rect width="1200" height="240" transform="translate(1200 240) rotate(-180)" fill="white"/>
<path d="M399.814 121.391L425.12 131.645V138.822L395.164 124.943V120.731L399.814 121.391ZM425.12 112.968L399.851 123.368L395.164 123.881V119.633L425.12 105.79V112.968ZM443.375 113.993V161.234H436.563V106.376H442.789L443.375 113.993ZM470.071 125.858V126.627C470.071 129.508 469.729 132.182 469.046 134.647C468.362 137.089 467.361 139.213 466.043 141.02C464.749 142.826 463.15 144.23 461.246 145.231C459.341 146.232 457.156 146.732 454.69 146.732C452.176 146.732 449.954 146.317 448.025 145.487C446.097 144.657 444.461 143.449 443.118 141.862C441.775 140.275 440.701 138.371 439.896 136.149C439.114 133.927 438.577 131.425 438.284 128.642V124.54C438.577 121.61 439.126 118.986 439.932 116.667C440.738 114.347 441.8 112.37 443.118 110.734C444.461 109.074 446.084 107.816 447.989 106.962C449.893 106.083 452.09 105.644 454.581 105.644C457.071 105.644 459.28 106.132 461.209 107.108C463.138 108.061 464.761 109.428 466.08 111.21C467.398 112.992 468.387 115.128 469.046 117.619C469.729 120.084 470.071 122.831 470.071 125.858ZM463.26 126.627V125.858C463.26 123.881 463.052 122.025 462.637 120.292C462.222 118.534 461.575 116.996 460.696 115.678C459.842 114.335 458.743 113.285 457.4 112.528C456.058 111.747 454.458 111.356 452.603 111.356C450.894 111.356 449.405 111.649 448.135 112.235C446.89 112.821 445.828 113.615 444.949 114.616C444.07 115.592 443.35 116.715 442.789 117.985C442.251 119.23 441.849 120.524 441.58 121.867V131.352C442.068 133.061 442.752 134.672 443.631 136.186C444.51 137.675 445.682 138.883 447.146 139.811C448.611 140.714 450.455 141.166 452.676 141.166C454.507 141.166 456.082 140.788 457.4 140.031C458.743 139.25 459.842 138.188 460.696 136.845C461.575 135.502 462.222 133.964 462.637 132.23C463.052 130.473 463.26 128.605 463.26 126.627ZM505.282 122.855L479.244 112.711V105.717L510.519 119.56V123.844L505.282 122.855ZM479.244 131.791L505.355 121.427L510.519 120.658V124.906L479.244 138.786V131.791Z" fill="#585858"/>
<path d="M555.268 146.732C552.509 146.732 550.007 146.269 547.761 145.341C545.539 144.389 543.623 143.058 542.011 141.349C540.424 139.64 539.204 137.614 538.349 135.27C537.495 132.926 537.067 130.363 537.067 127.58V126.042C537.067 122.819 537.543 119.95 538.496 117.436C539.448 114.896 540.742 112.748 542.377 110.99C544.013 109.232 545.869 107.902 547.944 106.999C550.019 106.095 552.167 105.644 554.389 105.644C557.221 105.644 559.663 106.132 561.713 107.108C563.789 108.085 565.485 109.452 566.804 111.21C568.122 112.943 569.099 114.994 569.733 117.362C570.368 119.706 570.686 122.27 570.686 125.053V128.092H541.096V122.562H563.911V122.05C563.813 120.292 563.447 118.583 562.812 116.923C562.202 115.263 561.225 113.896 559.882 112.821C558.54 111.747 556.708 111.21 554.389 111.21C552.851 111.21 551.435 111.54 550.141 112.199C548.847 112.833 547.736 113.786 546.809 115.055C545.881 116.325 545.161 117.875 544.648 119.706C544.135 121.537 543.879 123.649 543.879 126.042V127.58C543.879 129.459 544.135 131.229 544.648 132.89C545.185 134.525 545.954 135.966 546.955 137.211C547.98 138.456 549.213 139.433 550.654 140.141C552.119 140.849 553.779 141.203 555.634 141.203C558.027 141.203 560.053 140.714 561.713 139.738C563.374 138.761 564.826 137.455 566.071 135.819L570.173 139.079C569.318 140.373 568.232 141.605 566.914 142.777C565.595 143.949 563.972 144.901 562.043 145.634C560.139 146.366 557.88 146.732 555.268 146.732ZM586.707 89.75V146H579.895V89.75H586.707ZM614.776 146.732C612.017 146.732 609.515 146.269 607.269 145.341C605.047 144.389 603.13 143.058 601.519 141.349C599.932 139.64 598.711 137.614 597.857 135.27C597.002 132.926 596.575 130.363 596.575 127.58V126.042C596.575 122.819 597.051 119.95 598.003 117.436C598.956 114.896 600.25 112.748 601.885 110.99C603.521 109.232 605.376 107.902 607.452 106.999C609.527 106.095 611.675 105.644 613.897 105.644C616.729 105.644 619.17 106.132 621.221 107.108C623.296 108.085 624.993 109.452 626.312 111.21C627.63 112.943 628.606 114.994 629.241 117.362C629.876 119.706 630.193 122.27 630.193 125.053V128.092H600.604V122.562H623.418V122.05C623.321 120.292 622.955 118.583 622.32 116.923C621.709 115.263 620.733 113.896 619.39 112.821C618.047 111.747 616.216 111.21 613.897 111.21C612.359 111.21 610.943 111.54 609.649 112.199C608.355 112.833 607.244 113.786 606.316 115.055C605.389 116.325 604.668 117.875 604.156 119.706C603.643 121.537 603.387 123.649 603.387 126.042V127.58C603.387 129.459 603.643 131.229 604.156 132.89C604.693 134.525 605.462 135.966 606.463 137.211C607.488 138.456 608.721 139.433 610.162 140.141C611.626 140.849 613.287 141.203 615.142 141.203C617.535 141.203 619.561 140.714 621.221 139.738C622.881 138.761 624.334 137.455 625.579 135.819L629.681 139.079C628.826 140.373 627.74 141.605 626.421 142.777C625.103 143.949 623.479 144.901 621.551 145.634C619.646 146.366 617.388 146.732 614.776 146.732ZM645.592 114.25V146H638.78V106.376H645.226L645.592 114.25ZM644.2 124.687L641.051 124.577C641.075 121.867 641.429 119.364 642.113 117.069C642.796 114.75 643.81 112.736 645.152 111.027C646.495 109.318 648.167 108 650.169 107.072C652.171 106.12 654.491 105.644 657.127 105.644C658.983 105.644 660.692 105.912 662.254 106.449C663.817 106.962 665.172 107.78 666.319 108.903C667.467 110.026 668.358 111.466 668.993 113.224C669.627 114.982 669.945 117.106 669.945 119.596V146H663.17V119.926C663.17 117.851 662.816 116.19 662.108 114.945C661.424 113.7 660.448 112.797 659.178 112.235C657.909 111.649 656.419 111.356 654.71 111.356C652.708 111.356 651.036 111.71 649.693 112.418C648.351 113.126 647.276 114.103 646.471 115.348C645.665 116.593 645.079 118.021 644.713 119.633C644.371 121.22 644.2 122.904 644.2 124.687ZM669.872 120.951L665.331 122.343C665.355 120.17 665.709 118.083 666.393 116.081C667.101 114.079 668.114 112.296 669.432 110.734C670.775 109.171 672.423 107.938 674.376 107.035C676.329 106.107 678.563 105.644 681.078 105.644C683.202 105.644 685.082 105.924 686.717 106.486C688.377 107.047 689.769 107.914 690.892 109.086C692.04 110.233 692.906 111.71 693.492 113.517C694.078 115.324 694.371 117.472 694.371 119.962V146H687.56V119.889C687.56 117.667 687.206 115.946 686.498 114.726C685.814 113.48 684.837 112.614 683.568 112.125C682.323 111.613 680.833 111.356 679.1 111.356C677.611 111.356 676.292 111.613 675.145 112.125C673.998 112.638 673.033 113.346 672.252 114.25C671.471 115.128 670.873 116.142 670.458 117.289C670.067 118.437 669.872 119.657 669.872 120.951ZM721.818 146.732C719.059 146.732 716.557 146.269 714.311 145.341C712.089 144.389 710.172 143.058 708.561 141.349C706.974 139.64 705.753 137.614 704.899 135.27C704.044 132.926 703.617 130.363 703.617 127.58V126.042C703.617 122.819 704.093 119.95 705.045 117.436C705.998 114.896 707.292 112.748 708.927 110.99C710.563 109.232 712.418 107.902 714.494 106.999C716.569 106.095 718.717 105.644 720.939 105.644C723.771 105.644 726.212 106.132 728.263 107.108C730.338 108.085 732.035 109.452 733.354 111.21C734.672 112.943 735.648 114.994 736.283 117.362C736.918 119.706 737.235 122.27 737.235 125.053V128.092H707.646V122.562H730.46V122.05C730.363 120.292 729.997 118.583 729.362 116.923C728.751 115.263 727.775 113.896 726.432 112.821C725.089 111.747 723.258 111.21 720.939 111.21C719.401 111.21 717.985 111.54 716.691 112.199C715.397 112.833 714.286 113.786 713.358 115.055C712.431 116.325 711.71 117.875 711.198 119.706C710.685 121.537 710.429 123.649 710.429 126.042V127.58C710.429 129.459 710.685 131.229 711.198 132.89C711.735 134.525 712.504 135.966 713.505 137.211C714.53 138.456 715.763 139.433 717.204 140.141C718.668 140.849 720.329 141.203 722.184 141.203C724.577 141.203 726.603 140.714 728.263 139.738C729.923 138.761 731.376 137.455 732.621 135.819L736.723 139.079C735.868 140.373 734.782 141.605 733.463 142.777C732.145 143.949 730.521 144.901 728.593 145.634C726.688 146.366 724.43 146.732 721.818 146.732ZM752.67 114.835V146H745.896V106.376H752.304L752.67 114.835ZM751.059 124.687L748.239 124.577C748.264 121.867 748.667 119.364 749.448 117.069C750.229 114.75 751.328 112.736 752.744 111.027C754.16 109.318 755.844 108 757.797 107.072C759.775 106.12 761.96 105.644 764.353 105.644C766.306 105.644 768.063 105.912 769.626 106.449C771.188 106.962 772.519 107.792 773.618 108.939C774.741 110.087 775.595 111.576 776.181 113.407C776.767 115.214 777.06 117.423 777.06 120.036V146H770.249V119.962C770.249 117.887 769.943 116.227 769.333 114.982C768.723 113.712 767.832 112.797 766.66 112.235C765.488 111.649 764.047 111.356 762.338 111.356C760.654 111.356 759.116 111.71 757.724 112.418C756.357 113.126 755.173 114.103 754.172 115.348C753.195 116.593 752.426 118.021 751.865 119.633C751.328 121.22 751.059 122.904 751.059 124.687ZM804.69 106.376V111.576H783.267V106.376H804.69ZM790.518 96.7446H797.292V136.186C797.292 137.528 797.5 138.542 797.915 139.225C798.33 139.909 798.867 140.36 799.526 140.58C800.186 140.8 800.894 140.91 801.65 140.91C802.212 140.91 802.798 140.861 803.408 140.763C804.043 140.641 804.519 140.543 804.836 140.47L804.873 146C804.336 146.171 803.628 146.33 802.749 146.476C801.895 146.647 800.857 146.732 799.636 146.732C797.976 146.732 796.45 146.403 795.059 145.744C793.667 145.084 792.556 143.986 791.726 142.448C790.92 140.885 790.518 138.786 790.518 136.149V96.7446Z" fill="black"/>
</svg>
