<svg width="1200" height="240" viewBox="0 0 1200 240" fill="none" xmlns="http://www.w3.org/2000/svg">
<rect width="1200" height="240" transform="translate(1200 240) rotate(-180)" fill="white"/>
<path d="M338.191 121.391L363.497 131.645V138.822L333.541 124.943V120.731L338.191 121.391ZM363.497 112.968L338.228 123.368L333.541 123.881V119.633L363.497 105.79V112.968ZM398.048 135.49C398.048 134.513 397.828 133.61 397.389 132.78C396.974 131.925 396.107 131.156 394.789 130.473C393.495 129.765 391.542 129.154 388.929 128.642C386.732 128.178 384.742 127.628 382.96 126.994C381.202 126.359 379.701 125.59 378.456 124.687C377.235 123.783 376.295 122.721 375.636 121.5C374.977 120.28 374.647 118.852 374.647 117.216C374.647 115.653 374.989 114.176 375.672 112.785C376.38 111.393 377.369 110.16 378.639 109.086C379.933 108.012 381.483 107.169 383.29 106.559C385.096 105.949 387.11 105.644 389.332 105.644C392.506 105.644 395.216 106.205 397.462 107.328C399.708 108.451 401.429 109.953 402.625 111.833C403.822 113.688 404.42 115.751 404.42 118.021H397.645C397.645 116.923 397.315 115.861 396.656 114.835C396.021 113.786 395.082 112.919 393.836 112.235C392.616 111.552 391.114 111.21 389.332 111.21C387.452 111.21 385.926 111.503 384.754 112.089C383.607 112.65 382.765 113.371 382.228 114.25C381.715 115.128 381.458 116.056 381.458 117.033C381.458 117.765 381.581 118.424 381.825 119.01C382.093 119.572 382.557 120.097 383.216 120.585C383.875 121.049 384.803 121.488 386 121.903C387.196 122.318 388.722 122.733 390.577 123.148C393.824 123.881 396.498 124.76 398.597 125.785C400.697 126.811 402.259 128.068 403.285 129.557C404.31 131.046 404.823 132.853 404.823 134.977C404.823 136.71 404.457 138.297 403.724 139.738C403.016 141.178 401.979 142.423 400.611 143.473C399.269 144.499 397.657 145.304 395.777 145.89C393.922 146.452 391.834 146.732 389.515 146.732C386.024 146.732 383.07 146.11 380.653 144.865C378.236 143.62 376.405 142.008 375.16 140.031C373.915 138.053 373.292 135.966 373.292 133.769H380.104C380.201 135.624 380.738 137.101 381.715 138.2C382.691 139.274 383.888 140.043 385.304 140.507C386.72 140.946 388.124 141.166 389.515 141.166C391.371 141.166 392.921 140.922 394.166 140.434C395.436 139.945 396.4 139.274 397.059 138.419C397.718 137.565 398.048 136.588 398.048 135.49ZM421.247 113.993V161.234H414.435V106.376H420.661L421.247 113.993ZM447.943 125.858V126.627C447.943 129.508 447.602 132.182 446.918 134.647C446.234 137.089 445.233 139.213 443.915 141.02C442.621 142.826 441.022 144.23 439.118 145.231C437.213 146.232 435.028 146.732 432.562 146.732C430.048 146.732 427.826 146.317 425.897 145.487C423.969 144.657 422.333 143.449 420.99 141.862C419.647 140.275 418.573 138.371 417.768 136.149C416.986 133.927 416.449 131.425 416.156 128.642V124.54C416.449 121.61 416.999 118.986 417.804 116.667C418.61 114.347 419.672 112.37 420.99 110.734C422.333 109.074 423.957 107.816 425.861 106.962C427.765 106.083 429.962 105.644 432.453 105.644C434.943 105.644 437.152 106.132 439.081 107.108C441.01 108.061 442.633 109.428 443.952 111.21C445.27 112.992 446.259 115.128 446.918 117.619C447.602 120.084 447.943 122.831 447.943 125.858ZM441.132 126.627V125.858C441.132 123.881 440.924 122.025 440.509 120.292C440.094 118.534 439.447 116.996 438.568 115.678C437.714 114.335 436.615 113.285 435.272 112.528C433.93 111.747 432.331 111.356 430.475 111.356C428.766 111.356 427.277 111.649 426.007 112.235C424.762 112.821 423.7 113.615 422.821 114.616C421.942 115.592 421.222 116.715 420.661 117.985C420.124 119.23 419.721 120.524 419.452 121.867V131.352C419.94 133.061 420.624 134.672 421.503 136.186C422.382 137.675 423.554 138.883 425.019 139.811C426.483 140.714 428.327 141.166 430.548 141.166C432.379 141.166 433.954 140.788 435.272 140.031C436.615 139.25 437.714 138.188 438.568 136.845C439.447 135.502 440.094 133.964 440.509 132.23C440.924 130.473 441.132 128.605 441.132 126.627ZM480.7 139.225V118.827C480.7 117.265 480.383 115.91 479.748 114.762C479.138 113.59 478.21 112.687 476.965 112.052C475.72 111.417 474.182 111.1 472.351 111.1C470.642 111.1 469.14 111.393 467.846 111.979C466.577 112.565 465.576 113.334 464.843 114.286C464.135 115.238 463.781 116.264 463.781 117.362H457.006C457.006 115.946 457.373 114.542 458.105 113.151C458.837 111.759 459.887 110.502 461.254 109.379C462.646 108.231 464.306 107.328 466.235 106.669C468.188 105.985 470.361 105.644 472.753 105.644C475.634 105.644 478.173 106.132 480.371 107.108C482.592 108.085 484.326 109.562 485.571 111.54C486.84 113.493 487.475 115.946 487.475 118.9V137.357C487.475 138.676 487.585 140.08 487.805 141.569C488.049 143.058 488.403 144.34 488.867 145.414V146H481.799C481.457 145.219 481.188 144.181 480.993 142.887C480.798 141.569 480.7 140.348 480.7 139.225ZM481.872 121.977L481.945 126.737H475.097C473.168 126.737 471.447 126.896 469.934 127.213C468.42 127.506 467.15 127.958 466.125 128.568C465.1 129.179 464.318 129.948 463.781 130.875C463.244 131.779 462.976 132.841 462.976 134.062C462.976 135.307 463.256 136.442 463.818 137.467C464.379 138.493 465.222 139.311 466.345 139.921C467.492 140.507 468.896 140.8 470.556 140.8C472.631 140.8 474.462 140.36 476.049 139.481C477.636 138.603 478.894 137.528 479.821 136.259C480.773 134.989 481.286 133.756 481.359 132.56L484.252 135.819C484.082 136.845 483.618 137.98 482.861 139.225C482.104 140.47 481.091 141.667 479.821 142.814C478.576 143.937 477.087 144.877 475.354 145.634C473.645 146.366 471.716 146.732 469.567 146.732C466.882 146.732 464.526 146.208 462.5 145.158C460.498 144.108 458.935 142.704 457.812 140.946C456.713 139.164 456.164 137.174 456.164 134.977C456.164 132.853 456.579 130.985 457.409 129.374C458.239 127.738 459.436 126.383 460.998 125.309C462.561 124.21 464.44 123.38 466.638 122.819C468.835 122.257 471.289 121.977 473.999 121.977H481.872ZM505.657 114.835V146H498.882V106.376H505.291L505.657 114.835ZM504.045 124.687L501.226 124.577C501.25 121.867 501.653 119.364 502.434 117.069C503.215 114.75 504.314 112.736 505.73 111.027C507.146 109.318 508.831 108 510.784 107.072C512.761 106.12 514.946 105.644 517.339 105.644C519.292 105.644 521.05 105.912 522.612 106.449C524.175 106.962 525.505 107.792 526.604 108.939C527.727 110.087 528.582 111.576 529.167 113.407C529.753 115.214 530.046 117.423 530.046 120.036V146H523.235V119.962C523.235 117.887 522.93 116.227 522.319 114.982C521.709 113.712 520.818 112.797 519.646 112.235C518.474 111.649 517.034 111.356 515.325 111.356C513.64 111.356 512.102 111.71 510.71 112.418C509.343 113.126 508.159 114.103 507.158 115.348C506.182 116.593 505.413 118.021 504.851 119.633C504.314 121.22 504.045 122.904 504.045 124.687ZM566.905 122.855L540.867 112.711V105.717L572.142 119.56V123.844L566.905 122.855ZM540.867 131.791L566.978 121.427L572.142 120.658V124.906L540.867 138.786V131.791Z" fill="#585858"/>
<path d="M616.891 146.732C614.132 146.732 611.63 146.269 609.384 145.341C607.162 144.389 605.246 143.058 603.634 141.349C602.047 139.64 600.827 137.614 599.972 135.27C599.118 132.926 598.69 130.363 598.69 127.58V126.042C598.69 122.819 599.167 119.95 600.119 117.436C601.071 114.896 602.365 112.748 604 110.99C605.636 109.232 607.492 107.902 609.567 106.999C611.642 106.095 613.791 105.644 616.012 105.644C618.844 105.644 621.286 106.132 623.336 107.108C625.412 108.085 627.108 109.452 628.427 111.21C629.745 112.943 630.722 114.994 631.356 117.362C631.991 119.706 632.309 122.27 632.309 125.053V128.092H602.719V122.562H625.534V122.05C625.436 120.292 625.07 118.583 624.435 116.923C623.825 115.263 622.848 113.896 621.505 112.821C620.163 111.747 618.332 111.21 616.012 111.21C614.474 111.21 613.058 111.54 611.764 112.199C610.47 112.833 609.359 113.786 608.432 115.055C607.504 116.325 606.784 117.875 606.271 119.706C605.758 121.537 605.502 123.649 605.502 126.042V127.58C605.502 129.459 605.758 131.229 606.271 132.89C606.808 134.525 607.577 135.966 608.578 137.211C609.604 138.456 610.836 139.433 612.277 140.141C613.742 140.849 615.402 141.203 617.257 141.203C619.65 141.203 621.676 140.714 623.336 139.738C624.997 138.761 626.449 137.455 627.694 135.819L631.796 139.079C630.941 140.373 629.855 141.605 628.537 142.777C627.218 143.949 625.595 144.901 623.666 145.634C621.762 146.366 619.503 146.732 616.891 146.732ZM648.33 89.75V146H641.518V89.75H648.33ZM676.399 146.732C673.64 146.732 671.138 146.269 668.892 145.341C666.67 144.389 664.753 143.058 663.142 141.349C661.555 139.64 660.334 137.614 659.48 135.27C658.625 132.926 658.198 130.363 658.198 127.58V126.042C658.198 122.819 658.674 119.95 659.626 117.436C660.579 114.896 661.873 112.748 663.508 110.99C665.144 109.232 667 107.902 669.075 106.999C671.15 106.095 673.298 105.644 675.52 105.644C678.352 105.644 680.793 106.132 682.844 107.108C684.919 108.085 686.616 109.452 687.935 111.21C689.253 112.943 690.229 114.994 690.864 117.362C691.499 119.706 691.816 122.27 691.816 125.053V128.092H662.227V122.562H685.042V122.05C684.944 120.292 684.578 118.583 683.943 116.923C683.333 115.263 682.356 113.896 681.013 112.821C679.67 111.747 677.839 111.21 675.52 111.21C673.982 111.21 672.566 111.54 671.272 112.199C669.978 112.833 668.867 113.786 667.939 115.055C667.012 116.325 666.292 117.875 665.779 119.706C665.266 121.537 665.01 123.649 665.01 126.042V127.58C665.01 129.459 665.266 131.229 665.779 132.89C666.316 134.525 667.085 135.966 668.086 137.211C669.111 138.456 670.344 139.433 671.785 140.141C673.25 140.849 674.91 141.203 676.765 141.203C679.158 141.203 681.184 140.714 682.844 139.738C684.504 138.761 685.957 137.455 687.202 135.819L691.304 139.079C690.449 140.373 689.363 141.605 688.044 142.777C686.726 143.949 685.103 144.901 683.174 145.634C681.27 146.366 679.011 146.732 676.399 146.732ZM707.215 114.25V146H700.403V106.376H706.849L707.215 114.25ZM705.823 124.687L702.674 124.577C702.698 121.867 703.052 119.364 703.736 117.069C704.419 114.75 705.433 112.736 706.775 111.027C708.118 109.318 709.791 108 711.792 107.072C713.794 106.12 716.114 105.644 718.75 105.644C720.606 105.644 722.315 105.912 723.877 106.449C725.44 106.962 726.795 107.78 727.942 108.903C729.09 110.026 729.981 111.466 730.616 113.224C731.25 114.982 731.568 117.106 731.568 119.596V146H724.793V119.926C724.793 117.851 724.439 116.19 723.731 114.945C723.047 113.7 722.071 112.797 720.801 112.235C719.532 111.649 718.042 111.356 716.333 111.356C714.332 111.356 712.659 111.71 711.316 112.418C709.974 113.126 708.899 114.103 708.094 115.348C707.288 116.593 706.702 118.021 706.336 119.633C705.994 121.22 705.823 122.904 705.823 124.687ZM731.495 120.951L726.954 122.343C726.978 120.17 727.332 118.083 728.016 116.081C728.724 114.079 729.737 112.296 731.055 110.734C732.398 109.171 734.046 107.938 735.999 107.035C737.952 106.107 740.186 105.644 742.701 105.644C744.825 105.644 746.705 105.924 748.34 106.486C750 107.047 751.392 107.914 752.515 109.086C753.663 110.233 754.529 111.71 755.115 113.517C755.701 115.324 755.994 117.472 755.994 119.962V146H749.183V119.889C749.183 117.667 748.829 115.946 748.121 114.726C747.437 113.48 746.46 112.614 745.191 112.125C743.946 111.613 742.457 111.356 740.723 111.356C739.234 111.356 737.916 111.613 736.768 112.125C735.621 112.638 734.656 113.346 733.875 114.25C733.094 115.128 732.496 116.142 732.081 117.289C731.69 118.437 731.495 119.657 731.495 120.951ZM783.441 146.732C780.682 146.732 778.18 146.269 775.934 145.341C773.712 144.389 771.795 143.058 770.184 141.349C768.597 139.64 767.376 137.614 766.522 135.27C765.667 132.926 765.24 130.363 765.24 127.58V126.042C765.24 122.819 765.716 119.95 766.668 117.436C767.621 114.896 768.915 112.748 770.55 110.99C772.186 109.232 774.042 107.902 776.117 106.999C778.192 106.095 780.34 105.644 782.562 105.644C785.394 105.644 787.835 106.132 789.886 107.108C791.961 108.085 793.658 109.452 794.977 111.21C796.295 112.943 797.271 114.994 797.906 117.362C798.541 119.706 798.858 122.27 798.858 125.053V128.092H769.269V122.562H792.083V122.05C791.986 120.292 791.62 118.583 790.985 116.923C790.375 115.263 789.398 113.896 788.055 112.821C786.712 111.747 784.881 111.21 782.562 111.21C781.024 111.21 779.608 111.54 778.314 112.199C777.02 112.833 775.909 113.786 774.981 115.055C774.054 116.325 773.333 117.875 772.821 119.706C772.308 121.537 772.052 123.649 772.052 126.042V127.58C772.052 129.459 772.308 131.229 772.821 132.89C773.358 134.525 774.127 135.966 775.128 137.211C776.153 138.456 777.386 139.433 778.827 140.141C780.292 140.849 781.952 141.203 783.807 141.203C786.2 141.203 788.226 140.714 789.886 139.738C791.546 138.761 792.999 137.455 794.244 135.819L798.346 139.079C797.491 140.373 796.405 141.605 795.086 142.777C793.768 143.949 792.145 144.901 790.216 145.634C788.312 146.366 786.053 146.732 783.441 146.732ZM814.293 114.835V146H807.519V106.376H813.927L814.293 114.835ZM812.682 124.687L809.862 124.577C809.887 121.867 810.29 119.364 811.071 117.069C811.852 114.75 812.951 112.736 814.367 111.027C815.783 109.318 817.467 108 819.42 107.072C821.398 106.12 823.583 105.644 825.976 105.644C827.929 105.644 829.687 105.912 831.249 106.449C832.812 106.962 834.142 107.792 835.241 108.939C836.364 110.087 837.218 111.576 837.804 113.407C838.39 115.214 838.683 117.423 838.683 120.036V146H831.872V119.962C831.872 117.887 831.566 116.227 830.956 114.982C830.346 113.712 829.455 112.797 828.283 112.235C827.111 111.649 825.67 111.356 823.961 111.356C822.277 111.356 820.739 111.71 819.347 112.418C817.98 113.126 816.796 114.103 815.795 115.348C814.818 116.593 814.049 118.021 813.488 119.633C812.951 121.22 812.682 122.904 812.682 124.687ZM866.313 106.376V111.576H844.89V106.376H866.313ZM852.141 96.7446H858.916V136.186C858.916 137.528 859.123 138.542 859.538 139.225C859.953 139.909 860.49 140.36 861.149 140.58C861.809 140.8 862.517 140.91 863.273 140.91C863.835 140.91 864.421 140.861 865.031 140.763C865.666 140.641 866.142 140.543 866.459 140.47L866.496 146C865.959 146.171 865.251 146.33 864.372 146.476C863.518 146.647 862.48 146.732 861.259 146.732C859.599 146.732 858.073 146.403 856.682 145.744C855.29 145.084 854.179 143.986 853.349 142.448C852.543 140.885 852.141 138.786 852.141 136.149V96.7446Z" fill="black"/>
</svg>
