<svg width="170" height="82" viewBox="0 0 170 82" fill="none" xmlns="http://www.w3.org/2000/svg">
<rect y="3" width="170" height="74" rx="4" fill="white"/>
<line x1="170" y1="27.5" y2="27.5" stroke="#D9D9D9"/>
<line x1="170" y1="53.5" y2="53.5" stroke="#D9D9D9"/>
<path d="M83.2188 65.7969H84.1719C84.7552 65.7969 85.2422 65.6979 85.6328 65.5C86.0286 65.2969 86.3255 65.0286 86.5234 64.6953C86.7266 64.362 86.8281 63.9922 86.8281 63.5859C86.8281 63.1276 86.7422 62.7266 86.5703 62.3828C86.3984 62.0339 86.1354 61.763 85.7812 61.5703C85.4323 61.3724 84.9844 61.2734 84.4375 61.2734C83.9583 61.2734 83.5312 61.3672 83.1562 61.5547C82.7812 61.7422 82.4844 62.0104 82.2656 62.3594C82.0469 62.7083 81.9375 63.125 81.9375 63.6094H81.0078C81.0078 62.9896 81.1562 62.4453 81.4531 61.9766C81.75 61.5026 82.1589 61.1328 82.6797 60.8672C83.2005 60.6016 83.7865 60.4688 84.4375 60.4688C85.1094 60.4688 85.6927 60.5911 86.1875 60.8359C86.6875 61.0807 87.0729 61.4375 87.3438 61.9062C87.6198 62.375 87.7578 62.9453 87.7578 63.6172C87.7578 63.9609 87.6823 64.2995 87.5312 64.6328C87.3854 64.9661 87.1667 65.2682 86.875 65.5391C86.5833 65.8047 86.2214 66.0182 85.7891 66.1797C85.3568 66.3411 84.8542 66.4219 84.2812 66.4219H83.2188V65.7969ZM83.2188 66.6016V65.9844H84.2812C84.9323 65.9844 85.4896 66.0599 85.9531 66.2109C86.4167 66.3568 86.7969 66.5651 87.0938 66.8359C87.3958 67.1016 87.6172 67.4115 87.7578 67.7656C87.8984 68.1198 87.9688 68.5 87.9688 68.9062C87.9688 69.4271 87.8828 69.888 87.7109 70.2891C87.5391 70.6901 87.2943 71.0312 86.9766 71.3125C86.6641 71.5885 86.2943 71.7995 85.8672 71.9453C85.4453 72.0859 84.9818 72.1562 84.4766 72.1562C84.0182 72.1562 83.5703 72.0885 83.1328 71.9531C82.7005 71.8177 82.3099 71.6172 81.9609 71.3516C81.6172 71.0807 81.3438 70.7422 81.1406 70.3359C80.9375 69.9245 80.8359 69.4505 80.8359 68.9141H81.7656C81.7656 69.3932 81.8802 69.8177 82.1094 70.1875C82.3385 70.5521 82.6562 70.8385 83.0625 71.0469C83.474 71.25 83.9453 71.3516 84.4766 71.3516C85.013 71.3516 85.4714 71.2604 85.8516 71.0781C86.237 70.8906 86.5312 70.6172 86.7344 70.2578C86.9375 69.8984 87.0391 69.4583 87.0391 68.9375C87.0391 68.3906 86.9167 67.9453 86.6719 67.6016C86.4323 67.2578 86.0964 67.0052 85.6641 66.8438C85.237 66.6823 84.7396 66.6016 84.1719 66.6016H83.2188Z" fill="#23B59A"/>
<path d="M88.2578 45.1953V46H81.1406V45.2734L84.8672 41.0469C85.3307 40.5208 85.7005 40.0599 85.9766 39.6641C86.2526 39.263 86.4505 38.8984 86.5703 38.5703C86.6953 38.237 86.7578 37.9141 86.7578 37.6016C86.7578 37.1432 86.6667 36.7396 86.4844 36.3906C86.3073 36.0417 86.0417 35.7682 85.6875 35.5703C85.3333 35.3724 84.8958 35.2734 84.375 35.2734C83.8542 35.2734 83.401 35.3854 83.0156 35.6094C82.6302 35.8333 82.3333 36.1458 82.125 36.5469C81.9219 36.9427 81.8203 37.3932 81.8203 37.8984H80.8906C80.8906 37.2734 81.0286 36.7005 81.3047 36.1797C81.5859 35.6589 81.987 35.2448 82.5078 34.9375C83.0286 34.625 83.651 34.4688 84.375 34.4688C85.0625 34.4688 85.6536 34.5911 86.1484 34.8359C86.6432 35.0755 87.0234 35.4219 87.2891 35.875C87.5599 36.3281 87.6953 36.875 87.6953 37.5156C87.6953 37.8594 87.6328 38.2057 87.5078 38.5547C87.388 38.9036 87.2214 39.2526 87.0078 39.6016C86.7995 39.9453 86.5599 40.2865 86.2891 40.625C86.0234 40.9635 85.7448 41.2969 85.4531 41.625L82.2812 45.1953H88.2578Z" fill="#23B59A"/>
<path d="M85.4844 9.57812V21H84.5547V10.7578L81.4609 11.9062V11.0234L85.3281 9.57812H85.4844Z" fill="#23B59A"/>
</svg>
