<svg width="170" height="64" viewBox="0 0 170 64" fill="none" xmlns="http://www.w3.org/2000/svg">
<rect width="170" height="64" rx="4" fill="white"/>
<line x1="57.5" y1="2.21972e-08" x2="57.5" y2="64" stroke="#D9D9D9"/>
<line x1="117.5" y1="2.21972e-08" x2="117.5" y2="64" stroke="#D9D9D9"/>
<path d="M30.7305 23.7227V38H29.5684V25.1973L25.7012 26.6328V25.5293L30.5352 23.7227H30.7305Z" fill="#23B59A"/>
<path d="M91.1973 36.9941V38H82.3008V37.0918L86.959 31.8086C87.5384 31.151 88.0007 30.5749 88.3457 30.0801C88.6908 29.5788 88.9382 29.123 89.0879 28.7129C89.2441 28.2962 89.3223 27.8926 89.3223 27.502C89.3223 26.929 89.2083 26.4245 88.9805 25.9883C88.7591 25.5521 88.4271 25.2103 87.9844 24.9629C87.5417 24.7155 86.9948 24.5918 86.3438 24.5918C85.6927 24.5918 85.1263 24.7318 84.6445 25.0117C84.1628 25.2917 83.7917 25.6823 83.5312 26.1836C83.2773 26.6784 83.1504 27.2415 83.1504 27.873H81.9883C81.9883 27.0918 82.1608 26.3757 82.5059 25.7246C82.8574 25.0736 83.3587 24.556 84.0098 24.1719C84.6608 23.7812 85.4388 23.5859 86.3438 23.5859C87.2031 23.5859 87.9421 23.7389 88.5605 24.0449C89.179 24.3444 89.6543 24.7773 89.9863 25.3438C90.3249 25.9102 90.4941 26.5938 90.4941 27.3945C90.4941 27.8242 90.416 28.2572 90.2598 28.6934C90.11 29.1296 89.9017 29.5658 89.6348 30.002C89.3743 30.4316 89.0749 30.8581 88.7363 31.2812C88.4043 31.7044 88.056 32.1211 87.6914 32.5312L83.7266 36.9941H91.1973Z" fill="#23B59A"/>
<path d="M144.898 30.2461H146.09C146.819 30.2461 147.428 30.1224 147.916 29.875C148.411 29.6211 148.782 29.2858 149.029 28.8691C149.283 28.4525 149.41 27.9902 149.41 27.4824C149.41 26.9095 149.303 26.4082 149.088 25.9785C148.873 25.5423 148.544 25.2038 148.102 24.9629C147.665 24.7155 147.105 24.5918 146.422 24.5918C145.823 24.5918 145.289 24.709 144.82 24.9434C144.352 25.1777 143.98 25.513 143.707 25.9492C143.434 26.3854 143.297 26.9062 143.297 27.5117H142.135C142.135 26.737 142.32 26.0566 142.691 25.4707C143.062 24.8783 143.574 24.416 144.225 24.084C144.876 23.752 145.608 23.5859 146.422 23.5859C147.262 23.5859 147.991 23.7389 148.609 24.0449C149.234 24.3509 149.716 24.7969 150.055 25.3828C150.4 25.9688 150.572 26.6816 150.572 27.5215C150.572 27.9512 150.478 28.3743 150.289 28.791C150.107 29.2077 149.833 29.5853 149.469 29.9238C149.104 30.2559 148.652 30.5228 148.111 30.7246C147.571 30.9264 146.943 31.0273 146.227 31.0273H144.898V30.2461ZM144.898 31.252V30.4805H146.227C147.04 30.4805 147.737 30.5749 148.316 30.7637C148.896 30.946 149.371 31.2064 149.742 31.5449C150.12 31.877 150.396 32.2643 150.572 32.707C150.748 33.1497 150.836 33.625 150.836 34.1328C150.836 34.7839 150.729 35.36 150.514 35.8613C150.299 36.3626 149.993 36.7891 149.596 37.1406C149.205 37.4857 148.743 37.7493 148.209 37.9316C147.682 38.1074 147.102 38.1953 146.471 38.1953C145.898 38.1953 145.338 38.1107 144.791 37.9414C144.251 37.7721 143.762 37.5215 143.326 37.1895C142.896 36.8509 142.555 36.4277 142.301 35.9199C142.047 35.4056 141.92 34.8132 141.92 34.1426H143.082C143.082 34.7415 143.225 35.2721 143.512 35.7344C143.798 36.1901 144.195 36.5482 144.703 36.8086C145.217 37.0625 145.807 37.1895 146.471 37.1895C147.141 37.1895 147.714 37.0755 148.189 36.8477C148.671 36.6133 149.039 36.2715 149.293 35.8223C149.547 35.373 149.674 34.8229 149.674 34.1719C149.674 33.4883 149.521 32.9316 149.215 32.502C148.915 32.0723 148.495 31.7565 147.955 31.5547C147.421 31.3529 146.799 31.252 146.09 31.252H144.898Z" fill="#23B59A"/>
</svg>
