<svg width="163" height="64" viewBox="0 0 163 64" fill="none" xmlns="http://www.w3.org/2000/svg">
<rect width="163" height="64" rx="4" fill="white"/>
<line x1="82" y1="1.47981e-08" x2="82" y2="64" stroke="#D9D9D9"/>
<path d="M42.9805 23.7227V38H41.8184V25.1973L37.9512 26.6328V25.5293L42.7852 23.7227H42.9805Z" fill="#23B59A"/>
<path d="M128.447 36.9941V38H119.551V37.0918L124.209 31.8086C124.788 31.151 125.251 30.5749 125.596 30.0801C125.941 29.5788 126.188 29.123 126.338 28.7129C126.494 28.2962 126.572 27.8926 126.572 27.502C126.572 26.929 126.458 26.4245 126.23 25.9883C126.009 25.5521 125.677 25.2103 125.234 24.9629C124.792 24.7155 124.245 24.5918 123.594 24.5918C122.943 24.5918 122.376 24.7318 121.895 25.0117C121.413 25.2917 121.042 25.6823 120.781 26.1836C120.527 26.6784 120.4 27.2415 120.4 27.873H119.238C119.238 27.0918 119.411 26.3757 119.756 25.7246C120.107 25.0736 120.609 24.556 121.26 24.1719C121.911 23.7812 122.689 23.5859 123.594 23.5859C124.453 23.5859 125.192 23.7389 125.811 24.0449C126.429 24.3444 126.904 24.7773 127.236 25.3438C127.575 25.9102 127.744 26.5938 127.744 27.3945C127.744 27.8242 127.666 28.2572 127.51 28.6934C127.36 29.1296 127.152 29.5658 126.885 30.002C126.624 30.4316 126.325 30.8581 125.986 31.2812C125.654 31.7044 125.306 32.1211 124.941 32.5312L120.977 36.9941H128.447Z" fill="#23B59A"/>
</svg>
