<svg width="141" height="64" viewBox="0 0 141 64" fill="none" xmlns="http://www.w3.org/2000/svg">
<line x1="28.5" y1="2.21972e-08" x2="28.5" y2="64" stroke="#D9D9D9"/>
<line x1="71.5" y1="2.21972e-08" x2="71.5" y2="64" stroke="#D9D9D9"/>
<line x1="111.5" y1="2.21972e-08" x2="111.5" y2="64" stroke="#D9D9D9"/>
<path d="M137.686 33.4102V34.4062H127.617V33.7324L134.189 23.7812H135.166L133.779 26.1934L129.043 33.4102H137.686ZM135.469 23.7812V38H134.307V23.7812H135.469Z" fill="#23B59A"/>
<path d="M90.8984 30.2461H92.0898C92.819 30.2461 93.4277 30.1224 93.916 29.875C94.4108 29.6211 94.7819 29.2858 95.0293 28.8691C95.2832 28.4525 95.4102 27.9902 95.4102 27.4824C95.4102 26.9095 95.3027 26.4082 95.0879 25.9785C94.873 25.5423 94.5443 25.2038 94.1016 24.9629C93.6654 24.7155 93.1055 24.5918 92.4219 24.5918C91.8229 24.5918 91.2891 24.709 90.8203 24.9434C90.3516 25.1777 89.9805 25.513 89.707 25.9492C89.4336 26.3854 89.2969 26.9062 89.2969 27.5117H88.1348C88.1348 26.737 88.3203 26.0566 88.6914 25.4707C89.0625 24.8783 89.5736 24.416 90.2246 24.084C90.8757 23.752 91.6081 23.5859 92.4219 23.5859C93.2617 23.5859 93.9909 23.7389 94.6094 24.0449C95.2344 24.3509 95.7161 24.7969 96.0547 25.3828C96.3997 25.9688 96.5723 26.6816 96.5723 27.5215C96.5723 27.9512 96.4779 28.3743 96.2891 28.791C96.1068 29.2077 95.8333 29.5853 95.4688 29.9238C95.1042 30.2559 94.6517 30.5228 94.1113 30.7246C93.571 30.9264 92.9427 31.0273 92.2266 31.0273H90.8984V30.2461ZM90.8984 31.252V30.4805H92.2266C93.0404 30.4805 93.737 30.5749 94.3164 30.7637C94.8958 30.946 95.3711 31.2064 95.7422 31.5449C96.1198 31.877 96.3965 32.2643 96.5723 32.707C96.748 33.1497 96.8359 33.625 96.8359 34.1328C96.8359 34.7839 96.7285 35.36 96.5137 35.8613C96.2988 36.3626 95.9928 36.7891 95.5957 37.1406C95.2051 37.4857 94.7428 37.7493 94.209 37.9316C93.6816 38.1074 93.1022 38.1953 92.4707 38.1953C91.8978 38.1953 91.3379 38.1107 90.791 37.9414C90.2507 37.7721 89.7624 37.5215 89.3262 37.1895C88.8965 36.8509 88.5547 36.4277 88.3008 35.9199C88.0469 35.4056 87.9199 34.8132 87.9199 34.1426H89.082C89.082 34.7415 89.2253 35.2721 89.5117 35.7344C89.7982 36.1901 90.1953 36.5482 90.7031 36.8086C91.2174 37.0625 91.8066 37.1895 92.4707 37.1895C93.1413 37.1895 93.7142 37.0755 94.1895 36.8477C94.6712 36.6133 95.0391 36.2715 95.293 35.8223C95.5469 35.373 95.6738 34.8229 95.6738 34.1719C95.6738 33.4883 95.5208 32.9316 95.2148 32.502C94.9154 32.0723 94.4954 31.7565 93.9551 31.5547C93.4212 31.3529 92.7995 31.252 92.0898 31.252H90.8984Z" fill="#23B59A"/>
<path d="M55.1973 36.9941V38H46.3008V37.0918L50.959 31.8086C51.5384 31.151 52.0007 30.5749 52.3457 30.0801C52.6908 29.5788 52.9382 29.123 53.0879 28.7129C53.2441 28.2962 53.3223 27.8926 53.3223 27.502C53.3223 26.929 53.2083 26.4245 52.9805 25.9883C52.7591 25.5521 52.4271 25.2103 51.9844 24.9629C51.5417 24.7155 50.9948 24.5918 50.3438 24.5918C49.6927 24.5918 49.1263 24.7318 48.6445 25.0117C48.1628 25.2917 47.7917 25.6823 47.5312 26.1836C47.2773 26.6784 47.1504 27.2415 47.1504 27.873H45.9883C45.9883 27.0918 46.1608 26.3757 46.5059 25.7246C46.8574 25.0736 47.3587 24.556 48.0098 24.1719C48.6608 23.7812 49.4388 23.5859 50.3438 23.5859C51.2031 23.5859 51.9421 23.7389 52.5605 24.0449C53.179 24.3444 53.6543 24.7773 53.9863 25.3438C54.3249 25.9102 54.4941 26.5938 54.4941 27.3945C54.4941 27.8242 54.416 28.2572 54.2598 28.6934C54.11 29.1296 53.9017 29.5658 53.6348 30.002C53.3743 30.4316 53.0749 30.8581 52.7363 31.2812C52.4043 31.7044 52.056 32.1211 51.6914 32.5312L47.7266 36.9941H55.1973Z" fill="#23B59A"/>
<path d="M9.73047 23.7227V38H8.56836V25.1973L4.70117 26.6328V25.5293L9.53516 23.7227H9.73047Z" fill="#23B59A"/>
</svg>
