<svg width="27" height="27" viewBox="0 0 27 27" fill="none" xmlns="http://www.w3.org/2000/svg">
<path d="M20.25 18.5625H5.0625C4.55625 18.5625 4.21875 18.9 4.21875 19.4062V23.625C4.21875 24.1313 4.55625 24.4688 5.0625 24.4688H20.25C20.7563 24.4688 21.0938 24.1313 21.0938 23.625V19.4062C21.0938 18.9 20.7563 18.5625 20.25 18.5625Z" stroke="#222222" stroke-width="2" stroke-miterlimit="10" stroke-linecap="round" stroke-linejoin="round"/>
<path d="M8.4375 18.5625H5.0625V16.875C5.0625 16.3687 5.4 16.0312 5.90625 16.0312H7.59375C8.1 16.0312 8.4375 16.3687 8.4375 16.875V18.5625Z" stroke="#222222" stroke-width="2" stroke-miterlimit="10" stroke-linecap="round" stroke-linejoin="round"/>
<path d="M21.0938 12.6562H11.8125C11.3062 12.6562 10.9688 12.9937 10.9688 13.5V17.7188C10.9688 18.225 11.3062 18.5625 11.8125 18.5625H21.0938C21.6 18.5625 21.9375 18.225 21.9375 17.7188V13.5C21.9375 12.9937 21.6 12.6562 21.0938 12.6562Z" stroke="#222222" stroke-width="2" stroke-miterlimit="10" stroke-linecap="round" stroke-linejoin="round"/>
<path d="M21.0938 12.6562H17.7188V10.9688C17.7188 10.4625 18.0562 10.125 18.5625 10.125H20.25C20.7563 10.125 21.0938 10.4625 21.0938 10.9688V12.6562Z" stroke="#222222" stroke-width="2" stroke-miterlimit="10" stroke-linecap="round" stroke-linejoin="round"/>
<path d="M14.3438 6.75H5.0625C4.55625 6.75 4.21875 7.0875 4.21875 7.59375V11.8125C4.21875 12.3188 4.55625 12.6562 5.0625 12.6562H14.3438C14.85 12.6562 15.1875 12.3188 15.1875 11.8125V7.59375C15.1875 7.0875 14.85 6.75 14.3438 6.75Z" stroke="#222222" stroke-width="2" stroke-miterlimit="10" stroke-linecap="round" stroke-linejoin="round"/>
<path d="M8.4375 6.75H5.0625V5.0625C5.0625 4.55625 5.4 4.21875 5.90625 4.21875H7.59375C8.1 4.21875 8.4375 4.55625 8.4375 5.0625V6.75Z" stroke="#222222" stroke-width="2" stroke-miterlimit="10" stroke-linecap="round" stroke-linejoin="round"/>
<path d="M14.3438 6.75H10.9688V5.0625C10.9688 4.55625 11.3062 4.21875 11.8125 4.21875H13.5C14.0063 4.21875 14.3438 4.55625 14.3438 5.0625V6.75Z" stroke="#222222" stroke-width="2" stroke-miterlimit="10" stroke-linecap="round" stroke-linejoin="round"/>
</svg>
