<svg width="32" height="22" viewBox="0 0 32 22" fill="none" xmlns="http://www.w3.org/2000/svg">
<g clip-path="url(#clip0_15_134)">
<path fill-rule="evenodd" clip-rule="evenodd" d="M8.76477 3.75822C9.41046 3.10643 9.41046 2.05064 8.76477 1.39885L8.74308 1.37664C8.09739 0.724855 7.05128 0.724855 6.40559 1.37664L0.484268 7.35238C-0.161423 8.00417 -0.161423 9.06203 0.484268 9.71382L6.40559 15.6891C7.05128 16.3409 8.09739 16.3409 8.74308 15.6891L8.76477 15.6674C9.41046 15.0156 9.41046 13.9598 8.76477 13.308L5.2043 9.71382C4.55861 9.06203 4.55861 8.00417 5.2043 7.35238L8.76477 3.75822ZM31.5157 7.35238L25.5944 1.37664C24.9504 0.724855 23.9026 0.724855 23.2569 1.37664L23.2352 1.39885C22.5895 2.05064 22.5895 3.10643 23.2352 3.75822L26.7974 7.35238C27.4431 8.00417 27.4431 9.06203 26.7974 9.71382L23.2352 13.308C22.5895 13.9598 22.5895 15.0156 23.2352 15.6674L23.2569 15.6891C23.9026 16.3409 24.9504 16.3409 25.5944 15.6891L31.5157 9.71382C32.1614 9.06203 32.1614 8.00417 31.5157 7.35238ZM21.5737 0.371711L13.0475 18.6127C12.7713 19.1861 12.2867 19.8947 11.6615 19.8947H11.6284C10.4128 19.8947 9.62056 18.2439 10.1581 17.1308L18.6346 -0.9375C18.9108 -1.50927 19.9346 -1.95765 19.9346 -1.95765V-2C21.5885 -2 22.1095 -0.741367 21.5737 0.371711Z" fill="#222222"/>
</g>
<defs>
<clipPath id="clip0_15_134">
<rect width="32" height="21.8947" fill="white"/>
</clipPath>
</defs>
</svg>
