<?xml version="1.0" encoding="iso-8859-1"?>
<!-- Generator: Adobe Illustrator 21.0.0, SVG Export Plug-In . SVG Version: 6.00 Build 0)  -->
<svg version="1.1" id="Layer_1" xmlns="http://www.w3.org/2000/svg" xmlns:xlink="http://www.w3.org/1999/xlink" x="0px" y="0px"
	 viewBox="0 0 24 24" enable-background="new 0 0 24 24" xml:space="preserve">
<g>
	<path fill="#303C42" d="M22.5,1h-21C1.2236328,1,1,1.2236328,1,1.5v21C1,22.7763672,1.2236328,23,1.5,23h21
		c0.2763672,0,0.5-0.2236328,0.5-0.5v-21C23,1.2236328,22.7763672,1,22.5,1z M15,2v9.5H2V2H15z M2,12.5h13V22H2V12.5z M22,22h-6V2h6
		V22z"/>
	<linearGradient id="SVGID_1_" gradientUnits="userSpaceOnUse" x1="-1.0996976" y1="5.8915105" x2="25.0996971" y2="18.10849">
		<stop  offset="0" style="stop-color:#FFFFFF;stop-opacity:0.2"/>
		<stop  offset="1" style="stop-color:#FFFFFF;stop-opacity:0"/>
	</linearGradient>
	<path fill="url(#SVGID_1_)" d="M22.5,1h-21C1.2236328,1,1,1.2236328,1,1.5v21C1,22.7763672,1.2236328,23,1.5,23h21
		c0.2763672,0,0.5-0.2236328,0.5-0.5v-21C23,1.2236328,22.7763672,1,22.5,1z M15,2v9.5H2V2H15z M2,12.5h13V22H2V12.5z M22,22h-6V2h6
		V22z"/>
</g>
<g>
</g>
<g>
</g>
<g>
</g>
<g>
</g>
<g>
</g>
<g>
</g>
<g>
</g>
<g>
</g>
<g>
</g>
<g>
</g>
<g>
</g>
<g>
</g>
<g>
</g>
<g>
</g>
<g>
</g>
</svg>
