<?xml version="1.0" encoding="UTF-8" standalone="no"?> <svg id="Layer_1" data-name="Layer 1" xmlns="http://www.w3.org/2000/svg" viewBox="0 0 24 24"><title>Artboard 14</title><path d="M22.41,10.58,20.36,8.53V5.62a2,2,0,0,0-2-2H15.46l-2.05-2a2,2,0,0,0-2.82,0L8.54,3.63H5.63a2,2,0,0,0-2,2V8.53l-2,2.05a2,2,0,0,0,0,2.82l2.06,2v2.91a2,2,0,0,0,2,2H8.54l2.05,2A2,2,0,0,0,12,23a2,2,0,0,0,1.41-.58l2.05-2.06h2.91a2,2,0,0,0,2-2V15.45l2.05-2a2,2,0,0,0,0-2.82Zm-4.05,4.05v3.72H14.64L12,21,9.36,18.35H5.64V14.63L3,12,5.64,9.35V5.63H9.36L12,3l2.64,2.64h3.72V9.35L21,12Z"/><path d="M12,7a5,5,0,1,0,5,5A5,5,0,0,0,12,7Zm0,8a3,3,0,1,1,3-3A3,3,0,0,1,12,15Z"/></svg>