<svg width="23" height="23" viewBox="0 0 23 23" fill="none" xmlns="http://www.w3.org/2000/svg">
<g clip-path="url(#clip0_18_16)">
<path fill-rule="evenodd" clip-rule="evenodd" d="M3.71067 3.71065C5.53602 1.8853 8.50455 1.8853 10.3299 3.71065L11.9844 5.36517L13.6389 3.71065L11.9844 2.05615C9.24289 -0.685384 4.79769 -0.685384 2.05615 2.05615C-0.685384 4.79769 -0.685384 9.24288 2.05615 11.9844L3.71067 13.6389L5.3652 11.9844L3.71067 10.3299C1.88532 8.50453 1.88532 5.536 3.71067 3.71065ZM20.9439 11.0156L19.2893 9.35989L17.6348 11.0156L19.2893 12.6701C21.1135 14.4943 21.1135 17.464 19.2893 19.2893C17.464 21.1135 14.4943 21.1135 12.6701 19.2893L11.0156 17.6337L9.3599 19.2893L11.0156 20.9438C13.7571 23.6854 18.2023 23.6854 20.9439 20.9438C23.6854 18.2023 23.6854 13.7571 20.9439 11.0156ZM6.19244 4.53791L18.4621 16.8064L16.8064 18.4621L4.53792 6.19244L6.19244 4.53791Z" fill="inherit"/>
</g>
<defs>
<clipPath id="clip0_18_16">
<rect width="23" height="23" fill="white"/>
</clipPath>
</defs>
</svg>
