<?xml version="1.0" encoding="UTF-8" standalone="no"?> <svg xmlns="http://www.w3.org/2000/svg" viewBox="0 0 32 32"><title>Art Shop</title><g id="Art_Shop" data-name="Art Shop"><path d="M22.337,3.3A14.358,14.358,0,0,0,7.6,27.733a6.124,6.124,0,0,0,3.741,1.276,6.234,6.234,0,0,0,3.628-1.174,4.9,4.9,0,0,0,2.05-3.985,5.585,5.585,0,0,0-.063-.8,2.891,2.891,0,0,1,2.322-3.311l2.03-.37a1,1,0,0,0-.358-1.968l-2.03.37a4.895,4.895,0,0,0-3.941,5.585,3.5,3.5,0,0,1,.04.489,2.859,2.859,0,0,1-1.211,2.357,4.171,4.171,0,0,1-4.988-.059A12.359,12.359,0,0,1,21.5,5.119,1,1,0,1,0,22.337,3.3Z"/><path d="M6,18a3,3,0,1,0,3-3A3,3,0,0,0,6,18Zm4,0a1,1,0,1,1-1-1A1,1,0,0,1,10,18Z"/><path d="M14,11a3,3,0,1,0-3,3A3,3,0,0,0,14,11Zm-3,1a1,1,0,1,1,1-1A1,1,0,0,1,11,12Z"/><path d="M15,9a3,3,0,1,0,3-3A3,3,0,0,0,15,9Zm4,0a1,1,0,1,1-1-1A1,1,0,0,1,19,9Z"/><path d="M29.88,17.945,29.051,3.838A1.978,1.978,0,0,0,27.1,2h-.2a1.955,1.955,0,0,0-1.949,1.838L24.12,17.944a2.885,2.885,0,1,0,5.76,0Zm-2.235.777a.907.907,0,0,1-1.29,0,.885.885,0,0,1-.239-.66L26.9,4l.157-.045.829,14.108A.884.884,0,0,1,27.645,18.722Z"/><path d="M27,21a3,3,0,0,0-3,3,8.38,8.38,0,0,0,.551,2.816A6.438,6.438,0,0,1,25,29a1,1,0,0,0,1,1,1.01,1.01,0,0,0,.316-.051C26.467,29.9,30,28.667,30,24A3,3,0,0,0,27,21Zm-.214,6.3c-.1-.4-.222-.77-.337-1.116A6.438,6.438,0,0,1,26,24a1,1,0,0,1,2,0A4.474,4.474,0,0,1,26.786,27.3Z"/></g></svg>