<?xml version="1.0" encoding="utf-8"?>
<!-- Generator: Adobe Illustrator 23.0.3, SVG Export Plug-In . SVG Version: 6.00 Build 0)  -->
<svg version="1.1" id="Icons" xmlns="http://www.w3.org/2000/svg" xmlns:xlink="http://www.w3.org/1999/xlink" x="0px" y="0px"
	 viewBox="0 0 32 32" style="enable-background:new 0 0 32 32;" xml:space="preserve">
<style type="text/css">
	.st0{fill:none;stroke:inherit;stroke-width:2;stroke-linecap:round;stroke-linejoin:round;stroke-miterlimit:10;}
	.st1{fill:none;stroke:inherit;stroke-width:2;stroke-linecap:round;stroke-linejoin:round;}
	.st2{fill:none;stroke:inherit;stroke-width:2;stroke-linecap:round;stroke-linejoin:round;stroke-dasharray:6,6;}
	.st3{fill:none;stroke:inherit;stroke-width:2;stroke-linecap:round;stroke-linejoin:round;stroke-dasharray:4,4;}
	.st4{fill:none;stroke:inherit;stroke-width:2;stroke-linecap:round;}
	.st5{fill:none;stroke:inherit;stroke-width:2;stroke-linecap:round;stroke-dasharray:3.1081,3.1081;}
	.st6{fill:none;stroke:inherit;stroke-width:2;stroke-linecap:round;stroke-linejoin:round;stroke-miterlimit:10;stroke-dasharray:4,3;}
</style>
<path class="st0" d="M16,19v-3c0-1.1-0.9-2-2-2H6.5C4.6,14,3,12.4,3,10.5v0C3,8.6,4.6,7,6.5,7H7v2c0,1.1,0.9,2,2,2h14
	c1.1,0,2-0.9,2-2V5c0-1.1-0.9-2-2-2H9C7.9,3,7,3.9,7,5v2"/>
<path class="st0" d="M16,29L16,29c-1.6,0-2.9-1.4-2.7-3l0.7-7h2h2l0.7,7C18.9,27.6,17.6,29,16,29z"/>
</svg>
