<svg width="475" height="483" viewBox="0 0 475 483" fill="none" xmlns="http://www.w3.org/2000/svg">
<path d="M182.498 0H36.5017C26.6139 0 18.0606 4.33738 10.8365 13.0085C3.61251 21.6665 0 31.9401 0 43.7993V175.198C0 187.06 3.61251 197.327 10.8365 205.991C18.0596 214.664 26.6129 219 36.5017 219H182.498C192.386 219 200.939 214.66 208.163 205.991C215.387 197.327 219 187.06 219 175.198V43.7993C219 31.9401 215.387 21.6701 208.163 13.0074C200.939 4.33379 192.383 0 182.498 0Z" class="square-1"/>
<path d="M182.498 264H36.5017C26.6139 264 18.0606 268.34 10.8365 277.006C3.61251 285.673 0 295.939 0 307.8V439.199C0 451.061 3.61251 461.332 10.8365 469.994C18.0596 478.664 26.6129 483 36.5017 483H182.498C192.386 483 200.939 478.665 208.163 469.994C215.387 461.331 219 451.061 219 439.199V307.8C219 295.939 215.387 285.673 208.163 277.006C200.939 268.333 192.383 264 182.498 264Z" class="square-2"  />
<path d="M464.161 13.0085C456.945 4.33376 448.384 0 438.499 0H292.5C282.616 0 274.06 4.33736 266.839 13.0085C259.614 21.6664 256 31.9411 256 43.8002V175.199C256 187.06 259.613 197.328 266.839 205.992C274.06 214.664 282.616 219 292.5 219H438.499C448.384 219 456.946 214.66 464.161 205.992C471.386 197.328 475 187.06 475 175.199V43.799C475 31.9399 471.389 21.6736 464.161 13.0085Z" class="square-2"/>
<path d="M438.499 264H292.5C282.616 264 274.06 268.34 266.839 277.006C259.614 285.673 256 295.939 256 307.8V439.199C256 451.061 259.613 461.332 266.839 469.994C274.06 478.664 282.616 483 292.5 483H438.499C448.384 483 456.946 478.665 464.161 469.994C471.386 461.331 475 451.061 475 439.199V307.8C475 295.939 471.39 285.673 464.161 277.006C456.945 268.333 448.391 264 438.499 264Z" class="square-1" />
</svg>
