<svg width="29" height="29" viewBox="0 0 29 29" fill="none" xmlns="http://www.w3.org/2000/svg">
<path d="M25.1937 25.5563C24.0156 26.7344 22.2031 26.7344 21.025 25.5563L15.4062 19.9375L19.575 15.7688L25.1937 21.3875C26.3719 22.475 26.3719 24.3781 25.1937 25.5563Z" stroke="#222222" stroke-width="2" stroke-miterlimit="10" stroke-linecap="round" stroke-linejoin="round"/>
<path d="M5.61865 3.17188L2.8999 5.98125L4.98428 9.51562L8.42803 11.6L16.1312 19.3031L18.9405 16.4937L11.2374 8.79062L9.15303 5.25625L5.61865 3.17188Z" stroke="#222222" stroke-width="2" stroke-miterlimit="10" stroke-linecap="round" stroke-linejoin="round"/>
<path d="M17.1282 14.5906L19.575 12.1438C21.2969 12.7781 23.3813 12.5063 24.7407 11.0563C26.1 9.69688 26.4625 7.6125 25.8282 5.89063L23.4719 8.24688L21.2969 7.70313L20.7532 5.52813L23.1094 3.17188C21.3875 2.5375 19.3032 2.80938 17.9438 4.25938C16.5844 5.61875 16.2219 7.70313 16.8563 9.425L14.4094 11.8719" stroke="#222222" stroke-width="2" stroke-miterlimit="10" stroke-linejoin="round"/>
<path d="M11.5094 14.7719L9.42504 16.8563C7.70316 16.2219 5.61879 16.4938 4.25941 17.9438C2.90004 19.3031 2.53754 21.3875 3.17191 23.1094L5.52816 20.7531L7.70316 21.2969L8.24691 23.4719L5.89066 25.8281C7.61254 26.4625 9.69691 26.1906 11.0563 24.7406C12.4157 23.3813 12.7782 21.2969 12.1438 19.575L14.3188 17.4" stroke="#222222" stroke-width="2" stroke-miterlimit="10" stroke-linejoin="round"/>
</svg>
